<?xml version="1.0" standalone="no"?>
<!DOCTYPE svg PUBLIC "-//W3C//DTD SVG 20010904//EN" "http://www.w3.org/TR/2001/REC-SVG-20010904/DTD/svg10.dtd">
<!-- Created using Krita: https://krita.org -->
<svg xmlns="http://www.w3.org/2000/svg" 
    xmlns:xlink="http://www.w3.org/1999/xlink"
    xmlns:krita="http://krita.org/namespaces/svg/krita"
    xmlns:sodipodi="http://sodipodi.sourceforge.net/DTD/sodipodi-0.dtd"
    width="122.88pt"
    height="122.88pt"
    viewBox="0 0 122.88 122.88">
<defs>
  <linearGradient id="gradient0" gradientUnits="objectBoundingBox" x1="0" y1="0" x2="1" y2="1" spreadMethod="pad">
   <stop stop-color="#3b96c3" offset="0" stop-opacity="1"/>
   <stop stop-color="#8ed6ed" offset="1" stop-opacity="1"/>
  </linearGradient>
  <radialGradient id="gradient1" gradientUnits="objectBoundingBox" cx="0" cy="0" fx="0" fy="0" r="1.4142135623731" spreadMethod="pad">
   <stop stop-color="#46ade0" offset="0.2437" stop-opacity="1"/>
   <stop stop-color="#80cbe6" offset="1" stop-opacity="1"/>
  </radialGradient>
  <radialGradient id="gradient2" gradientUnits="objectBoundingBox" cx="0" cy="0" fx="0" fy="0" r="1.4142135623731" spreadMethod="pad">
   <stop stop-color="#46ade0" offset="0.2437" stop-opacity="1"/>
   <stop stop-color="#80cbe6" offset="1" stop-opacity="1"/>
  </radialGradient>
  <radialGradient id="gradient3" gradientUnits="objectBoundingBox" cx="0" cy="0" fx="0" fy="0" r="1.4142135623731" spreadMethod="pad">
   <stop stop-color="#46ade0" offset="0.2437" stop-opacity="1"/>
   <stop stop-color="#80cbe6" offset="1" stop-opacity="1"/>
  </radialGradient>
  <radialGradient id="gradient4" gradientUnits="objectBoundingBox" cx="0" cy="0" fx="0" fy="0" r="1.4142135623731" spreadMethod="pad">
   <stop stop-color="#46ade0" offset="0.2437" stop-opacity="1"/>
   <stop stop-color="#80cbe6" offset="1" stop-opacity="1"/>
  </radialGradient>
  <radialGradient id="gradient5" gradientUnits="objectBoundingBox" cx="0" cy="0" fx="0" fy="0" r="1.4142135623731" spreadMethod="pad">
   <stop stop-color="#46ade0" offset="0.2437" stop-opacity="1"/>
   <stop stop-color="#80cbe6" offset="1" stop-opacity="1"/>
  </radialGradient>
 </defs>
<circle id="shape0" transform="matrix(0.512000022888184 0 0 0.512000022888184 9.83040043945314 9.83040043945314)" r="100.8" cx="100.8" cy="100.8" fill="none" stroke="url(#gradient0)" stroke-width="11.76" stroke-linecap="square" stroke-linejoin="bevel"/><path id="shape0" fill="url(#gradient1)" fill-rule="evenodd" stroke="none" stroke-width="1.2" stroke-linecap="square" stroke-linejoin="bevel" d="M83.4214 82.8509L83.4587 82.5132L83.494 82.1837L83.5276 81.8626L83.5593 81.5499L83.5891 81.2455L83.6171 80.9494L83.6432 80.6616L83.6675 80.3822L83.6899 80.1112L83.7105 79.8484L83.7292 79.594L83.7461 79.348L83.7611 79.1103L83.7743 78.8809L83.7856 78.6599L83.7951 78.4472L83.8027 78.2428L83.8085 78.0468L83.8124 77.8591L83.8144 77.6798L83.8147 77.5088L83.813 77.3461L83.8095 77.1918L83.8042 77.0458L83.7962 76.8787L83.787 76.7067L83.7762 76.53L83.7638 76.3484L83.7497 76.1621L83.7337 75.9709L83.7156 75.7749L83.6953 75.5741L83.6728 75.3686L83.6478 75.1582L83.6202 74.943L83.5899 74.723L83.5567 74.4982L83.5206 74.2686L83.4813 74.0342L83.4388 73.7951L83.3928 73.5511L83.3434 73.3024L83.2902 73.0488L83.2332 72.7905L83.1723 72.5274L83.1073 72.2596L83.0381 71.9869L82.9646 71.7095L82.8865 71.4273L82.8038 71.1403L82.7164 70.8486L82.624 70.5521L82.5266 70.2508L82.4575 70.0446L82.5133 70.0056L83.0421 69.6214L83.566 69.2259L84.085 68.8191L84.5992 68.401L85.1086 67.9716L85.613 67.5309L86.1126 67.079L86.6073 66.6157L87.0972 66.1411L87.5822 65.6552L88.0623 65.1581L88.5375 64.6496L89.0079 64.1298L89.4734 63.5988L89.934 63.0564L90.3898 62.5028L90.8407 61.9378L91.2867 61.3616L91.7279 60.7741L92.1642 60.1752L92.5956 59.5651L93.0222 58.9437L93.4439 58.311L93.8607 57.6669L94.2727 57.0116L94.6798 56.345L95.082 55.6671L95.4793 54.9779L95.8718 54.2774L95.2632 54.729L94.6565 55.1735L94.0519 55.6109L93.4492 56.0412L92.8484 56.4644L92.2497 56.8805L91.6529 57.2896L91.0581 57.6915L90.4652 58.0863L89.8743 58.4741L89.2854 58.8547L88.6985 59.2283L88.1135 59.5948L87.5305 59.9542L86.9495 60.3064L86.3704 60.6516L85.7933 60.9897L85.2182 61.3207L84.645 61.6447L84.0739 61.9615L83.5046 62.2712L82.9374 62.5738L82.3721 62.8694L81.8088 63.1578L81.2475 63.4392L80.6881 63.7134L80.1307 63.9806L79.5753 64.2407L79.0219 64.4937L78.4704 64.7396L77.9209 64.9784L77.3733 65.2101L76.8278 65.4347L76.2842 65.6522L75.7425 65.8626L75.2029 66.066L74.6652 66.2622L74.1295 66.4513L73.5957 66.6334L73.0639 66.8084L72.5341 66.9762L72.0063 67.137L71.4804 67.2907L70.9565 67.4373L70.4346 67.5768L69.9146 67.7092L69.3966 67.8345L68.8806 67.9527L68.3666 68.0638L67.8545 68.1678L67.3444 68.2648L66.8363 68.3546L66.3301 68.4374L65.8259 68.513L65.3237 68.5816L64.8234 68.6431L64.3251 68.6974L63.8288 68.7447L63.3345 68.7849L62.8421 68.818L62.3517 68.844L61.8633 68.863L61.3768 68.8748L60.8904 68.8792L60.4022 68.876L59.9121 68.8651L59.4202 68.8466L58.9265 68.8204L58.4309 68.7865L57.9334 68.745L57.4342 68.6958L56.9331 68.6389L56.4301 68.5744L55.9253 68.5023L55.4187 68.4224L54.9102 68.3349L54.3999 68.2398L53.8878 68.1369L53.3738 68.0264L52.858 67.9083L52.3403 67.7825L51.8208 67.649L51.2995 67.5079L50.7763 67.3591L50.2513 67.2026L49.7245 67.0385L49.1958 66.8667L48.6653 66.6872L48.1329 66.5001L47.5987 66.3054L47.0626 66.1029L46.5247 65.8928L45.985 65.6751L45.4435 65.4497L44.9001 65.2166L44.3548 64.9758L43.8077 64.7274L43.2588 64.4713L42.7081 64.2076L42.1555 63.9362L41.601 63.6572L41.0447 63.3704L40.4866 63.0761L39.9267 62.774L39.3649 62.4643L38.8013 62.1469L38.2358 61.8219L37.6685 61.4892L37.0993 61.1489L36.5283 60.8008L35.9555 60.4452L35.3808 60.0818L34.8043 59.7108L34.226 59.3322L33.6458 58.9458L33.0638 58.5518L32.4799 58.1502L31.8942 57.7409L31.3067 57.3239L30.7173 56.8993L30.1261 56.4669L29.5331 56.027L28.9382 55.5794L28.3414 55.1241L27.7429 54.6611L27.1425 54.1905L27.5374 54.8848L27.9372 55.5681L28.342 56.2402L28.7517 56.9014L29.1664 57.5515L29.5859 58.1905L30.0104 58.8185L30.4398 59.4354L30.8741 60.0413L31.3133 60.6362L31.7575 61.2199L32.2066 61.7927L32.6606 62.3543L33.1195 62.905L33.5834 63.4445L34.0522 63.9731L34.5259 64.4905L35.0045 64.997L35.488 65.4923L35.9765 65.9766L36.4699 66.4499L36.9682 66.9121L37.4714 67.3633L37.9796 67.8034L38.4927 68.2324L39.0107 68.6504L39.5336 69.0574L40.0614 69.4533L40.5671 69.8186L40.5162 69.9657L40.414 70.2725L40.3174 70.5751L40.226 70.8734L40.1398 71.1673L40.0585 71.4569L39.9821 71.742L39.9104 72.0226L39.8431 72.2988L39.7802 72.5704L39.7216 72.8375L39.6669 73.0999L39.6161 73.3577L39.5691 73.6108L39.5256 73.8591L39.4856 74.1027L39.4488 74.3415L39.4151 74.5754L39.3843 74.8044L39.3563 75.0285L39.3309 75.2477L39.308 75.4618L39.2874 75.6709L39.269 75.875L39.2526 76.0739L39.238 76.2676L39.2251 76.4562L39.2137 76.6395L39.2036 76.8176L39.1948 76.9903L39.1871 77.1577L39.1814 77.31L39.1776 77.4711L39.1756 77.641L39.1755 77.8195L39.1771 78.0068L39.1806 78.2028L39.1859 78.4076L39.193 78.6211L39.202 78.8433L39.2127 79.0743L39.2253 79.314L39.2397 79.5624L39.256 79.8196L39.274 80.0855L39.2939 80.3601L39.3156 80.6435L39.3392 80.9356L39.3645 81.2364L39.3917 81.546L39.4207 81.8643L39.4515 82.1913L39.4842 82.5271L39.5186 82.8716L39.8735 82.6866L40.2174 82.5045L40.5503 82.3253L40.8723 82.149L41.1832 81.9756L41.4832 81.805L41.7722 81.6374L42.0503 81.4726L42.3174 81.3108L42.5734 81.1518L42.8186 80.9957L43.0527 80.8425L43.2759 80.6922L43.4881 80.5448L43.6893 80.4002L43.8795 80.2586L44.0588 80.1198L44.2271 79.984L44.3844 79.851L44.5307 79.7209L44.6558 79.6059L44.7906 79.4801L44.9349 79.3434L45.0885 79.1955L45.251 79.0362L45.4223 78.8654L45.602 78.6829L45.79 78.4884L45.9859 78.2818L46.1896 78.0628L46.4007 77.8313L46.6191 77.5871L46.8444 77.33L47.0765 77.0598L47.315 76.7763L47.5598 76.4792L47.8105 76.1685L48.0669 75.8438L48.3288 75.5051L48.5958 75.1521L48.8679 74.7846L49.1446 74.4024L49.218 74.2988L49.7881 74.4927L50.4045 74.6897L51.0259 74.8756L51.6522 75.0505L52.2834 75.2143L52.9196 75.367L53.5607 75.5088L54.2066 75.6394L54.8576 75.759L55.5134 75.8676L56.1742 75.9651L56.5263 76.0108L56.5355 76.0704L56.5904 76.4205L56.6449 76.7626L56.699 77.0966L56.7528 77.4226L56.8062 77.7405L56.8592 78.0504L56.9118 78.3522L56.9641 78.6459L57.0159 78.9316L57.0674 79.2092L57.1186 79.4788L57.1693 79.7403L57.2197 79.9938L57.2697 80.2392L57.3194 80.4765L57.3686 80.7058L57.4175 80.927L57.466 81.1402L57.5141 81.3453L57.5619 81.5423L57.6093 81.7313L57.6563 81.9123L57.7029 82.0852L57.7492 82.25L57.7951 82.4068L57.8406 82.5555L57.8857 82.6961L57.9305 82.8287L57.9749 82.9533L58.0189 83.0698L58.0932 83.2511L58.1777 83.4395L58.2724 83.6351L58.3771 83.8377L58.492 84.0476L58.6171 84.2645L58.7523 84.4886L58.8976 84.7198L59.0531 84.9582L59.2188 85.2036L59.3945 85.4562L59.5804 85.716L59.7765 85.9828L59.9827 86.2568L60.199 86.5379L60.4255 86.8262L60.6622 87.1216L60.9089 87.4241L61.1658 87.7337L61.4329 88.0505L61.6492 87.796L61.8596 87.5426L62.0642 87.2902L62.2631 87.0389L62.4561 86.7887L62.6433 86.5395L62.8247 86.2914L63.0003 86.0443L63.1701 85.7983L63.3341 85.5533L63.4923 85.3094L63.6446 85.0666L63.7912 84.8248L63.9319 84.5841L64.0669 84.3444L64.196 84.1058L64.3193 83.8682L64.4368 83.6317L64.5485 83.3963L64.6544 83.1619L64.7205 83.0082L64.7856 82.8486L64.8499 82.6833L64.9133 82.5123L64.9759 82.3354L65.0376 82.1528L65.0984 81.9644L65.1583 81.7703L65.2174 81.5704L65.2757 81.3647L65.333 81.1532L65.3895 80.936L65.4452 80.713L65.4999 80.4842L65.5538 80.2497L65.6069 80.0093L65.6591 79.7633L65.7104 79.5114L65.7608 79.2538L65.8104 78.9904L65.8591 78.7212L65.907 78.4463L65.954 78.1656L66.0001 77.8791L66.0453 77.5869L66.0897 77.2888L66.1333 76.985L66.1759 76.6755L66.2177 76.3602L66.2478 76.1242L66.3955 76.1091L67.0557 76.0299L67.7111 75.9394L68.3616 75.8376L69.0072 75.7245L69.648 75.6001L70.2839 75.4645L70.9149 75.3175L71.5411 75.1592L72.1624 74.9896L72.7788 74.8087L73.3904 74.6166L73.8512 74.462L74.0653 74.7624L74.3293 75.128L74.5857 75.4785L74.8345 75.8142L75.0758 76.1354L75.3096 76.4422L75.5361 76.735L75.7552 77.014L75.9671 77.2796L76.1718 77.5319L76.3694 77.7713L76.5599 77.9979L76.7434 78.2122L76.92 78.4143L77.0897 78.6046L77.2526 78.7832L77.4087 78.9505L77.5581 79.1067L77.7009 79.2521L77.8372 79.387L77.9669 79.5116L78.0903 79.6262L78.2235 79.7445L78.3671 79.8655L78.5212 79.9892L78.6856 80.1156L78.8604 80.2446L79.0456 80.3764L79.2411 80.5109L79.4471 80.648L79.6635 80.7879L79.8902 80.9304L80.1273 81.0756L80.3748 81.2236L80.6328 81.3742L80.9011 81.5275L81.1797 81.6835L81.4688 81.8422L81.7683 82.0036L82.0781 82.1677L82.3984 82.3344L82.729 82.5039L83.07 82.6761L83.4214 82.8509" sodipodi:nodetypes="ccccccccccccccccccccccccccccccccccccccccccccccccccccccccccccccccccccccccccccccccccccccccccccccccccccccccccccccccccccccccccccccccccccccccccccccccccccccccccccccccccccccccccccccccccccccccccccccccccccccccccccccccccccccccccccccccccccccccccccccccccccccccccccccccccccccccccccccccccccccccccccccccccccccccccccccccccccccccccccccccccccccccccccccccccccccccccccccccccccccccccccccccccccccccccccccccccccccccccccccccccccccccccccccccccccccccccccccccccccccccccccccccccccccccccccccccccccccccccccccccccccccccccccccccccccccccccc"/><path id="shape02" transform="matrix(0.36080664753247 -0.363266517159769 0.363266517159769 0.36080664753247 83.0929152840132 116.868044458254)" fill="url(#gradient2)" fill-rule="evenodd" stroke="none" stroke-width="1.2" stroke-linecap="square" stroke-linejoin="bevel" d="M0 0C16.8301 13.2788 32.039 19.8025 45.6266 19.5708C59.2143 19.3392 74.5391 12.8542 91.6006 0.115801C80.6839 19.8796 65.475 29.6843 45.974 29.5299C26.3094 29.4302 10.9847 19.5868 0 0Z" sodipodi:nodetypes="ccccc"/><path id="shape03" transform="matrix(0.363266513609617 0.360806644006358 -0.360806644006358 0.363266513609617 6.52624700916857 83.0936112781844)" fill="url(#gradient3)" fill-rule="evenodd" stroke="none" stroke-width="1.2" stroke-linecap="square" stroke-linejoin="bevel" d="M0 0C16.8301 13.2788 32.039 19.8025 45.6266 19.5708C59.2143 19.3392 74.5391 12.8542 91.6006 0.115801C80.6839 19.8796 65.475 29.6843 45.974 29.5299C26.3094 29.4302 10.9847 19.5868 0 0Z" sodipodi:nodetypes="ccccc"/><path id="shape04" transform="matrix(-0.363266509149483 -0.360806639576425 0.360806639576425 -0.363266509149483 116.287407161195 40.3631734047995)" fill="url(#gradient4)" fill-rule="evenodd" stroke="none" stroke-width="1.2" stroke-linecap="square" stroke-linejoin="bevel" d="M0 0C16.8301 13.2788 32.039 19.8025 45.6266 19.5708C59.2143 19.3392 74.5391 12.8542 91.6006 0.115801C80.6839 19.8796 65.475 29.6843 45.974 29.5299C26.3094 29.4302 10.9847 19.5868 0 0Z" sodipodi:nodetypes="ccccc"/><path id="shape05" transform="matrix(-0.360806632508357 0.363266502033228 -0.363266502033228 -0.360806632508357 39.7825367275502 7.19365124298078)" fill="url(#gradient5)" fill-rule="evenodd" stroke="none" stroke-width="1.2" stroke-linecap="square" stroke-linejoin="bevel" d="M0 0C16.8301 13.2788 32.039 19.8025 45.6266 19.5708C59.2143 19.3392 74.5391 12.8542 91.6006 0.115801C80.6839 19.8796 65.475 29.6843 45.974 29.5299C26.3094 29.4302 10.9847 19.5868 0 0Z" sodipodi:nodetypes="ccccc"/>
</svg>
