<?xml version="1.0" standalone="no"?>
<!DOCTYPE svg PUBLIC "-//W3C//DTD SVG 20010904//EN" "http://www.w3.org/TR/2001/REC-SVG-20010904/DTD/svg10.dtd">
<!-- Created using Krita: https://krita.org -->
<svg xmlns="http://www.w3.org/2000/svg" 
    xmlns:xlink="http://www.w3.org/1999/xlink"
    xmlns:krita="http://krita.org/namespaces/svg/krita"
    xmlns:sodipodi="http://sodipodi.sourceforge.net/DTD/sodipodi-0.dtd"
    width="122.88pt"
    height="122.88pt"
    viewBox="0 0 122.88 122.88">
<defs>
  <linearGradient id="gradient0" gradientUnits="objectBoundingBox" x1="0" y1="0" x2="1" y2="1" spreadMethod="pad">
   <stop stop-color="#fffb00" offset="0" stop-opacity="1"/>
   <stop stop-color="#ffcf2c" offset="1" stop-opacity="1"/>
  </linearGradient>
  <linearGradient id="gradient1" gradientUnits="objectBoundingBox" x1="0" y1="0" x2="1" y2="1" spreadMethod="pad">
   <stop stop-color="#fffb00" offset="0" stop-opacity="1"/>
   <stop stop-color="#ffcf2c" offset="1" stop-opacity="1"/>
  </linearGradient>
  <linearGradient id="gradient2" gradientUnits="objectBoundingBox" x1="0" y1="0" x2="1" y2="1" spreadMethod="pad">
   <stop stop-color="#fffb00" offset="0" stop-opacity="1"/>
   <stop stop-color="#ffcf2c" offset="1" stop-opacity="1"/>
  </linearGradient>
  <linearGradient id="gradient3" gradientUnits="objectBoundingBox" x1="0" y1="0" x2="1" y2="1" spreadMethod="pad">
   <stop stop-color="#fffb00" offset="0" stop-opacity="1"/>
   <stop stop-color="#ffcf2c" offset="1" stop-opacity="1"/>
  </linearGradient>
  <linearGradient id="gradient4" gradientUnits="objectBoundingBox" x1="0" y1="0" x2="1" y2="1" spreadMethod="pad">
   <stop stop-color="#fffb00" offset="0" stop-opacity="1"/>
   <stop stop-color="#ffcf2c" offset="1" stop-opacity="1"/>
  </linearGradient>
  <linearGradient id="gradient5" gradientUnits="objectBoundingBox" x1="0" y1="0" x2="1" y2="1" spreadMethod="pad">
   <stop stop-color="#fffb00" offset="0" stop-opacity="1"/>
   <stop stop-color="#ffcf2c" offset="1" stop-opacity="1"/>
  </linearGradient>
 </defs>
<circle id="shape0" transform="matrix(0.512000022888184 0 0 0.512000022888184 40.1203217923003 94.80192421145)" r="17.8200000276626" cx="17.8200000276626" cy="17.8200000276626" fill="url(#gradient0)" fill-rule="evenodd" stroke="#ffffff" stroke-width="1.44" stroke-linecap="square" stroke-linejoin="bevel"/><path id="shape1" transform="matrix(0.512000022888184 0 0 0.512000022888184 37.899169702961 6.22728962809008)" fill="url(#gradient1)" fill-rule="evenodd" stroke="#ffffff" stroke-width="1.44" stroke-linecap="square" stroke-linejoin="bevel" d="M52.6127 115.674C44.4668 144.298 40.0545 159.062 39.3757 159.967C38.3574 161.325 36.1982 164.597 29.5382 163.097C22.8782 161.597 22.7582 156.677 23.0582 155.177C23.2582 154.177 28.8388 134.561 39.7999 96.3275C66.7988 99.6007 83.1382 92.2373 88.8182 74.2373C97.3382 47.2373 83.4182 17.3573 52.6982 20.4773C21.9782 23.5973 21.6147 49.8457 19.5782 51.7973C17.5417 53.7489 11.9682 52.9677 9.33776 52.0343C6.70733 51.1009 -0.406077 46.332 0.0181875 43.2773C0.442452 40.2226 10.0982 3.07733 47.5382 0.317327C84.9782 -2.44267 105.981 12.8049 111.501 45.9249C117.021 79.0449 103.674 91.9472 92.1541 102.267C83.01 109.363 80.7782 112.637 52.6127 115.674Z" sodipodi:nodetypes="czzzczzzzzzzcc"/><circle id="shape01" transform="matrix(0.223547329134097 -0.0683189819658409 0.0683189819658409 0.223547329134097 20.7829692979135 93.1511535750206)" r="17.8200000276626" cx="17.8200000276626" cy="17.8200000276626" fill="url(#gradient2)" fill-rule="evenodd" stroke="#ffffff" stroke-width="3.12" stroke-linecap="square" stroke-linejoin="bevel"/><path id="shape11" transform="matrix(0.223547329134097 -0.0683189819658409 0.0683189819658409 0.223547329134097 7.99417794009161 54.7744441248565)" fill="url(#gradient3)" fill-rule="evenodd" stroke="#ffffff" stroke-width="3.12" stroke-linecap="square" stroke-linejoin="bevel" d="M52.6127 115.674C44.4668 144.298 40.0545 159.062 39.3757 159.967C38.3574 161.325 36.1982 164.597 29.5382 163.097C22.8782 161.597 22.7582 156.677 23.0582 155.177C23.2582 154.177 28.8388 134.561 39.7999 96.3275C66.7988 99.6007 83.1382 92.2373 88.8182 74.2373C97.3382 47.2373 83.4182 17.3573 52.6982 20.4773C21.9782 23.5973 21.6147 49.8457 19.5782 51.7973C17.5417 53.7489 11.9682 52.9677 9.33776 52.0343C6.70733 51.1009 -0.406077 46.332 0.0181875 43.2773C0.442452 40.2226 10.0982 3.07733 47.5382 0.317327C84.9782 -2.44267 105.981 12.8049 111.501 45.9249C117.021 79.0449 103.674 91.9472 92.1541 102.267C83.01 109.363 80.7782 112.637 52.6127 115.674Z" sodipodi:nodetypes="czzzczzzzzzzcc"/><circle id="shape011" transform="matrix(0.204427985947292 0.0924220942599382 -0.0924220942599382 0.204427985947292 72.5828644837775 100.597812078062)" r="17.8200000276626" cx="17.8200000276626" cy="17.8200000276626" fill="url(#gradient4)" fill-rule="evenodd" stroke="#ffffff" stroke-width="3.12" stroke-linecap="square" stroke-linejoin="bevel"/><path id="shape111" transform="matrix(0.204427985947292 0.0924220942599382 -0.0924220942599382 0.204427985947292 87.6847926476913 64.8313729889896)" fill="url(#gradient5)" fill-rule="evenodd" stroke="#ffffff" stroke-width="3.12" stroke-linecap="square" stroke-linejoin="bevel" d="M52.6127 115.674C44.4668 144.298 40.0545 159.062 39.3757 159.967C38.3574 161.325 36.1982 164.597 29.5382 163.097C22.8782 161.597 22.7582 156.677 23.0582 155.177C23.2582 154.177 28.8388 134.561 39.7999 96.3275C66.7988 99.6007 83.1382 92.2373 88.8182 74.2373C97.3382 47.2373 83.4182 17.3573 52.6982 20.4773C21.9782 23.5973 21.6147 49.8457 19.5782 51.7973C17.5417 53.7489 11.9682 52.9677 9.33776 52.0343C6.70733 51.1009 -0.406077 46.332 0.0181875 43.2773C0.442452 40.2226 10.0982 3.07733 47.5382 0.317327C84.9782 -2.44267 105.981 12.8049 111.501 45.9249C117.021 79.0449 103.674 91.9472 92.1541 102.267C83.01 109.363 80.7782 112.637 52.6127 115.674Z" sodipodi:nodetypes="czzzczzzzzzzcc"/>
</svg>
