<?xml version="1.0" standalone="no"?>
<!DOCTYPE svg PUBLIC "-//W3C//DTD SVG 20010904//EN" "http://www.w3.org/TR/2001/REC-SVG-20010904/DTD/svg10.dtd">
<!-- Created using Krita: https://krita.org -->
<svg xmlns="http://www.w3.org/2000/svg" 
    xmlns:xlink="http://www.w3.org/1999/xlink"
    xmlns:krita="http://krita.org/namespaces/svg/krita"
    xmlns:sodipodi="http://sodipodi.sourceforge.net/DTD/sodipodi-0.dtd"
    width="122.88pt"
    height="122.88pt"
    viewBox="0 0 122.88 122.88">
<defs>
  <linearGradient id="gradient0" gradientUnits="objectBoundingBox" x1="0" y1="0" x2="1" y2="1" spreadMethod="pad">
   <stop stop-color="#8c6a9f" offset="0" stop-opacity="1"/>
   <stop stop-color="#365ca1" offset="1" stop-opacity="1"/>
  </linearGradient>
  <linearGradient id="gradient1" gradientUnits="objectBoundingBox" x1="0" y1="0" x2="1" y2="1" spreadMethod="pad">
   <stop stop-color="#8c6a9f" offset="0" stop-opacity="1"/>
   <stop stop-color="#365ca1" offset="1" stop-opacity="1"/>
  </linearGradient>
  <linearGradient id="gradient2" gradientUnits="objectBoundingBox" x1="0" y1="0" x2="1" y2="1" spreadMethod="pad">
   <stop stop-color="#8c6a9f" offset="0" stop-opacity="1"/>
   <stop stop-color="#365ca1" offset="1" stop-opacity="1"/>
  </linearGradient>
  <linearGradient id="gradient3" gradientUnits="objectBoundingBox" x1="0" y1="0" x2="1" y2="1" spreadMethod="pad">
   <stop stop-color="#8c6a9f" offset="0" stop-opacity="1"/>
   <stop stop-color="#365ca1" offset="1" stop-opacity="1"/>
  </linearGradient>
 </defs>
<rect id="shape0" transform="matrix(0.362038688151903 0.362038688151902 -0.362038688151902 0.362038688151903 61.4400031073767 88.1641579489071)" fill="url(#gradient0)" fill-rule="evenodd" stroke="none" stroke-width="0.72" stroke-linecap="square" stroke-linejoin="bevel" width="14.64" height="14.64" rx="0.24" ry="0.24"/><path id="shape1" transform="matrix(0.512000022888184 0 0 0.512000022888184 36.5803904108825 3.47557127839619)" fill="url(#gradient1)" fill-rule="evenodd" stroke="none" stroke-width="0.72" stroke-linecap="square" stroke-linejoin="bevel" d="M67.8823 170.978C64.6296 168.546 61.8866 163.284 58.6339 160.852C55.3812 158.419 51.6188 158.816 48.3661 156.384C47.5006 157.083 46.2294 155.484 36.6739 162.052C27.1185 168.62 31.6049 169.924 24.5225 175.645C28.5247 179.633 29.6717 187.704 33.6739 191.692C37.6762 195.68 44.5336 195.586 48.5358 199.574C56.116 193.521 69.2938 192.825 76.8739 186.772C84.4541 180.719 86.4367 169.31 94.0169 163.257C77.6403 152.509 65.4215 135.821 49.0449 125.073C32.6683 114.325 17.2251 110.026 0.848525 99.2778C9.78795 92.145 22.9652 69.4148 31.9047 62.282C40.8441 55.1491 44.1745 55.4246 53.1139 48.2918C48.9139 45.1518 47.3539 42.0718 43.1539 38.9318C38.9539 35.7918 28.5139 34.7518 24.3139 31.6118C28.1139 26.5718 30.9896 17.0891 34.7896 12.0491C38.5896 7.0091 55.3424 5.04 59.1424 0C58.2624 4.26 47.1985 11.9279 44.8871 15.6129C42.0555 20.1275 42.7139 22.6718 41.8339 26.9318C47.8739 30.8718 56.3139 31.1518 62.3539 35.0918C68.3939 39.0318 72.0339 46.6318 78.0739 50.5718C70.2942 57.9258 65.7637 58.2384 54.4339 68.2118C43.6727 77.6846 46.8969 83.8628 39.1171 91.2168C54.8998 102.05 68.9005 105.246 84.6831 116.079C100.466 126.912 110.309 148.86 126.091 159.693C113.168 170.886 108.517 191.299 95.5939 202.492C82.671 213.685 61.4768 215.659 48.5539 226.852C41.4339 218.312 26.6339 213.192 19.5139 204.652C12.3939 196.112 7.12 185.204 0 176.664C7.1 170.984 13.4344 156.379 20.5344 150.699C27.6344 145.019 41.3339 147.212 48.4339 141.532C51.6753 146.44 58.6325 149.104 61.8739 154.012C65.1153 158.92 64.6409 166.071 67.8823 170.978" sodipodi:nodetypes="ccczcccccccccccccscccsccccccccccc"/><path id="shape01" transform="matrix(0.512000008482959 0 0 0.512000008482959 13.8240024837879 23.9616001919115)" fill="url(#gradient2)" fill-rule="evenodd" stroke="none" stroke-width="0.72" stroke-linecap="square" stroke-linejoin="bevel" d="M17.8023 133.597C24.7319 125.96 34.1223 121.633 41.052 113.996C47.9816 106.359 52.4505 95.4133 59.3802 87.7766C52.4788 84.3825 43.2016 82.1763 36.3002 78.7822C29.3988 75.3881 24.8734 70.806 17.972 67.4119C22.9967 59.6166 29.1153 58.1353 34.14 50.34C39.1647 42.5447 43.0953 28.4353 48.12 20.64C44.56 17.2 39.02 13.64 35.46 10.2C31.9 6.76 30.32 3.44 26.76 0C28.7 3.08 29.62 7.9 31.56 10.98C33.5 14.06 38.6028 17.1537 40.5428 20.2337C34.1428 28.7737 33.22 33.58 26.82 42.12C20.42 50.66 6.4 61.18 0 69.72C6.33288 73.3941 10.4512 79.0113 16.7841 82.6854C23.1169 86.3595 31.6644 88.0905 37.9973 91.7646C33.5991 98.8216 35.0133 102.442 30.6151 109.499C26.2169 116.556 16.0062 127.049 11.608 134.106C14.2526 135.874 16.3456 138.024 18.9902 139.791C21.6348 141.559 24.8309 142.945 27.4755 144.713C25.8633 142.86 22.554 140.032 20.9418 138.179C19.3296 136.327 19.4145 135.45 17.8023 133.597" sodipodi:nodetypes="ccccccccccccccccccccc"/><path id="shape11" transform="matrix(0.512000008482959 0 0 0.512000008482959 73.3345569798017 15.5531816589048)" fill="url(#gradient3)" fill-rule="evenodd" stroke="none" stroke-width="0.72" stroke-linecap="square" stroke-linejoin="bevel" d="M36.317 0C33.7149 1.52735 32.4279 3.22441 29.8258 4.75176C27.2236 6.27911 23.3062 7.63675 20.7041 9.1641C24.6073 12.8128 27.365 17.7767 31.2683 21.4253C35.1715 25.074 40.2202 27.4075 44.1235 31.0561C36.7696 37.8726 36.5624 45.4862 29.2085 52.3027C21.8545 59.1192 7.35391 65.1387 0 71.9552C11.8511 78.8 20.8374 89.9779 32.6885 96.8227C44.5396 103.667 59.2555 106.179 71.1067 113.024C69.6924 114.636 70.0177 115.4 68.6035 117.012C67.1893 118.624 64.0356 121.085 62.6214 122.697C65.3367 120.746 68.6883 121.043 71.4036 119.091C74.1189 117.139 76.1978 112.939 78.9131 110.987C70.5127 104.624 55.7289 97.9067 47.3285 91.5427C38.928 85.1787 36.911 79.1677 28.5105 72.8037C33.9411 65.9589 41.5379 62.2675 46.9685 55.4227C52.399 48.5779 55.6634 38.5797 61.094 31.735C55.6917 27.8883 45.7074 23.3628 40.3051 19.5161C34.9028 15.6695 34.0825 12.5016 28.6803 8.65499C29.953 7.21249 31.735 6.32153 33.0077 4.87904C34.2805 3.43654 35.0442 1.4425 36.317 0" sodipodi:nodetypes="ccccccccccccccccccccc"/>
</svg>
