<?xml version="1.0" standalone="no"?>
<!DOCTYPE svg PUBLIC "-//W3C//DTD SVG 20010904//EN" "http://www.w3.org/TR/2001/REC-SVG-20010904/DTD/svg10.dtd">
<!-- Created using Krita: https://krita.org -->
<svg xmlns="http://www.w3.org/2000/svg" 
    xmlns:xlink="http://www.w3.org/1999/xlink"
    xmlns:krita="http://krita.org/namespaces/svg/krita"
    xmlns:sodipodi="http://sodipodi.sourceforge.net/DTD/sodipodi-0.dtd"
    width="122.88pt"
    height="122.88pt"
    viewBox="0 0 122.88 122.88">
<defs>
  <radialGradient id="gradient0" gradientUnits="objectBoundingBox" cx="0.506943507598242" cy="1.17693334837548" fx="0.506943507598242" fy="1.17693334837549" r="1.41421356237309" spreadMethod="pad">
   <stop stop-color="#ff0008" offset="0.3046" stop-opacity="1"/>
   <stop stop-color="#ff7778" offset="1" stop-opacity="1"/>
  </radialGradient>
  <radialGradient id="gradient1" gradientUnits="objectBoundingBox" cx="0.503524825789013" cy="1.15155053473902" fx="0.503524825789013" fy="1.15155053473902" r="1.4142135623731" spreadMethod="pad">
   <stop stop-color="#ff0008" offset="0.3046" stop-opacity="1"/>
   <stop stop-color="#ff7778" offset="1" stop-opacity="1"/>
  </radialGradient>
  <radialGradient id="gradient2" gradientUnits="objectBoundingBox" cx="0.490855560718281" cy="1.14115095043892" fx="0.490855560718281" fy="1.14115095043892" r="1.4142135623731" spreadMethod="pad">
   <stop stop-color="#ff0008" offset="0.3046" stop-opacity="1"/>
   <stop stop-color="#ff7778" offset="1" stop-opacity="1"/>
  </radialGradient>
  <radialGradient id="gradient3" gradientUnits="objectBoundingBox" cx="0.491769386441727" cy="1.13680351745778" fx="0.491769386441727" fy="1.13680351745778" r="1.4142135623731" spreadMethod="pad">
   <stop stop-color="#ff0008" offset="0.3046" stop-opacity="1"/>
   <stop stop-color="#ff7778" offset="1" stop-opacity="1"/>
  </radialGradient>
 </defs>
<path id="shape0" transform="matrix(0.50292827956119 0.0959539944719731 -0.0959539944719731 0.50292827956119 35.4552697597857 1.47201853926061)" fill="url(#gradient0)" fill-rule="evenodd" stroke="#ff9a9a" stroke-width="1" stroke-linecap="square" stroke-linejoin="bevel" d="M71.6417 91.3195L71.6747 91.2825L71.6747 91.3645L71.6417 91.3195M71.6747 91.2825L71.8107 91.1285L71.9857 91.3265L71.9877 90.9275L143.661 9.7392L111.035 21.9155L114.965 0L71.8147 61.9106L28.6957 0.0435L32.6259 21.959L0 9.7827L71.6727 90.9715L71.6747 91.2825M72.0187 91.3635L71.9857 91.3265L71.9857 91.4085L72.0187 91.3635" sodipodi:nodetypes="ccccccccccccccccccccc"/><path id="shape01" transform="matrix(-0.0959539925360984 0.502928269414591 -0.502928269414591 -0.0959539925360984 121.366728765785 35.4520752513801)" fill="url(#gradient1)" fill-rule="evenodd" stroke="#ff9a9a" stroke-width="1" stroke-linecap="square" stroke-linejoin="bevel" d="M71.6417 91.3195L71.6747 91.2825L71.6747 91.3645L71.6417 91.3195M71.6747 91.2825L71.8107 91.1285L71.9857 91.3265L71.9877 90.9275L143.661 9.7392L111.035 21.9155L114.965 0L71.8147 61.9106L28.6957 0.0435L32.6259 21.959L0 9.7827L71.6727 90.9715L71.6747 91.2825M72.0187 91.3635L71.9857 91.3265L71.9857 91.4085L72.0187 91.3635" sodipodi:nodetypes="ccccccccccccccccccccc"/><path id="shape011" transform="matrix(-0.502928259339701 -0.0959539906139039 0.0959539906139039 -0.502928259339701 87.4933977760629 121.381930358776)" fill="url(#gradient2)" fill-rule="evenodd" stroke="#ff9a9a" stroke-width="1" stroke-linecap="square" stroke-linejoin="bevel" d="M71.6417 91.3195L71.6747 91.2825L71.6747 91.3645L71.6417 91.3195M71.6747 91.2825L71.8107 91.1285L71.9857 91.3265L71.9877 90.9275L143.661 9.7392L111.035 21.9155L114.965 0L71.8147 61.9106L28.6957 0.0435L32.6259 21.959L0 9.7827L71.6727 90.9715L71.6747 91.2825M72.0187 91.3635L71.9857 91.3265L71.9857 91.4085L72.0187 91.3635" sodipodi:nodetypes="ccccccccccccccccccccc"/><path id="shape02" transform="matrix(0.0959539919645502 -0.502928266418912 0.502928266418912 0.0959539919645502 1.58845526008473 87.4483872933279)" fill="url(#gradient3)" fill-rule="evenodd" stroke="#ff9a9a" stroke-width="1" stroke-linecap="square" stroke-linejoin="bevel" d="M71.6417 91.3195L71.6747 91.2825L71.6747 91.3645L71.6417 91.3195M71.6747 91.2825L71.8107 91.1285L71.9857 91.3265L71.9877 90.9275L143.661 9.7392L111.035 21.9155L114.965 0L71.8147 61.9106L28.6957 0.0435L32.6259 21.959L0 9.7827L71.6727 90.9715L71.6747 91.2825M72.0187 91.3635L71.9857 91.3265L71.9857 91.4085L72.0187 91.3635" sodipodi:nodetypes="ccccccccccccccccccccc"/>
</svg>
