<?xml version="1.0" standalone="no"?>
<!DOCTYPE svg PUBLIC "-//W3C//DTD SVG 20010904//EN" "http://www.w3.org/TR/2001/REC-SVG-20010904/DTD/svg10.dtd">
<!-- Created using Krita: https://krita.org -->
<svg xmlns="http://www.w3.org/2000/svg" 
    xmlns:xlink="http://www.w3.org/1999/xlink"
    xmlns:krita="http://krita.org/namespaces/svg/krita"
    xmlns:sodipodi="http://sodipodi.sourceforge.net/DTD/sodipodi-0.dtd"
    width="122.88pt"
    height="122.88pt"
    viewBox="0 0 122.88 122.88">
<defs>
  <radialGradient id="gradient0" gradientUnits="objectBoundingBox" cx="0.492861754247106" cy="0.503854953226595" fx="0.492861754247106" fy="0.503854953226595" r="0.725724903604612" spreadMethod="pad">
   <stop stop-color="#867027" offset="0.4645" stop-opacity="1"/>
   <stop stop-color="#ddcc6a" offset="0.6393" stop-opacity="1"/>
  </radialGradient>
 </defs>
<circle id="shape0" transform="matrix(0.512000022888184 0 0 0.512000022888184 28.6696673639235 41.4980905762868)" r="63.96" cx="63.96" cy="63.96" fill="none" stroke="url(#gradient0)" stroke-width="16.0152" stroke-linecap="square" stroke-linejoin="bevel"/><path id="shape0" fill="#ddcc6a" fill-rule="evenodd" stroke-opacity="0" stroke="#000000" stroke-width="0" stroke-linecap="square" stroke-linejoin="bevel" d="M64.8806 74.24L64.8575 73.8388L64.7898 73.4511L64.6801 73.0796L64.5309 72.7269L64.345 72.3955L64.1248 72.0881L63.8729 71.8071L63.5919 71.5552L63.2845 71.335L63.0764 71.2182L63.124 71.0184L63.1775 70.7812L63.2297 70.5366L63.2806 70.285L63.3301 70.0264L63.3782 69.761L63.4249 69.489L63.4701 69.2104L63.5138 68.9256L63.556 68.6345L63.5967 68.3375L63.6358 68.0345L63.6732 67.7259L63.7091 67.4116L63.7432 67.092L63.7757 66.7671L63.8064 66.4371L63.8354 66.1022L63.8625 65.7624L63.8879 65.4181L63.9114 65.0692L63.933 64.716L63.9527 64.3587L63.9704 63.9973L63.9862 63.6321L64 63.2631L64.0117 62.8906L64.0214 62.5147L64.0289 62.1355L64.0344 61.7532L64.0377 61.368L64.0388 60.98L64.0377 60.592L64.0344 60.2068L64.0289 59.8245L64.0214 59.4454L64.0117 59.0695L64 58.6969L63.9862 58.328L63.9704 57.9627L63.9527 57.6013L63.933 57.244L63.9114 56.8908L63.8879 56.542L63.8625 56.1976L63.8354 55.8579L63.8064 55.5229L63.7757 55.1929L63.7432 54.868L63.7091 54.5484L63.6732 54.2342L63.6358 53.9255L63.5967 53.6226L63.556 53.3255L63.5138 53.0345L63.4701 52.7496L63.4249 52.4711L63.3782 52.199L63.3301 51.9336L63.2806 51.675L63.2297 51.4234L63.1775 51.1789L63.124 50.9416L63.0692 50.7117L63.0132 50.4894L62.9559 50.2749L62.8975 50.0682L62.8379 49.8695L62.7771 49.6791L62.7153 49.4969L62.6524 49.3233L62.5885 49.1583L62.5236 49.0021L62.4577 48.8549L62.3909 48.7168L62.3232 48.588L62.2545 48.4685L62.185 48.3587L62.1147 48.2586L62.0437 48.1683L61.9718 48.0882L61.8992 48.0181L61.8259 47.9585L61.752 47.9093L61.6774 47.8708L61.6022 47.8431L61.5264 47.8264L61.4501 47.8208L61.3738 47.8264L61.298 47.8431L61.2228 47.8708L61.1482 47.9093L61.0742 47.9585L61.001 48.0181L60.9284 48.0882L60.8565 48.1683L60.7854 48.2586L60.7151 48.3587L60.6457 48.4685L60.577 48.588L60.5093 48.7168L60.4425 48.8549L60.3766 49.0021L60.3116 49.1583L60.2477 49.3233L60.1849 49.4969L60.123 49.6791L60.0623 49.8695L60.0027 50.0682L59.9443 50.2749L59.887 50.4894L59.831 50.7117L59.7762 50.9416L59.7227 51.1789L59.6705 51.4234L59.6196 51.675L59.5701 51.9336L59.522 52.199L59.4753 52.4711L59.4301 52.7496L59.3864 53.0345L59.3442 53.3255L59.3035 53.6226L59.2644 53.9255L59.227 54.2342L59.1911 54.5484L59.157 54.868L59.1245 55.1929L59.0938 55.5229L59.0648 55.8579L59.0377 56.1976L59.0123 56.542L58.9888 56.8908L58.9672 57.244L58.9475 57.6013L58.9298 57.9627L58.914 58.328L58.9002 58.6969L58.8885 59.0695L58.8788 59.4454L58.8712 59.8245L58.8658 60.2068L58.8625 60.592L58.8614 60.98L58.8625 61.368L58.8658 61.7532L58.8712 62.1355L58.8788 62.5147L58.8885 62.8906L58.9002 63.2631L58.914 63.6321L58.9298 63.9973L58.9475 64.3587L58.9672 64.716L58.9888 65.0692L59.0123 65.4181L59.0377 65.7624L59.0648 66.1022L59.0938 66.4371L59.1245 66.7671L59.157 67.092L59.1911 67.4116L59.227 67.7259L59.2644 68.0345L59.3035 68.3375L59.3442 68.6345L59.3864 68.9256L59.4301 69.2104L59.4753 69.489L59.522 69.761L59.5701 70.0264L59.6196 70.285L59.6705 70.5366L59.7227 70.7812L59.7762 71.0184L59.8214 71.2082L59.5955 71.335L59.2881 71.5552L59.0071 71.8071L58.7552 72.0881L58.535 72.3955L58.3491 72.7269L58.1999 73.0796L58.0902 73.4511L58.0225 73.8388L57.9994 74.24L58.0225 74.6413L58.0902 75.0289L58.1999 75.4004L58.3491 75.7531L58.535 76.0845L58.7552 76.3919L59.0071 76.6729L59.2881 76.9248L59.5955 77.145L59.9269 77.3309L60.2796 77.4801L60.6511 77.5898L61.0388 77.6575L61.44 77.6806L61.8413 77.6575L62.2289 77.5898L62.3345 77.5586L62.4235 77.6946L62.6074 77.9617L62.8039 78.2341L63.0126 78.5114L63.2332 78.793L63.4655 79.0785L63.7092 79.3675L63.9639 79.6594L64.2293 79.9538L64.5052 80.2501L64.7912 80.548L65.0871 80.8468L65.3924 81.1463L65.707 81.4458L66.0304 81.7449L66.3625 82.0431L66.6791 82.3194L66.9956 82.5881L67.3115 82.8489L67.6264 83.1017L67.94 83.3462L68.2517 83.5823L68.5611 83.8097L68.8679 84.0282L69.1716 84.2377L69.4717 84.4378L69.7679 84.6285L70.0597 84.8095L70.3466 84.9806L70.6284 85.1416L70.9044 85.2923L71.1744 85.4326L71.4378 85.5621L71.6943 85.6807L71.9434 85.7882L72.1848 85.8844L72.4178 85.969L72.6423 86.042L72.8576 86.103L73.0635 86.1519L73.2594 86.1884L73.445 86.2125L73.6198 86.2238L73.7833 86.2221L73.9352 86.2073L74.0751 86.1791L74.2025 86.1374L74.3169 86.082L74.418 86.0125L74.5053 85.929L74.5817 85.8257L74.6403 85.7089L74.6814 85.5792L74.7055 85.4369L74.7127 85.2827L74.7033 85.1168L74.6778 84.94L74.6363 84.7525L74.5793 84.5549L74.5069 84.3477L74.4195 84.1313L74.3174 83.9062L74.2009 83.673L74.0704 83.432L73.926 83.1838L73.7682 82.9288L73.5972 82.6675L73.4133 82.4004L73.2169 82.128L73.0082 81.8508L72.7875 81.5691L72.5552 81.2836L72.3115 80.9946L72.0568 80.7027L71.7914 80.4084L71.5155 80.112L71.2295 79.8142L70.9337 79.5153L70.6283 79.2159L70.3138 78.9164L69.9903 78.6173L69.6582 78.3191L69.3416 78.0427L69.0251 77.774L68.7092 77.5132L68.3943 77.2604L68.0807 77.0159L67.769 76.7798L67.4596 76.5524L67.1528 76.3339L66.8491 76.1245L66.549 75.9243L66.2528 75.7336L65.9611 75.5526L65.6741 75.3815L65.3924 75.2205L65.1163 75.0698L64.8464 74.9296L64.8102 74.9118L64.8575 74.6413L64.8806 74.24" sodipodi:nodetypes="ccccccccccccccccccccccccccccccccccccccccccccccccccccccccccccccccccccccccccccccccccccccccccccccccccccccccccccccccccccccccccccccccccccccccccccccccccccccccccccccccccccccccccccccccccccccccccccccccccccccccccccccccccccccccccccccccccccccccccccccccccccccccccccccccccccccccccccccccccccccccccccccccccccccccccccccccccccccccccc"/><path id="shape1" transform="translate(0, -3.64235492967429)" fill="#ddcc6a" fill-rule="evenodd" stroke-opacity="0" stroke="#000000" stroke-width="0" stroke-linecap="square" stroke-linejoin="bevel" d="M44.1139 10.2605L78.7661 10.2605L78.853 10.2965L78.889 10.3834L78.889 26.2349L78.853 26.3218L78.7661 26.3578L69.4272 26.3578L69.4272 42.7622L69.3912 42.8491L69.3043 42.8851L53.5757 42.8851L53.4888 42.8491L53.4528 42.7622L53.4528 26.3578L44.1139 26.3578L44.027 26.3218L43.991 26.2349L43.991 10.3834L44.027 10.2965L44.1139 10.2605" sodipodi:nodetypes="ccccccccccccccccccccc"/><path id="shape011" transform="matrix(-0.363266502033228 -0.360806632508357 0.360806632508357 -0.363266502033228 100.098349894761 61.4399687696319)" fill="#ddcc6a" fill-rule="evenodd" stroke-opacity="0" stroke="#000000" stroke-width="0" stroke-linecap="square" stroke-linejoin="bevel" d="M0 0C14.5761 8.25313 27.7482 12.3078 39.5161 12.1638C51.2841 12.0198 64.5565 7.98923 79.3331 0.0719735C69.8784 12.3557 56.7063 18.4496 39.817 18.3536C22.7859 18.2917 9.51358 12.1737 0 0Z" sodipodi:nodetypes="ccccc"/><path id="shape02" transform="matrix(-0.363266493854686 -0.360806624385197 0.360806624385197 -0.363266493854686 104.283653970517 48.1775453751792)" fill="#ddcc6a" fill-rule="evenodd" stroke-opacity="0" stroke="#000000" stroke-width="0" stroke-linecap="square" stroke-linejoin="bevel" d="M0 0C9.93291 5.62411 18.9091 8.38717 26.9283 8.28904C34.9476 8.19091 43.9921 5.44427 54.0617 0.0490465C47.6188 8.41981 38.6426 12.5725 27.1334 12.5071C15.5275 12.4649 6.48304 8.29579 0 0Z" sodipodi:nodetypes="ccccc"/><path id="shape03" transform="matrix(0.360806638898659 -0.363266508467096 0.363266508467096 0.360806638898659 71.2289926294172 114.854520327979)" fill="#ddcc6a" fill-rule="evenodd" stroke-opacity="0" stroke="#000000" stroke-width="0" stroke-linecap="square" stroke-linejoin="bevel" d="M0 0C14.5761 8.25313 27.7482 12.3078 39.5161 12.1638C51.2841 12.0198 64.5565 7.98923 79.3331 0.0719735C69.8784 12.3557 56.7063 18.4496 39.817 18.3536C22.7859 18.2917 9.51358 12.1737 0 0Z" sodipodi:nodetypes="ccccc"/><path id="shape0111" transform="matrix(0.360806630775497 -0.363266500288553 0.363266500288553 0.360806630775497 84.491416258763 119.039824477861)" fill="#ddcc6a" fill-rule="evenodd" stroke-opacity="0" stroke="#000000" stroke-width="0" stroke-linecap="square" stroke-linejoin="bevel" d="M0 0C9.93291 5.62411 18.9091 8.38717 26.9283 8.28904C34.9476 8.19091 43.9921 5.44427 54.0617 0.0490465C47.6188 8.41981 38.6426 12.5725 27.1334 12.5071C15.5275 12.4649 6.48304 8.29579 0 0Z" sodipodi:nodetypes="ccccc"/><path id="shape04" transform="matrix(0.363266502033228 -0.360806632508357 -0.360806632508357 -0.363266502033228 22.7194020678342 61.4433683359468)" fill="#ddcc6a" fill-rule="evenodd" stroke-opacity="0" stroke="#000000" stroke-width="0" stroke-linecap="square" stroke-linejoin="bevel" d="M0 0C14.5761 8.25313 27.7482 12.3078 39.5161 12.1638C51.2841 12.0198 64.5565 7.98923 79.3331 0.0719735C69.8784 12.3557 56.7063 18.4496 39.817 18.3536C22.7859 18.2917 9.51358 12.1737 0 0Z" sodipodi:nodetypes="ccccc"/><path id="shape01111" transform="matrix(0.363266493854686 -0.360806624385197 -0.360806624385197 -0.363266493854686 18.5340979920783 48.1809449414942)" fill="#ddcc6a" fill-rule="evenodd" stroke-opacity="0" stroke="#000000" stroke-width="0" stroke-linecap="square" stroke-linejoin="bevel" d="M0 0C9.93291 5.62411 18.9091 8.38717 26.9283 8.28904C34.9476 8.19091 43.9921 5.44427 54.0617 0.0490465C47.6188 8.41981 38.6426 12.5725 27.1334 12.5071C15.5275 12.4649 6.48304 8.29579 0 0Z" sodipodi:nodetypes="ccccc"/><path id="shape031" transform="matrix(-0.360806638898659 -0.363266508467096 -0.363266508467096 0.360806638898659 51.5887593331786 114.857919894294)" fill="#ddcc6a" fill-rule="evenodd" stroke-opacity="0" stroke="#000000" stroke-width="0" stroke-linecap="square" stroke-linejoin="bevel" d="M0 0C14.5761 8.25313 27.7482 12.3078 39.5161 12.1638C51.2841 12.0198 64.5565 7.98923 79.3331 0.0719735C69.8784 12.3557 56.7063 18.4496 39.817 18.3536C22.7859 18.2917 9.51358 12.1737 0 0Z" sodipodi:nodetypes="ccccc"/><path id="shape012" transform="matrix(-0.360806630775497 -0.363266500288553 -0.363266500288553 0.360806630775497 38.3263357038328 119.043224044176)" fill="#ddcc6a" fill-rule="evenodd" stroke-opacity="0" stroke="#000000" stroke-width="0" stroke-linecap="square" stroke-linejoin="bevel" d="M0 0C9.93291 5.62411 18.9091 8.38717 26.9283 8.28904C34.9476 8.19091 43.9921 5.44427 54.0617 0.0490465C47.6188 8.41981 38.6426 12.5725 27.1334 12.5071C15.5275 12.4649 6.48304 8.29579 0 0Z" sodipodi:nodetypes="ccccc"/>
</svg>
