<?xml version="1.0" standalone="no"?>
<!DOCTYPE svg PUBLIC "-//W3C//DTD SVG 20010904//EN" "http://www.w3.org/TR/2001/REC-SVG-20010904/DTD/svg10.dtd">
<!-- Created using Krita: https://krita.org -->
<svg xmlns="http://www.w3.org/2000/svg" 
    xmlns:xlink="http://www.w3.org/1999/xlink"
    xmlns:krita="http://krita.org/namespaces/svg/krita"
    xmlns:sodipodi="http://sodipodi.sourceforge.net/DTD/sodipodi-0.dtd"
    width="122.88pt"
    height="122.88pt"
    viewBox="0 0 122.88 122.88">
<defs>
  <linearGradient id="gradient0" gradientUnits="objectBoundingBox" x1="0.444287988175958" y1="-0.236299578942978" x2="0.436239611642273" y2="0.773028036015297" spreadMethod="pad">
   <stop stop-color="#d165e8" offset="0" stop-opacity="1"/>
   <stop stop-color="#9f2529" offset="1" stop-opacity="1"/>
  </linearGradient>
 </defs>
<path id="shape0" transform="matrix(0.512000022888184 0 0 0.512000022888184 12.9139206160933 3.87324945314774)" fill="url(#gradient0)" fill-rule="evenodd" stroke="#ffffff" stroke-width="0.24" stroke-linecap="square" stroke-linejoin="bevel" d="M94.027 226.143L94.027 225.919L93.223 225.369L92.178 224.654L91.166 223.962L90.187 223.292L89.239 222.643L88.323 222.016L87.436 221.409L86.579 220.822L85.75 220.254L84.95 219.705L84.176 219.175L83.429 218.662L82.707 218.167L82.009 217.688L81.336 217.225L80.686 216.778L80.058 216.346L79.452 215.928L78.866 215.524L78.605 215.344L78.72 209.875L74.52 211.555L72.48 197.395L67.44 201.595L66.36 175.795L58.6256 200.485L58.3882 200.284L58.041 199.988L57.6895 199.686L57.3336 199.378L56.9734 199.064L56.6088 198.744L56.2399 198.418L55.8666 198.086L55.4889 197.749L55.107 197.405L54.7206 197.056L54.3299 196.701L53.9349 196.339L53.5355 195.972L53.1318 195.6L52.7237 195.221L52.3112 194.836L51.8944 194.445L51.4733 194.049L51.0478 193.647L50.6179 193.238L50.1837 192.824L49.7452 192.404L49.3023 191.978L48.855 191.546L48.4034 191.109L47.9475 190.665L47.4872 190.215L47.0225 189.76L46.5535 189.299L46.0802 188.831L45.6024 188.358L45.1204 187.879L44.634 187.395L44.1432 186.904L43.6481 186.407L43.1486 185.905L42.6448 185.396L42.1367 184.882L41.6241 184.362L41.1073 183.836L40.5861 183.304L40.0605 182.766L39.5306 182.222L38.9963 181.672L38.4577 181.117L37.9147 180.555L37.3674 179.988L36.8157 179.415L36.2597 178.835L35.6993 178.25L35.1346 177.659L34.5655 177.063L34.3185 176.059L34.0731 175.065L33.8293 174.078L33.5872 173.1L33.3467 172.13L33.1078 171.169L32.8705 170.216L32.6349 169.271L32.4009 168.335L32.1685 167.407L31.9377 166.488L31.7086 165.577L31.4811 164.674L31.2552 163.78L31.0309 162.894L30.8083 162.016L30.5873 161.147L30.3679 160.286L30.1501 159.434L29.934 158.59L29.7195 157.754L29.5066 156.927L29.2953 156.108L29.0857 155.297L28.8776 154.495L28.6713 153.701L28.4665 152.916L28.2633 152.139L28.0618 151.37L27.8619 150.61L27.6637 149.858L27.467 149.115L27.272 148.38L27.0786 147.653L26.8868 146.935L26.6967 146.225L26.5082 145.523L26.3213 144.83L26.136 144.145L25.9524 143.469L25.7704 142.801L25.59 142.141L25.4112 141.49L25.234 140.847L25.0585 140.212L24.8846 139.586L24.7124 138.968L24.5417 138.359L24.3727 137.758L24.2053 137.165L24.0395 136.581L23.8754 136.005L23.7128 135.438L23.5519 134.879L23.3927 134.328L23.235 133.786L23.079 133.252L22.9246 132.726L22.7718 132.209L22.6207 131.7L22.4712 131.2L22.3233 130.708L22.177 130.224L22.0282 129.739L21.8729 129.245L21.7111 128.74L21.5427 128.225L21.3677 127.7L21.1862 127.165L20.9981 126.619L20.8035 126.064L20.6023 125.498L20.3945 124.923L20.1802 124.337L19.9593 123.741L19.7319 123.135L19.4979 122.518L19.2574 121.892L19.0103 121.256L18.7566 120.609L18.4964 119.952L18.2296 119.285L17.9563 118.608L17.6764 117.921L17.39 117.224L17.097 116.517L16.7974 115.799L16.4913 115.071L16.1786 114.334L15.8594 113.586L15.5336 112.828L15.2013 112.06L14.8624 111.281L14.5169 110.493L14.1649 109.694L13.8063 108.886L13.4412 108.067L13.0695 107.238L12.6913 106.399L12.3065 105.55L11.9151 104.69L11.5172 103.821L11.1127 102.941L10.7017 102.051L10.2841 101.152L9.8599 100.242L9.4292 99.3221L8.992 98.3911L8.5482 97.4511L8.0978 96.5001L7.6408 95.5401L7.1774 94.5691L6.7073 93.5881L6.2307 92.5971L5.7475 91.5961L5.2578 90.5849L4.7616 89.5635L4.2587 88.5319L3.7493 87.4903L3.2334 86.4385L2.7109 85.3766L2.1818 84.3046L1.6462 83.2224L1.104 82.1301L0.5553 81.0277L0 79.9151L0.6434 78.8152L1.2858 77.7249L1.9273 76.6444L2.568 75.5735L3.2077 74.5122L3.8465 73.4607L4.4844 72.4188L5.1215 71.3866L5.7576 70.3641L6.3927 69.3512L7.027 68.3481L7.6604 67.3546L8.2929 66.3707L8.9244 65.3966L9.5551 64.4321L10.1849 63.4773L10.8137 62.5322L11.4416 61.5967L12.0687 60.671L12.6948 59.7549L13.32 58.8484L13.9443 57.9517L14.5677 57.0646L15.1902 56.1872L15.8118 55.3195L16.4325 54.4614L17.0522 53.6131L17.6711 52.7744L18.2891 51.9453L18.9061 51.126L19.5223 50.3163L20.1375 49.5163L20.7518 48.726L21.3653 47.9453L21.9778 47.1744L22.5894 46.4131L22.6484 46.3405L36.9705 70.33L33.24 108.115L25.56 117.835L34.32 111.115L47.52 129.115L39.72 141.715L48.72 149.995L41.76 141.625L52.02 128.695L36.36 108.715L41.76 71.9951L58.62 77.5151L57.24 90.4751L66.4993 99.6041L56.1472 125.739L67.8569 99.5191L73.0966 99.9221L67.4539 98.5651L58.5019 90.2704L60.54 76.6151L43.2496 67.6147L30.5515 37.2987L31.0567 36.7707L31.6547 36.1546L32.2518 35.5481L32.848 34.9512L33.4433 34.3641L34.0376 33.7866L34.6311 33.2188L35.2237 32.6607L35.8153 32.1122L36.4061 31.5735L36.9959 31.0444L37.5849 30.5249L38.1729 30.0152L38.76 29.5151L39.3513 29.0193L39.952 28.5223L40.562 28.0241L41.1814 27.5248L41.8101 27.0242L42.4482 26.5226L43.0956 26.0197L43.7523 25.5157L44.4184 25.0104L45.0938 24.5041L45.7785 23.9965L46.4726 23.4878L47.1761 22.9779L47.8889 22.4668L48.611 21.9545L49.3425 21.4411L50.0833 20.9265L50.8334 20.4108L51.5929 19.8938L52.3618 19.3757L53.1399 18.8564L53.9275 18.3359L54.7243 17.8143L55.5305 17.2915L56.3461 16.7675L57.171 16.2424L58.0052 15.716L58.8488 15.1885L59.7017 14.6599L60.564 14.13L61.4356 13.599L62.3165 13.0668L63.2068 12.5334L64.1064 11.9989L65.0154 11.4632L65.9337 10.9263L66.8614 10.3882L67.7984 9.84896L68.7447 9.30856L69.7004 8.76696L70.6654 8.22426L71.6398 7.68026L72.6235 7.13516L73.6165 6.58896L74.619 6.04146L75.631 5.49286L76.652 4.94306L77.682 4.39206L78.722 3.83996L79.771 3.28666L80.829 2.73216L81.897 2.17649L82.974 1.61966L84.061 1.06166L85.157 0.50248L86.148 0L76.56 46.1951L105.12 94.4351L85.68 128.755L99.422 162.141L91.616 181.317L103.325 160.444L90.597 129.218L109.095 95.9551L124.369 111.399L120.296 129.727L131.157 142.794L123.011 129.048L129.46 110.041L111.471 91.1189L91.56 46.1351L102.233 0.06213L103.172 0.53823L104.268 1.09741L105.354 1.65541L106.431 2.21224L107.499 2.76786L108.557 3.32236L109.607 3.87566L110.646 4.42786L111.677 4.97876L112.698 5.52856L113.71 6.07726L114.712 6.62466L115.705 7.17096L116.689 7.71606L117.663 8.25996L118.628 8.80266L119.584 9.34426L120.53 9.88466L121.467 10.424L122.395 10.962L123.313 11.4989L124.222 12.0346L125.122 12.5692L126.012 13.1025L126.893 13.6347L127.765 14.1657L128.627 14.6956L129.48 15.2243L130.323 15.7518L131.157 16.2781L131.982 16.8032L132.798 17.3272L133.604 17.85L134.401 18.3717L135.189 18.8921L135.967 19.4114L136.736 19.9295L137.495 20.4465L138.245 20.9622L138.986 21.4768L139.717 21.9903L139.737 22.0038L130.903 39.2739L135.994 51.1532L117.581 60.9113L137.097 53.6988L144.14 68.039L137.606 80.3426L146.431 95.6161L143.037 102.065L148.297 95.2771L140.745 80.8517L149.316 67.6995L136.38 39.7751L147.364 27.7356L147.766 28.0598L148.376 28.558L148.977 29.055L149.568 29.5508L150.156 30.0509L150.744 30.5606L151.333 31.08L151.922 31.6091L152.513 32.1479L153.105 32.6964L153.697 33.2545L154.291 33.8223L154.885 34.3998L155.48 34.9869L156.077 35.5838L156.674 36.1903L157.272 36.8064L157.871 37.4323L158.47 38.0678L159.071 38.713L159.673 39.3679L160.275 40.0324L160.879 40.7067L161.483 41.3906L162.088 42.0841L162.695 42.7874L163.302 43.5003L163.91 44.2229L164.519 44.9552L165.128 45.6971L165.739 46.4488L166.351 47.2101L166.963 47.981L167.577 48.7617L168.191 49.552L168.806 50.352L169.422 51.1617L170.039 51.981L170.657 52.8101L171.276 53.6488L171.896 54.4971L172.517 55.3552L173.138 56.2229L173.761 57.1003L174.384 57.9874L175.008 58.8841L175.634 59.7906L176.26 60.7067L176.887 61.6324L177.515 62.5679L178.144 63.513L178.773 64.4678L179.404 65.4323L180.036 66.4064L180.668 67.3903L181.301 68.3838L181.936 69.3869L182.571 70.3998L183.207 71.4223L183.844 72.4545L184.482 73.4964L185.121 74.5479L185.76 75.6091L186.401 76.68L187.043 77.7606L187.685 78.8509L188.328 79.9508L187.773 81.0633L187.224 82.1658L186.682 83.258L186.147 84.3402L185.618 85.4122L185.095 86.4741L184.579 87.5259L184.07 88.5676L183.567 89.5991L183.071 90.6205L182.581 91.6317L182.098 92.6331L181.621 93.6241L181.151 94.6051L180.688 95.5751L180.231 96.5361L179.78 97.4871L179.336 98.4271L178.899 99.3571L178.468 100.277L178.044 101.187L177.627 102.087L177.216 102.977L176.811 103.856L176.413 104.726L176.022 105.585L175.637 106.434L175.259 107.273L174.887 108.102L174.522 108.921L174.164 109.73L173.812 110.528L173.466 111.317L173.127 112.095L172.795 112.863L172.469 113.621L172.15 114.369L171.837 115.107L171.531 115.835L171.231 116.552L170.938 117.26L170.652 117.957L170.372 118.644L170.099 119.321L169.832 119.988L169.572 120.645L169.318 121.291L169.071 121.928L168.831 122.554L168.597 123.17L168.369 123.776L168.148 124.372L167.934 124.958L167.726 125.534L167.525 126.1L167.33 126.655L167.142 127.2L166.961 127.735L166.786 128.261L166.617 128.775L166.455 129.28L166.3 129.775L166.151 130.259L166.005 130.743L165.857 131.235L165.708 131.736L165.557 132.244L165.404 132.762L165.249 133.287L165.093 133.821L164.936 134.363L164.776 134.914L164.616 135.473L164.453 136.041L164.289 136.617L164.123 137.201L163.956 137.793L163.787 138.394L163.616 139.004L163.444 139.622L163.27 140.248L163.094 140.882L162.917 141.525L162.738 142.176L162.558 142.836L162.376 143.504L162.192 144.181L162.007 144.865L161.82 145.559L161.632 146.26L161.442 146.97L161.25 147.688L161.056 148.415L160.861 149.15L160.665 149.894L160.467 150.646L160.267 151.406L160.065 152.174L159.862 152.951L159.657 153.737L159.451 154.531L159.243 155.333L159.033 156.143L158.822 156.962L158.609 157.789L158.394 158.625L158.178 159.469L157.961 160.322L157.741 161.182L157.52 162.052L157.298 162.929L157.073 163.815L156.847 164.709L156.62 165.612L156.391 166.523L156.16 167.443L155.947 168.292L152.52 166.435L151.44 174.955L141.96 182.995L148.948 182.103L148.798 182.258L148.268 182.801L147.742 183.339L147.221 183.871L146.704 184.397L146.192 184.918L145.684 185.432L145.18 185.94L144.68 186.443L144.185 186.94L143.694 187.43L143.208 187.915L142.726 188.394L142.248 188.867L141.775 189.334L141.306 189.796L140.841 190.251L140.381 190.701L139.925 191.144L139.473 191.582L139.026 192.014L138.583 192.44L138.145 192.86L137.711 193.274L137.281 193.682L136.855 194.085L136.434 194.481L136.017 194.872L135.605 195.256L135.197 195.635L134.793 196.008L134.394 196.375L133.999 196.736L133.608 197.091L133.222 197.441L132.84 197.784L132.462 198.122L132.089 198.453L131.72 198.779L131.355 199.099L130.995 199.413L130.639 199.721L130.287 200.023L129.94 200.32L129.597 200.61L129.259 200.895L128.925 201.173L128.595 201.446L128.27 201.713L127.949 201.974L127.632 202.229L127.319 202.478L127.011 202.722L126.708 202.959L126.408 203.19L125.97 203.528L125.544 203.855L125.131 204.173L124.731 204.481L124.341 204.78L123.961 205.072L123.591 205.355L123.229 205.632L122.876 205.902L122.529 206.167L122.189 206.426L121.855 206.68L121.525 206.93L121.2 207.176L120.877 207.419L120.558 207.659L120.24 207.897L119.923 208.134L119.606 208.37L119.288 208.605L118.969 208.841L118.648 209.077L118.324 209.314L117.996 209.553L117.664 209.795L117.326 210.039L116.983 210.287L116.632 210.539L116.274 210.795L115.908 211.057L115.532 211.324L115.147 211.597L114.75 211.877L114.343 212.164L113.923 212.46L113.49 212.763L113.043 213.076L112.581 213.398L112.104 213.73L111.611 214.072L111.101 214.426L110.574 214.791L110.028 215.169L109.462 215.56L108.877 215.963L108.271 216.381L107.643 216.813L106.993 217.261L106.319 217.723L105.622 218.202L104.9 218.698L104.152 219.21L103.379 219.741L102.578 220.29L101.749 220.857L100.892 221.444L100.006 222.051L99.089 222.679L98.142 223.328L97.162 223.998L96.151 224.69L95.106 225.405L94.302 225.955L94.302 226.108L94.19 226.031L94.027 226.143" sodipodi:nodetypes="cccccccccccccccccccccccccccccccccccccccccccccccccccccccccccccccccccccccccccccccccccccccccccccccccccccccccccccccccccccccccccccccccccccccccccccccccccccccccccccccccccccccccccccccccccccccccccccccccccccccccccccccccccccccccccccccccccccccccccccccccccccccccccccccccccccccccccccccccccccccccccccccccccccccccccccccccccccccccccccccccccccccccccccccccccccccccccccccccccccccccccccccccccccccccccccccccccccccccccccccccccccccccccccccccccccccccccccccccccccccccccccccccccccccccccccccccccccccccccccccccccccccccccccccccccccccccccccccccccccccccccccccccccccccccccccccccccccccccccccccccccccccccccccccccccccccccccccccccccccccccccccccccccccccccccccccccccccccccccccccccccccccccccccccccccccccccccccccccccccccccccccccccccccccccccccccccccccccccccc"/>
</svg>
