<?xml version="1.0" standalone="no"?>
<!DOCTYPE svg PUBLIC "-//W3C//DTD SVG 20010904//EN" "http://www.w3.org/TR/2001/REC-SVG-20010904/DTD/svg10.dtd">
<!-- Created using Krita: https://krita.org -->
<svg xmlns="http://www.w3.org/2000/svg" 
    xmlns:xlink="http://www.w3.org/1999/xlink"
    xmlns:krita="http://krita.org/namespaces/svg/krita"
    xmlns:sodipodi="http://sodipodi.sourceforge.net/DTD/sodipodi-0.dtd"
    width="122.88pt"
    height="122.88pt"
    viewBox="0 0 122.88 122.88">
<defs>
  <linearGradient id="gradient0" gradientUnits="objectBoundingBox" x1="0" y1="0" x2="1" y2="1" spreadMethod="pad">
   <stop stop-color="#ff0016" offset="0.1878" stop-opacity="1"/>
   <stop stop-color="#ff8730" offset="1" stop-opacity="1"/>
  </linearGradient>
  <linearGradient id="gradient1" gradientUnits="objectBoundingBox" x1="0" y1="0" x2="1" y2="1" spreadMethod="pad">
   <stop stop-color="#ff0016" offset="0.1878" stop-opacity="1"/>
   <stop stop-color="#ff8730" offset="1" stop-opacity="1"/>
  </linearGradient>
  <linearGradient id="gradient2" gradientUnits="objectBoundingBox" x1="0" y1="0" x2="1" y2="1" spreadMethod="pad">
   <stop stop-color="#ff0016" offset="0.1878" stop-opacity="1"/>
   <stop stop-color="#ff8730" offset="1" stop-opacity="1"/>
  </linearGradient>
  <linearGradient id="gradient3" gradientUnits="objectBoundingBox" x1="0" y1="0" x2="1" y2="1" spreadMethod="pad">
   <stop stop-color="#ff0016" offset="0.1878" stop-opacity="1"/>
   <stop stop-color="#ff8730" offset="1" stop-opacity="1"/>
  </linearGradient>
  <linearGradient id="gradient4" gradientUnits="objectBoundingBox" x1="0" y1="0" x2="1" y2="1" spreadMethod="pad">
   <stop stop-color="#ff0016" offset="0.1878" stop-opacity="1"/>
   <stop stop-color="#ff8730" offset="1" stop-opacity="1"/>
  </linearGradient>
  <linearGradient id="gradient5" gradientUnits="objectBoundingBox" x1="0" y1="0" x2="1" y2="1" spreadMethod="pad">
   <stop stop-color="#ffe400" offset="0" stop-opacity="1"/>
   <stop stop-color="#ffe8a4" offset="1" stop-opacity="1"/>
  </linearGradient>
  <linearGradient id="gradient6" gradientUnits="objectBoundingBox" x1="0" y1="0" x2="1" y2="1" spreadMethod="pad">
   <stop stop-color="#ffe400" offset="0" stop-opacity="1"/>
   <stop stop-color="#ffe8a4" offset="1" stop-opacity="1"/>
  </linearGradient>
  <linearGradient id="gradient7" gradientUnits="objectBoundingBox" x1="0" y1="0" x2="1" y2="1" spreadMethod="pad">
   <stop stop-color="#ffe400" offset="0" stop-opacity="1"/>
   <stop stop-color="#ffe8a4" offset="1" stop-opacity="1"/>
  </linearGradient>
  <linearGradient id="gradient8" gradientUnits="objectBoundingBox" x1="0" y1="0" x2="1" y2="1" spreadMethod="pad">
   <stop stop-color="#ffe400" offset="0" stop-opacity="1"/>
   <stop stop-color="#ffe8a4" offset="1" stop-opacity="1"/>
  </linearGradient>
  <linearGradient id="gradient9" gradientUnits="objectBoundingBox" x1="0" y1="0" x2="1" y2="1" spreadMethod="pad">
   <stop stop-color="#ffe400" offset="0" stop-opacity="1"/>
   <stop stop-color="#ffe8a4" offset="1" stop-opacity="1"/>
  </linearGradient>
  <linearGradient id="gradient10" gradientUnits="objectBoundingBox" x1="0" y1="0" x2="1" y2="1" spreadMethod="pad">
   <stop stop-color="#ffe400" offset="0" stop-opacity="1"/>
   <stop stop-color="#ffe8a4" offset="1" stop-opacity="1"/>
  </linearGradient>
 </defs>
<path id="shape0" transform="matrix(0.256000011444092 0 0 0.256000011444092 26.2155776098966 11.0429571131824)" fill="url(#gradient0)" fill-rule="evenodd" stroke="#f2fc24" stroke-width="1.2" stroke-linecap="square" stroke-linejoin="bevel" d="M115.073 407.513C85.5748 404.146 62.3043 389.957 45.2609 364.948C19.696 327.433 40.8673 240.682 23.6665 245.759C12.1993 249.143 5.76335 256.927 4.35858 269.111C-3.65917 248.117 -0.61524 228.386 13.4904 209.917C27.596 191.449 43.5511 178.551 61.3559 171.224C36.743 195.261 34.1876 205.543 53.6897 202.071C82.9428 196.863 116.1 172.267 110.636 160.833C105.172 149.399 67.9391 132.714 70.9291 109.623C72.9225 94.2291 81.872 83.5242 97.7775 77.5083C83.9747 94.5062 89.6716 100.116 114.868 94.3369C140.065 88.558 146.396 79.376 133.86 66.791C166.777 66.1498 183.47 59.2627 183.938 46.1296C184.406 32.9965 173.071 17.6199 149.931 0C169.284 0.255319 187.082 9.36141 203.324 27.3183C227.688 54.2536 223.913 62.2913 226.234 69.3827C228.554 76.474 229.637 80.5301 234.096 72.8208C237.069 67.6813 237.925 57.5971 236.666 42.5681C246.199 62.8632 245.802 82.8548 235.477 102.543C225.151 122.231 213.465 131.94 200.419 131.669C206.934 128.764 211.829 124.725 215.107 119.552C220.023 111.792 213.419 104.097 204.009 108.568C197.736 111.549 193.64 116.691 191.721 123.994C182.852 121.251 177.69 123.965 176.237 132.135C174.784 140.305 176.566 149.131 181.584 158.612C168.344 153.545 162.976 156.673 165.478 167.994C169.23 184.976 170.304 190.786 181.252 201.388C188.55 208.456 193.686 212.957 196.659 214.889C186.698 211.145 183.003 215.363 185.575 227.542C189.432 245.811 197.195 264.186 210.36 254.301C219.137 247.71 221.272 232.712 216.767 209.305C231.458 236.396 229.282 270.008 210.237 310.143C181.671 370.345 172.277 377.285 157.735 391.266C143.193 405.248 143.193 405.248 115.073 407.513Z" sodipodi:nodetypes="czzczczzzczczczzzczczzczczzczzczcc"/><path id="shape1" transform="matrix(0.256000011444092 0 0 0.256000011444092 87.5452107471062 38.9932198228584)" fill="url(#gradient1)" fill-rule="evenodd" stroke="#f2fc24" stroke-width="1.2" stroke-linecap="square" stroke-linejoin="bevel" d="M0.594867 61.0958C1.64844 51.9577 4.54476 45.4704 9.28384 41.6339C16.3925 35.8792 22.9724 34.5735 31.2911 21.9584C36.8369 13.5484 39.2398 6.22893 38.4998 0C33.626 10.3995 29.4441 16.5474 25.954 18.4436C22.464 20.3398 20.1242 21.6175 18.9346 22.2767C19.8817 21.4614 21.2152 19.7998 22.9352 17.2919C24.6552 14.784 25.5714 12.0489 25.6839 9.08672C25.3353 12.2927 22.2722 15.8623 16.4945 19.7955C7.82801 25.6952 1.41171 37.1996 0.605802 46.8138C-0.200102 56.428 -0.200102 56.428 0.594867 61.0958Z" sodipodi:nodetypes="czzczczczcc"/><path id="shape2" transform="matrix(0.256000011444092 0 0 0.256000011444092 92.4592023304081 44.621660408659)" fill="url(#gradient2)" fill-rule="evenodd" stroke="#f2fc24" stroke-width="1.2" stroke-linecap="square" stroke-linejoin="bevel" d="M29.6631 249.683C35.3699 238.618 42.1983 230.476 50.1484 225.257C58.0984 220.037 64.4136 215.184 69.094 210.696C62.5964 214.76 57.8616 215.854 54.8896 213.979C50.4315 211.165 53.7118 193.46 60.8966 186.386C68.0814 179.312 84.372 168.528 88.1649 172.201C90.6935 174.65 90.4658 181.612 87.4816 193.088C96.2132 180.162 101.07 161.98 102.052 138.542C103.034 115.104 99.8155 90.8278 92.3972 65.714C90.1771 82.496 86.4879 81.7631 81.3297 63.5153C76.1714 45.2675 78.5491 41.8348 88.4628 53.2172C83.7237 39.9414 79.5419 29.6551 75.9171 22.3584C72.2924 15.0616 67.8165 7.60886 62.4894 0C64.2631 18.8679 63.1854 32.8028 59.2563 41.8048C53.3627 55.3078 44.7079 65.9698 40.7725 63.9962C38.1489 62.6804 37.4478 57.7696 38.6692 49.2636C36.6786 53.9954 35.0902 59.2912 33.904 65.151C32.1248 73.9406 28.8524 94.3957 21.4724 105.676C16.5524 113.195 11.2697 121.923 5.62428 131.857C15.8927 123.036 21.6614 119.379 22.9302 120.886C24.8335 123.147 23.2051 138.025 19.0388 148.105C14.8724 158.186 10.8554 166.991 7.38683 162.38C5.07448 159.305 3.41198 152.656 2.39934 142.432C-0.785771 154.187 -0.799719 166.201 2.3575 178.472C5.51472 190.742 9.94044 199.793 15.6347 205.622C15.3353 191.945 17.9078 185.223 23.3522 185.456C31.5189 185.805 36.9321 210.787 33.547 221.959C30.162 233.13 30.162 233.13 29.6631 249.683Z" sodipodi:nodetypes="czczzzczczczczzczzczzzczczcc"/><path id="shape3" transform="matrix(0.256000011444092 0 0 0.256000011444092 2.25213308733489 4.64474437412648)" fill="url(#gradient3)" fill-rule="evenodd" stroke="#f2fc24" stroke-width="1.2" stroke-linecap="square" stroke-linejoin="bevel" d="M94.9432 231.389C75.8182 231.243 64.2307 228.374 60.1807 222.781C54.1057 214.392 53.5885 213.892 53.9941 207.435C54.2645 203.131 57.1264 201.671 62.5799 203.054C65.7341 188.068 69.7908 179.969 74.75 178.758C79.7093 177.547 81.789 180.229 80.9893 186.805C89.7627 176.48 97.504 168.832 104.213 163.859C114.277 156.399 130.708 143.745 137.329 133.286C141.743 126.312 143.789 119.83 143.467 113.838C136.689 126.344 130.576 132.36 125.128 131.888C116.955 131.179 134.228 123.101 130.675 111.096C127.122 99.0916 109.889 94.6874 105.141 83.002C101.976 75.2118 105.435 71.4358 115.521 71.6741C95.8642 65.4338 86.1735 55.0131 86.4485 40.4122C86.7235 25.8112 93.1905 12.3405 105.85 0C76.3726 17.8751 57.8846 29.9932 50.3857 36.3543C39.1373 45.8959 29.7983 62.2478 24.1129 59.4586C20.3226 57.5992 24.1854 49.0161 35.7014 33.7094C22.9372 41.0351 13.6214 51.3458 7.75389 64.6417C1.88638 77.9375 -0.651088 89.2471 0.141476 98.5704C4.02336 86.6272 7.16796 81.6264 9.57529 83.568C13.1863 86.4803 0.106989 101.711 12.6336 115.513C20.9847 124.714 28.5064 129.826 35.1988 130.85C29.2581 120.253 30.0648 112.348 37.6189 107.135C48.9501 99.3151 60.1774 108.086 66.3287 117.469C70.4296 123.724 71.5145 131.508 69.5836 140.82C78.4578 135.397 82.3829 138.174 81.3588 149.152C80.3347 160.13 66.4693 168.633 39.7626 174.662C26.5172 181.916 19.5988 189.548 19.0072 197.558C18.1198 209.574 17.8188 220.74 41.9094 233.676C40.4522 232.619 66 246.611 94.9432 231.389Z" sodipodi:nodetypes="czzczczzczzzczczzczczzczzczczcc"/><path id="shape4" transform="matrix(0.256000011444092 0 0 0.256000011444092 6.40403912185922 79.5553146343434)" fill="url(#gradient4)" fill-rule="evenodd" stroke="#f2fc24" stroke-width="1.2" stroke-linecap="square" stroke-linejoin="bevel" d="M94.8094 142.413C83.7281 129.95 73.3701 122.675 63.7354 120.589C49.2833 117.46 34.8506 115.532 24.3279 102.979C13.8052 90.426 11.8867 75.5749 13.5986 62.5857C15.3105 49.5966 10.6523 28.5486 5.65533 31.2691C2.32399 33.0828 0.438879 35.2733 0 37.8407C0.00600696 28.2393 0.778113 21.5061 2.31632 17.6409C3.85452 13.7758 6.32053 7.89545 9.71433 0C8.26851 9.62443 10.4055 18.1512 16.1254 25.5805C21.8453 33.0097 26.5617 37.7346 30.2746 39.7554C22.3654 45.4829 24.9063 54.2433 37.8971 66.0365C50.8879 77.8296 55.9572 74.6279 53.105 56.4313C62.9433 61.2341 71.6771 67.0148 79.3065 73.7733C86.9359 80.5318 92.9719 87.7159 97.4145 95.3257C90.9563 91.7488 88.2495 92.5923 89.2941 97.8562C90.8609 105.752 95.9849 110.951 96.8511 120.058C97.7173 129.165 97.7173 129.165 94.8094 142.413Z" sodipodi:nodetypes="czzzzczczczczczcc"/><path id="shape01" transform="matrix(0.256000009098866 0 0 0.256000009098866 49.7962121880042 64.3729994623157)" fill="url(#gradient5)" fill-rule="evenodd" stroke="#f2fc24" stroke-width="1.2" stroke-linecap="square" stroke-linejoin="bevel" d="M32.7795 178.561C29.0562 172.171 24.1704 167.384 18.1223 164.2C9.05014 159.423 -2.65075 138.904 0.53514 136.477C3.72103 134.05 26.3579 159.146 29.3714 156.551C32.3848 153.957 12.0201 122.375 19.1632 91.5398C23.9253 70.9829 31.4102 54.3993 41.6178 41.7889C34.8032 61.3603 34.4412 70.5314 40.5316 69.3022C49.6673 67.4583 60.6402 52.7803 64.1692 40.8422C66.5218 32.8835 67.0777 27.6339 65.8368 25.0934C69.0017 22.8824 71.1792 18.967 72.3692 13.3472C73.5592 7.72735 74.088 3.27829 73.9554 0C81.5753 11.1592 86.1649 20.4468 87.724 27.8628C89.2832 35.2787 89.67 44.4337 88.8847 55.3277C78.8932 60.9286 71.7825 69.0437 67.5524 79.673C61.2073 95.6168 53.8702 124.538 64.9242 125.321C72.2935 125.843 81.1407 118.74 91.4659 104.013C88.0237 120.891 81.8949 134.946 73.0795 146.176C59.8564 163.021 51.0732 170.97 45.5226 174.114C39.972 177.258 39.972 177.258 32.7795 178.561Z" sodipodi:nodetypes="czzzzczzczczczzczcc"/><path id="shape11" transform="matrix(0.256000009098866 0 0 0.256000009098866 37.6963206481223 59.2808573442324)" fill="url(#gradient6)" fill-rule="evenodd" stroke="#f2fc24" stroke-width="1.2" stroke-linecap="square" stroke-linejoin="bevel" d="M64.3417 199.987C47.7843 195.292 36.7504 185.787 31.2402 171.474C22.9747 150.004 21.3483 147.373 20.9227 131.425C20.4972 115.477 28.6624 116.619 35.9171 124.48C40.7535 129.721 44.2361 135.209 46.3648 140.946C43.3227 127.643 43.0982 117.18 45.6916 109.557C49.5816 98.123 53.8709 90.4164 57.6594 83.2271C60.185 78.4342 61.3228 75.3043 61.073 73.8373C55.9928 81.6132 51.6164 83.8898 47.9438 80.6673C42.435 75.8336 77.874 33.5482 82.6606 25.1903C85.8516 19.6184 88.0772 11.2217 89.3374 0C82.1047 11.1894 71.8412 20.3419 58.5469 27.4574C38.6054 38.1307 9.4193 59.7299 1.46494 103.477C-6.48941 147.225 20.0465 182.612 30.684 189.739C41.3214 196.867 41.3214 196.867 64.3417 199.987Z" sodipodi:nodetypes="czzzczzczzczzcc"/><path id="shape21" transform="matrix(0.256000009098866 0 0 0.256000009098866 58.463275961369 32.8389497852093)" fill="url(#gradient7)" fill-rule="evenodd" stroke="#f2fc24" stroke-width="1.2" stroke-linecap="square" stroke-linejoin="bevel" d="M15.1789 65.9722C13.6467 60.2361 15.7198 54.8021 21.3982 49.6704C29.9159 41.9728 30.7481 41.4794 34.0422 37.346C36.2383 34.5904 37.4274 31.4109 37.6097 27.8075C35.1103 31.6081 32.1156 34.4565 28.6256 36.3527C25.1355 38.249 21.4218 38.6686 17.4843 37.6116C23.7535 34.3906 28.3907 29.1956 31.3962 22.0265C34.4016 14.8573 35.724 7.51518 35.3634 0C34.2688 6.5784 29.8062 12.6908 21.9758 18.3371C10.2301 26.8066 -1.27753 35.1522 0.114779 47.1314C0.408639 50.4871 1.50709 59.1106 15.1789 65.9722Z" sodipodi:nodetypes="czzczczczcc"/><path id="shape31" transform="matrix(0.256000009098866 0 0 0.256000009098866 102.793697143038 59.63276130452)" fill="url(#gradient8)" fill-rule="evenodd" stroke="#f2fc24" stroke-width="1.2" stroke-linecap="square" stroke-linejoin="bevel" d="M3.97977 112.92C17.8412 109.416 27.2364 102.589 32.1655 92.4396C37.0945 82.29 40.2247 69.3405 41.5562 53.5911C27.7153 72.4831 21.4594 77.5056 22.7884 68.6584C24.782 55.3877 31.7499 55.9548 32.6302 36.7615C33.217 23.966 31.7757 11.7121 28.3065 0C26.9351 13.2607 23.1315 26.5605 16.8958 39.8993C10.6602 53.238 7.32849 53.6309 6.90083 41.078C3.05949 48.4944 0.862958 56.1674 0.311244 64.0969C-0.240471 72.0263 -0.0587033 79.8309 0.856546 87.5105C4.25327 73.5384 6.58439 70.7288 7.84989 79.0817C9.74815 91.6111 9.74815 91.6111 3.97977 112.92Z" sodipodi:nodetypes="czczzczczccc"/><path id="shape41" transform="matrix(0.256000009098866 0 0 0.256000009098866 16.2934666588097 99.5020440356797)" fill="url(#gradient9)" fill-rule="evenodd" stroke="#f2fc24" stroke-width="1.2" stroke-linecap="square" stroke-linejoin="bevel" d="M48.4256 41.1086C39.8975 28.2037 33.0545 20.5925 27.8967 18.2749C20.1599 14.7986 14.7491 14.1653 10.0177 11.0007C6.86349 8.89106 3.52424 5.22415 0 0C2.75214 11.9574 6.76251 20.0541 12.0311 24.2902C19.9341 30.6442 27.2647 31.2467 34.9956 34.3631C42.7266 37.4795 42.7266 37.4795 48.4256 41.1086Z" sodipodi:nodetypes="czzczcc"/><path id="shape5" transform="matrix(0.256000009098866 0 0 0.256000009098866 19.6620530185719 20.2579948483888)" fill="url(#gradient10)" fill-rule="evenodd" stroke="#f2fc24" stroke-width="1.2" stroke-linecap="square" stroke-linejoin="bevel" d="M32.9401 79.1598C39.0845 67.1803 40.3152 55.7323 36.6324 44.8156C32.9496 33.899 29.7072 25.7475 26.9051 20.3612C28.0569 35.7313 25.1683 39.0591 18.2394 30.3444C11.3106 21.6297 7.01827 11.5149 5.36259 0C0.23273 11.7369 -1.21671 20.1334 1.01428 25.1894C4.36075 32.7735 20.6631 43.8837 24.975 58.7506C27.8496 68.6618 27.4089 79.984 23.6529 92.7173C23.6529 92.7173 26.7486 88.1981 32.9401 79.1598Z" sodipodi:nodetypes="czczczzcc"/>
</svg>
