<?xml version="1.0" standalone="no"?>
<!DOCTYPE svg PUBLIC "-//W3C//DTD SVG 20010904//EN" "http://www.w3.org/TR/2001/REC-SVG-20010904/DTD/svg10.dtd">
<!-- Created using Krita: https://krita.org -->
<svg xmlns="http://www.w3.org/2000/svg" 
    xmlns:xlink="http://www.w3.org/1999/xlink"
    xmlns:krita="http://krita.org/namespaces/svg/krita"
    xmlns:sodipodi="http://sodipodi.sourceforge.net/DTD/sodipodi-0.dtd"
    width="122.88pt"
    height="122.88pt"
    viewBox="0 0 122.88 122.88">
<defs>
  <linearGradient id="gradient0" gradientUnits="objectBoundingBox" x1="0" y1="0" x2="1" y2="1" spreadMethod="pad">
   <stop stop-color="#96f06e" offset="0" stop-opacity="1"/>
   <stop stop-color="#5d8ca6" offset="1" stop-opacity="1"/>
  </linearGradient>
  <linearGradient id="gradient1" gradientUnits="objectBoundingBox" x1="0" y1="0" x2="1" y2="1" spreadMethod="pad">
   <stop stop-color="#96f06e" offset="0" stop-opacity="1"/>
   <stop stop-color="#5d8ca6" offset="1" stop-opacity="1"/>
  </linearGradient>
  <linearGradient id="gradient2" gradientUnits="objectBoundingBox" x1="0" y1="0" x2="1" y2="1" spreadMethod="pad">
   <stop stop-color="#96f06e" offset="0" stop-opacity="1"/>
   <stop stop-color="#5d8ca6" offset="1" stop-opacity="1"/>
  </linearGradient>
  <linearGradient id="gradient3" gradientUnits="objectBoundingBox" x1="0" y1="0" x2="1" y2="1" spreadMethod="pad">
   <stop stop-color="#96f06e" offset="0" stop-opacity="1"/>
   <stop stop-color="#5d8ca6" offset="1" stop-opacity="1"/>
  </linearGradient>
 </defs>
<path id="shape0" transform="matrix(0.512000022888184 0 0 0.512000022888184 6.6347289900694 10.988476671911)" fill="url(#gradient0)" fill-rule="evenodd" stroke="#ffffff" stroke-width="0.72" stroke-linecap="square" stroke-linejoin="bevel" d="M77.0416 197.658L107.193 202.21C117.171 195.064 126.448 189.351 135.025 185.07C143.602 180.789 154.067 177.168 166.42 174.209L182.642 142.938C183.763 125.941 185.088 114.416 186.615 108.363C188.143 102.31 193.403 93.1761 202.396 80.9611C202.15 74.8396 198.587 69.3789 191.707 64.5789C184.827 59.7789 179.113 58.1384 174.566 59.6574C166.24 67.3101 159.904 76.0783 155.559 85.9618C151.214 95.8453 148.682 102.917 147.962 107.178C148.534 100.993 149.257 95.3914 150.129 90.3741C151.001 85.3569 152.132 81.3971 153.523 78.4947C144.295 60.817 137.882 48.0581 134.282 40.2181C128.882 28.4581 124.802 15.2581 118.802 13.2181C112.802 11.1781 93.7216 17.7781 95.5216 25.6981C96.7216 30.9781 103.362 49.4981 115.442 81.2581C101.189 59.2263 92.7826 45.6904 90.2226 40.6504C86.3826 33.0904 78.9197 22.3825 71.0458 6.70927C63.172 -8.96396 29.3201 5.58422 38.0416 22.0981C46.3611 37.851 48.475 39.8019 54.4147 51.0024C58.3745 58.4695 65.7284 74.0258 76.4764 97.6715C65.0657 86.6298 57.1741 77.9987 52.8016 71.7781C46.2427 62.4473 38.6416 53.2981 33.2416 45.2581C28.7934 38.6353 4.02634 52.2843 10.3216 63.1381C17.2816 75.1381 20.3039 78.1553 28.4497 90.0347C33.8803 97.9543 40.4988 107.628 48.3053 119.054C42.7616 115.887 37.3876 112.266 32.1833 108.193C24.3768 102.084 21.9142 98.5256 15.9745 94.4527C10.0348 90.3797 -5.06902 102.259 1.7192 112.781C6.24468 119.795 17.757 130.655 36.2562 145.359C44.7547 151.614 58.3499 169.047 77.0416 197.658Z" sodipodi:nodetypes="cczcczczczczczzzczzszczsszczzzcc"/><path id="shape01" transform="matrix(0.49993093204442 0.110512863519593 -0.110512863519593 0.49993093204442 92.4450654224173 11.2053140827121)" fill="url(#gradient1)" fill-rule="evenodd" stroke="#ffffff" stroke-width="0.72" stroke-linecap="square" stroke-linejoin="bevel" d="M0 60.0758C4.71212 47.5819 10.9295 38.1823 18.6521 31.877C26.3748 25.5716 35.3409 21.3681 45.5505 19.2663L53.7967 0C38.0896 6.88916 26.2439 14.5957 18.2595 23.1195C14.7254 26.9728 2.94507 39.4083 0 60.0758Z" sodipodi:nodetypes="czcccc"/><path id="shape01" transform="matrix(0.508898565842961 -0.0562697074935245 0.0562697074935245 0.508898565842961 78.8553625741614 8.42348276688331)" fill="url(#gradient2)" fill-rule="evenodd" stroke="#ffffff" stroke-width="0.72" stroke-linecap="square" stroke-linejoin="bevel" d="M0 51.9261C4.07289 41.1271 9.44683 33.0026 16.1218 27.5526C22.7969 22.1026 30.5466 18.4694 39.3712 16.6527L46.4988 0C32.9225 5.95459 22.6837 12.6157 15.7825 19.9832C12.7278 23.3137 2.54555 34.0623 0 51.9261Z" sodipodi:nodetypes="czcccc"/><path id="shape011" transform="matrix(0.453475547378159 -0.237705581616387 0.237705581616387 0.453475547378159 68.2031436482299 10.3236477156017)" fill="url(#gradient3)" fill-rule="evenodd" stroke="#ffffff" stroke-width="0.72" stroke-linecap="square" stroke-linejoin="bevel" d="M0 41.8032C3.27889 33.1095 7.60519 26.5688 12.9789 22.1813C18.3527 17.7937 24.5916 14.8688 31.6959 13.4063L37.434 0C26.5043 4.79376 18.2616 10.1563 12.7057 16.0875C10.2465 18.7687 2.0493 27.4219 0 41.8032Z" sodipodi:nodetypes="czcccc"/>
</svg>
