<?xml version="1.0" standalone="no"?>
<!DOCTYPE svg PUBLIC "-//W3C//DTD SVG 20010904//EN" "http://www.w3.org/TR/2001/REC-SVG-20010904/DTD/svg10.dtd">
<!-- Created using Krita: https://krita.org -->
<svg xmlns="http://www.w3.org/2000/svg" 
    xmlns:xlink="http://www.w3.org/1999/xlink"
    xmlns:krita="http://krita.org/namespaces/svg/krita"
    xmlns:sodipodi="http://sodipodi.sourceforge.net/DTD/sodipodi-0.dtd"
    width="122.88pt"
    height="122.88pt"
    viewBox="0 0 122.88 122.88">
<defs>
  <linearGradient id="gradient0" gradientUnits="objectBoundingBox" x1="0" y1="0" x2="1" y2="1" spreadMethod="pad">
   <stop stop-color="#00a6ff" offset="0" stop-opacity="1"/>
   <stop stop-color="#a4d2ff" offset="1" stop-opacity="1"/>
  </linearGradient>
  <linearGradient id="gradient1" gradientUnits="objectBoundingBox" x1="0" y1="0" x2="1" y2="1" spreadMethod="pad">
   <stop stop-color="#00a6ff" offset="0" stop-opacity="1"/>
   <stop stop-color="#a4d2ff" offset="1" stop-opacity="1"/>
  </linearGradient>
  <linearGradient id="gradient2" gradientUnits="objectBoundingBox" x1="0" y1="0" x2="1" y2="1" spreadMethod="pad">
   <stop stop-color="#00a6ff" offset="0" stop-opacity="1"/>
   <stop stop-color="#a4d2ff" offset="1" stop-opacity="1"/>
  </linearGradient>
  <linearGradient id="gradient3" gradientUnits="objectBoundingBox" x1="0" y1="0" x2="1" y2="1" spreadMethod="pad">
   <stop stop-color="#00a6ff" offset="0" stop-opacity="1"/>
   <stop stop-color="#a4d2ff" offset="1" stop-opacity="1"/>
  </linearGradient>
  <linearGradient id="gradient4" gradientUnits="objectBoundingBox" x1="0" y1="0" x2="1" y2="1" spreadMethod="pad">
   <stop stop-color="#00a6ff" offset="0" stop-opacity="1"/>
   <stop stop-color="#a4d2ff" offset="1" stop-opacity="1"/>
  </linearGradient>
 </defs>
<path id="shape0" transform="matrix(0.512000022888184 0 0 0.512000022888184 25.4348793519688 24.0689337767019)" fill="url(#gradient0)" fill-rule="evenodd" stroke="#ffffff" stroke-width="1" stroke-linecap="square" stroke-linejoin="bevel" d="M0 74.7573L7.66939 50.2784L16.061 44.3731L43.1522 39.4726L55.0192 16.1193L100.043 0L102.424 0.301261L130.296 13.1778L137.144 40.7253L151.534 54.8963L146.327 81.9833L124.467 103.337L103.966 134.629L82.3318 140.137L13.0764 109.804L8.72101 100.153L11.3116 85.8293L0 74.7573" sodipodi:nodetypes="cccccccccccccccccc"/><path id="shape1" transform="matrix(0.512000022888184 0 0 0.512000022888184 4.96612977823635 83.2267988361702)" fill="url(#gradient1)" fill-rule="evenodd" stroke="#ffffff" stroke-width="1" stroke-linecap="square" stroke-linejoin="bevel" d="M56.5628 18.4482L42.2083 6.43687L28.342 9.89971L17.0218 0L0 16.2351L4.64856 36.6832L34.8846 58.641L59.3288 56.2087L80.507 44.7075L78.2864 33.4617L64.5068 19.881L56.5628 18.4482" sodipodi:nodetypes="cccccccccccc"/><path id="shape2" transform="matrix(0.512000022888184 0 0 0.512000022888184 89.0760812084902 84.310085055336)" fill="url(#gradient2)" fill-rule="evenodd" stroke="#ffffff" stroke-width="1" stroke-linecap="square" stroke-linejoin="bevel" d="M4.73389 32.2344L25.1585 35.8105L43.8437 26.1758L35.6164 0L17.1454 1.82384L6.91349 19.9791L0 22.8056L0.434633 28.7391L4.73389 32.2344" sodipodi:nodetypes="ccccccccc"/><path id="shape3" transform="matrix(0.512000022888184 0 0 0.512000022888184 101.681184665835 37.5450493851868)" fill="url(#gradient3)" fill-rule="evenodd" stroke="#ffffff" stroke-width="1" stroke-linecap="square" stroke-linejoin="bevel" d="M13.4395 0L0 3.35554L2.56338 15.0256L17.599 21.2341L26.3096 14.0507L25.6291 3.36875L13.4395 0" sodipodi:nodetypes="ccccccc"/><path id="shape4" transform="matrix(0.512000022888184 0 0 0.512000022888184 18.0359344440646 25.5036663594078)" fill="url(#gradient4)" fill-rule="evenodd" stroke="#ffffff" stroke-width="1" stroke-linecap="square" stroke-linejoin="bevel" d="M2.724 16.6217L37.4506 28.2851L44.8001 15.6074L38.4075 8.58134L7.29461 0L0 10.8098L2.724 16.6217" sodipodi:nodetypes="ccccccc"/><path id="shape01" transform="matrix(0.512000009847388 0 0 0.512000009847388 40.2297376241585 45.52998361508)" fill="#276abc" fill-rule="evenodd" stroke="#276abc" stroke-width="0.4824" stroke-linecap="square" stroke-linejoin="bevel" d="M45.6508 77.0464L22.5708 55.4937L0 49.8935L1.69706 31.2258L21.3829 17.31L36.4867 17.9888L41.5779 0L77.2161 1.35765L82.9861 18.1585L105.387 19.007L96.9019 41.9173L71.4461 49.2146L66.864 71.9552L45.6508 77.0464" sodipodi:nodetypes="cccccccccccccc"/><path id="shape11" transform="matrix(0.512000009847388 0 0 0.512000009847388 11.9808005114626 92.958722468795)" fill="#276abc" fill-rule="evenodd" stroke="#276abc" stroke-width="0.4824" stroke-linecap="square" stroke-linejoin="bevel" d="M0 10.56L9.36 0L29.28 1.2L49.44 11.76L54.36 23.76L37.44 33.36L20.4 30.36L0 10.56" sodipodi:nodetypes="cccccccc"/><path id="shape21" transform="matrix(0.512000009847388 0 0 0.512000009847388 96.0126568019227 89.7566283047342)" fill="#276abc" fill-rule="evenodd" stroke="#276abc" stroke-width="0.4824" stroke-linecap="square" stroke-linejoin="bevel" d="M20.195 6.61852L14.2553 0L0 14.2553L9.84293 17.8191L20.195 6.61852" sodipodi:nodetypes="ccccc"/><path id="shape31" transform="matrix(0.512000009847388 0 0 0.512000009847388 105.185289028766 40.8883234345904)" fill="#276abc" fill-rule="evenodd" stroke="#276abc" stroke-width="0.4824" stroke-linecap="square" stroke-linejoin="bevel" d="M3.18 0L0 4.38L9.24 8.82L15.72 4.26L3.18 0" sodipodi:nodetypes="ccccc"/><path id="shape41" transform="matrix(0.512000009847388 0 0 0.512000009847388 21.6576013265341 28.7539215045799)" fill="#276abc" fill-rule="evenodd" stroke="#276abc" stroke-width="0.4824" stroke-linecap="square" stroke-linejoin="bevel" d="M3.18 0L0 7.5L27 16.02L30.9 8.64L23.94 3.54L14.58 5.04L3.18 0" sodipodi:nodetypes="ccccccc"/><path id="shape02" transform="matrix(0.512000010008052 0 0 0.512000010008052 29.5350008188506 44.3249891622529)" opacity="0.5" fill="#ffffff" fill-rule="evenodd" stroke="#ffffff" stroke-width="0.4824" stroke-linecap="square" stroke-linejoin="bevel" d="M2.13163e-14 10.9278L28.0158 21.2757L54.3202 12.3661L34.9979 0L8.02734 5.09768L0 10.7813" sodipodi:nodetypes="cccccc"/><path id="shape12" transform="matrix(0.512000010008052 0 0 0.512000010008052 54.0672022196961 24.1050000280147)" opacity="0.5" fill="#ffffff" fill-rule="evenodd" stroke="#ffffff" stroke-width="0.4824" stroke-linecap="square" stroke-linejoin="bevel" d="M0 16.1599L27.72 36.6799L74.107 13.1543L44.693 0L9.91252 12.3335L0 16.1599" sodipodi:nodetypes="cccccc"/><path id="shape22" transform="matrix(0.512000010008052 0 0 0.512000010008052 49.7006693005792 57.7813749871222)" opacity="0.5" fill="#ffffff" fill-rule="evenodd" stroke="#ffffff" stroke-width="0.4824" stroke-linecap="square" stroke-linejoin="bevel" d="M37.1655 0L31.735 14.7644L0 20.3647L20.5344 36.9958L59.397 31.2258L73.4825 10.5217L54.1361 13.0673L37.1655 0" sodipodi:nodetypes="cccccccc"/><path id="shape32" transform="matrix(0.512000010008052 0 0 0.512000010008052 30.1200012351018 68.0700027912809)" opacity="0.5" fill="#ffffff" fill-rule="evenodd" stroke="#ffffff" stroke-width="0.4824" stroke-linecap="square" stroke-linejoin="bevel" d="M0.738553 14.4402L40.6194 19.1071L2.31445 0L0.0585938 14.3262L0 14.5313L0.738553 14.4402" sodipodi:nodetypes="cccccc"/><path id="shape42" transform="matrix(0.512000010008052 0 0 0.512000010008052 44.1446432193002 63.8054471141868)" fill="none" stroke="#ffffff" stroke-width="0.4824" stroke-linecap="square" stroke-linejoin="bevel" d="M11.52 8.82L0 5.82L7.92 0" sodipodi:nodetypes="ccc"/><path id="shape5" transform="matrix(0.512000010008052 0 0 0.512000010008052 43.9659758801245 55.1312508720458)" fill="none" stroke="#ffffff" stroke-width="0.4824" stroke-linecap="square" stroke-linejoin="bevel" d="M0 0L11.2006 9.92778" sodipodi:nodetypes="cc"/><path id="shape6" transform="matrix(0.512000010008052 0 0 0.512000010008052 57.4338143414273 50.6998975718754)" fill="none" stroke="#ffffff" stroke-width="0.4824" stroke-linecap="square" stroke-linejoin="bevel" d="M0 0L11.2006 2.29103L13.1522 8.23072L17.2251 10.6915" sodipodi:nodetypes="cccc"/><path id="shape7" transform="matrix(0.512000010008052 0 0 0.512000010008052 67.2957476663169 56.869036479956)" fill="none" stroke="#ffffff" stroke-width="0.4824" stroke-linecap="square" stroke-linejoin="bevel" d="M2.96985 1.95161L0 0" sodipodi:nodetypes="cc"/><path id="shape8" transform="matrix(0.512000010008052 0 0 0.512000010008052 67.5129721090003 42.9233077659207)" fill="none" stroke="#ffffff" stroke-width="0.4824" stroke-linecap="square" stroke-linejoin="bevel" d="M1.27279 0L6.02455 9.92778L0 12.3037L9.1641 21.1284" sodipodi:nodetypes="cccc"/><path id="shape9" transform="matrix(0.512000010008052 0 0 0.512000010008052 87.1499513825274 54.0451368179609)" fill="none" stroke="#ffffff" stroke-width="0.4824" stroke-linecap="square" stroke-linejoin="bevel" d="M0 17.7342L17.3948 15.0189L28.256 0" sodipodi:nodetypes="ccc"/><path id="shape10" transform="matrix(0.512000010008052 0 0 0.512000010008052 50.6998978733511 77.8093572950083)" fill="none" stroke="#ffffff" stroke-width="0.4824" stroke-linecap="square" stroke-linejoin="bevel" d="M0 0L11.54 12.8128L21.9769 13.4067" sodipodi:nodetypes="ccc"/><path id="shape11" transform="matrix(0.512000010008052 0 0 0.512000010008052 57.9551531817056 76.8535751585785)" fill="none" stroke="#ffffff" stroke-width="0.4824" stroke-linecap="square" stroke-linejoin="bevel" d="M3.98808 0L0 9.33381" sodipodi:nodetypes="cc"/><path id="shape12" transform="matrix(0.512000010008052 0 0 0.512000010008052 25.3747220924109 55.32672323586)" fill="none" stroke="#ffffff" stroke-width="0.4824" stroke-linecap="square" stroke-linejoin="bevel" d="M36.54 0L24.6 21.54L0 13.8" sodipodi:nodetypes="ccc"/><path id="shape13" transform="matrix(0.512000010008052 0 0 0.512000010008052 5.23966133452457 83.4103172767232)" opacity="0.5" fill="#ffffff" fill-rule="evenodd" stroke="#ffffff" stroke-width="0.4824" stroke-linecap="square" stroke-linejoin="bevel" d="M16.5728 0L39.9143 20.7107L25.2347 18.3348L30.7501 25.8019L0 15.827L16.5728 0.041432" sodipodi:nodetypes="cccccc"/><path id="shape14" transform="matrix(0.512000010008052 0 0 0.512000010008052 19.4197542102033 101.877683944158)" opacity="0.49" fill="#ffffff" fill-rule="evenodd" stroke="#ffffff" stroke-width="0.4824" stroke-linecap="square" stroke-linejoin="bevel" d="M0 3.0547L20.1101 3.47897L26.8135 0L26.7286 7.46705L0 3.0547" sodipodi:nodetypes="ccccc"/><path id="shape15" transform="matrix(0.512000010008052 0 0 0.512000010008052 30.5850267650629 93.1453112456096)" opacity="0.49" fill="#ffffff" fill-rule="evenodd" stroke="#ffffff" stroke-width="0.4824" stroke-linecap="square" stroke-linejoin="bevel" d="M5.60029 0L0 5.60029L14.7644 14.425L5.60029 0" sodipodi:nodetypes="cccc"/><path id="shape16" transform="matrix(0.512000010008052 0 0 0.512000010008052 18.2221412990908 25.5619095057094)" opacity="0.5" fill="#ffffff" fill-rule="evenodd" stroke="#ffffff" stroke-width="0.4824" stroke-linecap="square" stroke-linejoin="bevel" d="M0.0828641 10.4409L25.5499 17.8744L16.5499 10.6144L20.9299 11.2144L16.8499 6.8344L19.6099 7.0744L13.2583 1.69871L7.04345 0L0 10.5237" sodipodi:nodetypes="ccccccccc"/><path id="shape17" transform="matrix(0.512000010008052 0 0 0.512000010008052 101.971867809392 37.6004026819529)" opacity="0.5" fill="#ffffff" fill-rule="evenodd" stroke="#ffffff" stroke-width="0.4824" stroke-linecap="square" stroke-linejoin="bevel" d="M0.041432 3.02454L13.5197 7.46888L13.4349 1.65646L18.4412 3.09896L12.9268 0L0 3.02454" sodipodi:nodetypes="cccccc"/><path id="shape18" transform="matrix(0.512000010008052 0 0 0.512000010008052 92.5593622368576 85.2134382339537)" opacity="0.5" fill="#ffffff" fill-rule="evenodd" stroke="#ffffff" stroke-width="0.4824" stroke-linecap="square" stroke-linejoin="bevel" d="M0 18.1275L9.66 21.3675L13.5 12.5475L22.68 10.3875L22.98 4.92751L10.4289 0L2.92965 13.5068L0 18.1275" sodipodi:nodetypes="cccccccc"/><path id="shape19" transform="matrix(0.512000010008052 0 0 0.512000010008052 98.0250001633915 84.4050001406892)" opacity="0.5" fill="#ffffff" fill-rule="evenodd" stroke="#ffffff" stroke-width="0.4824" stroke-linecap="square" stroke-linejoin="bevel" d="M11.8945 6.5625L0 1.64062L18.0469 0L17.8344 4.93697L12.041 6.62109" sodipodi:nodetypes="ccccc"/>
</svg>
