<?xml version="1.0" standalone="no"?>
<!DOCTYPE svg PUBLIC "-//W3C//DTD SVG 20010904//EN" "http://www.w3.org/TR/2001/REC-SVG-20010904/DTD/svg10.dtd">
<!-- Created using Krita: https://krita.org -->
<svg xmlns="http://www.w3.org/2000/svg" 
    xmlns:xlink="http://www.w3.org/1999/xlink"
    xmlns:krita="http://krita.org/namespaces/svg/krita"
    xmlns:sodipodi="http://sodipodi.sourceforge.net/DTD/sodipodi-0.dtd"
    width="122.88pt"
    height="122.88pt"
    viewBox="0 0 122.88 122.88">
<defs>
  <radialGradient id="gradient0" gradientUnits="objectBoundingBox" cx="0.500043650617964" cy="0.49721337815363" fx="0.500043650617964" fy="0.49721337815363" r="1.4142135623731" spreadMethod="pad">
   <stop stop-color="#da25dc" offset="0.0761" stop-opacity="1"/>
   <stop stop-color="#fe96ff" offset="0.3604" stop-opacity="1"/>
   <stop stop-color="#ffffff" offset="0.4721" stop-opacity="1"/>
  </radialGradient>
  <radialGradient id="gradient1" gradientUnits="objectBoundingBox" cx="0.479789982961778" cy="0.522699085944093" fx="0.479789982961776" fy="0.522699085944093" r="1.4142135623731" spreadMethod="pad">
   <stop stop-color="#da25dc" offset="0" stop-opacity="1"/>
   <stop stop-color="#fe96ff" offset="0.2741" stop-opacity="1"/>
   <stop stop-color="#ffffff" offset="0.4467" stop-opacity="1"/>
  </radialGradient>
  <radialGradient id="gradient2" gradientUnits="objectBoundingBox" cx="0.506781968740014" cy="0.496492613774867" fx="0.506781968740014" fy="0.496492613774867" r="1.4142135623731" spreadMethod="pad">
   <stop stop-color="#da25dc" offset="0" stop-opacity="1"/>
   <stop stop-color="#fe96ff" offset="0.2741" stop-opacity="1"/>
   <stop stop-color="#ffffff" offset="0.4467" stop-opacity="1"/>
  </radialGradient>
  <radialGradient id="gradient3" gradientUnits="objectBoundingBox" cx="0.499109898813663" cy="0.506896048300539" fx="0.499109898813663" fy="0.506896048300539" r="1.4142135623731" spreadMethod="pad">
   <stop stop-color="#da25dc" offset="0" stop-opacity="1"/>
   <stop stop-color="#fe96ff" offset="0.2741" stop-opacity="1"/>
   <stop stop-color="#ffffff" offset="0.4467" stop-opacity="1"/>
  </radialGradient>
  <radialGradient id="gradient4" gradientUnits="objectBoundingBox" cx="0.503041663082215" cy="0.502903732126254" fx="0.503041663082216" fy="0.502903732126254" r="1.4142135623731" spreadMethod="pad">
   <stop stop-color="#da25dc" offset="0" stop-opacity="1"/>
   <stop stop-color="#fe96ff" offset="0.2741" stop-opacity="1"/>
   <stop stop-color="#ffffff" offset="0.4467" stop-opacity="1"/>
  </radialGradient>
  <radialGradient id="gradient5" gradientUnits="objectBoundingBox" cx="0.499567369301833" cy="0.504905722320443" fx="0.499567369301833" fy="0.504905722320443" r="1.4142135623731" spreadMethod="pad">
   <stop stop-color="#da25dc" offset="0" stop-opacity="1"/>
   <stop stop-color="#fe96ff" offset="0.2741" stop-opacity="1"/>
   <stop stop-color="#ffffff" offset="0.4467" stop-opacity="1"/>
  </radialGradient>
  <radialGradient id="gradient6" gradientUnits="objectBoundingBox" cx="0.497731614955302" cy="0.497698625497157" fx="0.497731614955302" fy="0.497698625497157" r="1.4142135623731" spreadMethod="pad">
   <stop stop-color="#da25dc" offset="0" stop-opacity="1"/>
   <stop stop-color="#fe96ff" offset="0.2741" stop-opacity="1"/>
   <stop stop-color="#ffffff" offset="0.4467" stop-opacity="1"/>
  </radialGradient>
  <radialGradient id="gradient7" gradientUnits="objectBoundingBox" cx="0.488014600318122" cy="0.530594133711052" fx="0.488014600318122" fy="0.530594133711048" r="1.4142135623731" spreadMethod="pad">
   <stop stop-color="#da25dc" offset="0" stop-opacity="1"/>
   <stop stop-color="#fe96ff" offset="0.2741" stop-opacity="1"/>
   <stop stop-color="#ffffff" offset="0.4467" stop-opacity="1"/>
  </radialGradient>
 </defs>
<path id="shape0" transform="matrix(0.512000022888184 0 0 0.512000022888184 21.8061833748124 31.876001474447)" fill="url(#gradient0)" fill-rule="evenodd" stroke="#ffffff" stroke-width="1.2" stroke-linecap="square" stroke-linejoin="bevel" d="M77.5648 38.3171L77.6038 38.1671L77.9258 36.9871L78.2558 35.8261L78.5938 34.6831L78.9388 33.5591L79.2928 32.4541L79.6538 31.3671L80.0228 30.2981L80.3988 29.2491L80.7838 28.2171L81.1758 27.2051L81.5768 26.2111L81.9848 25.2351L82.3998 24.2781L82.8238 23.3401L83.2558 22.4201L83.6948 21.5191L84.1418 20.6361L84.5968 19.7721L85.0598 18.9271L85.5298 18.1001L86.0088 17.2911L86.4948 16.5021L86.9888 15.7301L87.4908 14.9781L87.9998 14.2441L88.5178 13.5281L89.0428 12.8311L89.5758 12.1531L90.1168 11.4931L90.6658 10.8521L91.2218 10.2291L91.7858 9.6251L92.3588 9.0391L92.9388 8.4731L93.5258 7.9241L94.1218 7.3941L94.7248 6.8831L95.3368 6.3901L95.9558 5.9161L96.5828 5.4611L97.2168 5.0241L97.8598 4.6051L98.5098 4.2061L99.1678 3.8241L99.8338 3.4621L100.508 3.1176L101.19 2.7921L101.879 2.4851L102.576 2.1967L103.281 1.9269L103.994 1.6756L104.715 1.4429L105.443 1.2288L106.179 1.0332L106.924 0.8563L107.676 0.6978L108.435 0.558L109.203 0.4367L109.978 0.334L110.761 0.2499L111.552 0.1843L112.351 0.1373L113.555 0.0953L114.759 0.0823L115.961 0.0987L117.16 0.1445L118.357 0.2199L119.549 0.325L120.737 0.46L121.919 0.6249L123.094 0.8201L124.261 1.0455L125.42 1.3015L126.57 1.588L127.71 1.9052L128.839 2.2534L129.956 2.6326L131.06 3.043L132.151 3.4851L133.228 3.9581L134.289 4.4631L135.334 4.9991L136.361 5.5681L137.371 6.1681L138.363 6.8011L139.335 7.4661L140.286 8.1641L141.216 8.8941L142.123 9.6581L143.008 10.4541L143.869 11.2831L144.705 12.1451L145.515 13.0411L146.299 13.9701L147.056 14.9331L147.784 15.9301L148.483 16.9611L149.152 18.0261L149.79 19.1251L150.397 20.2591L150.971 21.4271L151.512 22.6301L152.018 23.8681L152.49 25.1411L152.925 26.4481L153.324 27.7921L153.684 29.1701L154.006 30.5841L154.289 32.0341L154.531 33.5201L154.732 35.0421L154.892 36.6001L155.008 38.1941L155.08 39.8251L155.108 41.4931L155.09 43.1971L155.026 44.9381L154.915 46.7161L154.756 48.5321L154.547 50.3841L154.289 52.2741L153.98 54.2021L153.62 56.1681L153.207 58.1711L152.741 60.2131L152.399 61.5831L152.029 62.9451L151.631 64.3001L151.206 65.6471L150.754 66.9871L150.274 68.3191L149.766 69.6431L149.231 70.9601L148.668 72.2691L148.078 73.5711L147.46 74.8641L146.815 76.1511L146.142 77.4291L145.442 78.7001L144.714 79.9641L143.958 81.2201L143.175 82.4681L142.365 83.7091L141.527 84.9421L140.661 86.1671L139.768 87.3851L138.847 88.5951L137.899 89.7971L136.924 90.9921L135.92 92.1801L134.889 93.3601L133.831 94.5321L132.745 95.6961L131.632 96.8531L130.491 98.0021L129.322 99.1441L128.126 100.278L126.903 101.405L125.652 102.523L124.373 103.635L123.067 104.738L121.733 105.834L120.372 106.923L118.983 108.003L117.567 109.077L116.123 110.142L114.652 111.2L113.153 112.25L111.626 113.293L110.072 114.328L108.491 115.356L106.882 116.376L105.245 117.388L103.581 118.393L101.889 119.39L100.17 120.379L98.4228 121.361L96.6488 122.335L94.8468 123.302L93.0178 124.261L91.1608 125.212L89.2768 126.156L87.3648 127.092L85.4248 128.021L83.4578 128.942L81.4638 129.855L79.4418 130.761L77.7158 131.517L77.7158 131.554L77.7158 131.577L77.6478 131.547L77.3918 131.659L77.3918 131.435L75.6668 130.679L73.6448 129.773L71.6498 128.86L69.6828 127.939L67.7438 127.01L65.8318 126.074L63.9468 125.13L62.0898 124.179L60.2608 123.22L58.4588 122.253L56.6846 121.279L54.9379 120.297L53.2187 119.307L51.527 118.31L49.8629 117.306L48.2263 116.293L46.6172 115.274L45.0357 114.246L43.4817 113.211L41.9552 112.168L40.4563 111.118L38.9849 110.06L37.5411 108.994L36.1248 107.921L34.736 106.84L33.3748 105.752L32.0411 104.656L30.7349 103.552L29.4563 102.441L28.2052 101.322L26.9816 100.196L25.7856 99.0621L24.6171 97.9201L23.4762 96.7711L22.3628 95.6141L21.2769 94.4491L20.2186 93.2771L19.1877 92.0971L18.1845 90.9101L17.2087 89.7151L16.2606 88.5131L15.3399 87.3021L14.4468 86.0851L13.5812 84.8591L12.7431 83.6261L11.9326 82.3861L11.1496 81.1371L10.3942 79.8821L9.6663 78.6181L8.9659 77.3471L8.2931 76.0681L7.6478 74.7821L7.03 73.4881L6.4398 72.1871L5.8771 70.8781L5.3419 69.5611L4.8343 68.2371L4.3542 66.9051L3.9017 65.5651L3.4766 64.2181L3.0792 62.8631L2.7092 61.5011L2.3668 60.1311L1.9008 58.0891L1.488 56.0861L1.1277 54.1201L0.8189 52.1921L0.5607 50.3021L0.3524 48.4491L0.193 46.6341L0.0817 44.8561L0.0177 43.1151L0 41.4101L0.0278 39.7431L0.1002 38.1121L0.2164 36.5181L0.3755 34.9601L0.5767 33.4381L0.819 31.9521L1.1017 30.5021L1.4238 29.0881L1.7845 27.7091L2.183 26.3661L2.6183 25.0581L3.0896 23.7851L3.596 22.5481L4.1367 21.3451L4.7108 20.1771L5.3175 19.0431L5.9559 17.9441L6.6251 16.8791L7.3242 15.8481L8.0525 14.8511L8.8089 13.8881L9.5928 12.9591L10.4031 12.0631L11.2391 11.2011L12.0999 10.3711L12.9846 9.5751L13.8923 8.8121L14.8222 8.0821L15.7735 7.3841L16.7452 6.7191L17.7365 6.0861L18.7466 5.4851L19.7745 4.9171L20.8194 4.3801L21.8805 3.8761L22.9569 3.4024L24.0477 2.9607L25.152 2.5503L26.269 2.1711L27.3979 1.8229L28.5377 1.5057L29.6877 1.2191L30.8468 0.9632L32.0144 0.7378L33.1894 0.5426L34.3712 0.3776L35.5587 0.2427L36.7511 0.1376L37.9476 0.0622L39.1472 0.0164L40.3492 0L41.5527 0.0129L42.7568 0.055L43.5556 0.102L44.3467 0.1676L45.1298 0.2517L45.9052 0.3544L46.6728 0.4757L47.4325 0.6155L48.1845 0.7739L48.9286 0.9509L49.6649 1.1465L50.3933 1.3606L51.114 1.5933L51.8269 1.8446L52.5319 2.1144L53.2291 2.4028L53.9185 2.7098L54.6001 3.0353L55.2739 3.3795L55.9398 3.7421L56.598 4.1231L57.2483 4.5231L57.8908 4.9421L58.5258 5.3781L59.1528 5.8341L59.7718 6.3081L60.3828 6.8011L60.9858 7.3121L61.5818 7.8421L62.1698 8.3901L62.7498 8.9571L63.3218 9.5431L63.8858 10.1471L64.4428 10.7691L64.9908 11.4111L65.5318 12.0711L66.0648 12.7491L66.5908 13.4461L67.1078 14.1611L67.6178 14.8951L68.1188 15.6481L68.6128 16.4191L69.0998 17.2091L69.5778 18.0171L70.0488 18.8441L70.5108 19.6901L70.9658 20.5541L71.4128 21.4371L71.8528 22.3381L72.2838 23.2581L72.7078 24.1961L73.1238 25.1531L73.5318 26.1281L73.9318 27.1221L74.3238 28.1351L74.7088 29.1661L75.0858 30.2161L75.4538 31.2841L75.8158 32.3711L76.1688 33.4771L76.5138 34.6011L76.8518 35.7431L77.1818 36.9051L77.5038 38.0841L77.5648 38.3171" sodipodi:nodetypes="cccccccccccccccccccccccccccccccccccccccccccccccccccccccccccccccccccccccccccccccccccccccccccccccccccccccccccccccccccccccccccccccccccccccccccccccccccccccccccccccccccccccccccccccccccccccccccccccccccccccccccccccccccccccccccccccccccccccccccccccccccccccccccccccccccccccccccccccccccccccccccccccccccccccccccccccccccccccccccccccccccccccccccccccccccccccccccccccccccccccccccccccccccccccccccccccc"/><path id="shape01" transform="matrix(0.449956909986973 0.244300656345146 -0.244300656345146 0.449956909986973 97.2390474159233 81.244166144571)" fill="url(#gradient1)" fill-rule="evenodd" stroke="#ffffff" stroke-width="1.2" stroke-linecap="square" stroke-linejoin="bevel" d="M18.6865 9.48998L18.6959 9.45283L18.7735 9.16058L18.853 8.87303L18.9344 8.58994L19.0175 8.31156L19.1028 8.03789L19.1898 7.76867L19.2787 7.50391L19.3692 7.24411L19.462 6.98851L19.5564 6.73787L19.653 6.49169L19.7513 6.24996L19.8513 6.01294L19.9535 5.78063L20.0575 5.55277L20.1633 5.32962L20.271 5.11093L20.3806 4.89695L20.4921 4.68766L20.6054 4.48284L20.7208 4.28248L20.8379 4.08707L20.9569 3.89587L21.0778 3.70962L21.2004 3.52783L21.3252 3.3505L21.4517 3.17787L21.5801 3.00995L21.7105 2.84649L21.8427 2.68773L21.9767 2.53344L22.1125 2.38384L22.2506 2.23871L22.3903 2.09853L22.5317 1.96256L22.6753 1.83129L22.8206 1.70473L22.968 1.58263L23.1172 1.46524L23.2682 1.35255L23.4209 1.24432L23.5759 1.14054L23.7325 1.04172L23.891 0.947113L24.0514 0.857456L24.2138 0.772134L24.3781 0.691518L24.5441 0.615483L24.712 0.544056L24.8819 0.477234L25.0536 0.414995L25.2273 0.357362L25.4027 0.304336L25.58 0.255892L25.7595 0.212079L25.9407 0.172824L26.1235 0.1382L26.3086 0.108157L26.4953 0.0827216L26.6839 0.0618926L26.8745 0.0456455L27.0669 0.034005L27.357 0.0236029L27.6471 0.0203832L27.9367 0.024445L28.2255 0.0357882L28.5139 0.0544625L28.8011 0.0804926L29.0873 0.113928L29.372 0.154769L29.6551 0.203114L29.9362 0.258938L30.2155 0.322342L30.4925 0.393299L30.7672 0.47186L31.0391 0.558098L31.3083 0.652015L31.5742 0.753658L31.8371 0.863153L32.0965 0.980301L32.3521 1.10537L32.6039 1.23812L32.8513 1.37905L33.0946 1.52765L33.3336 1.68442L33.5678 1.84912L33.7969 2.022L34.021 2.2028L34.2395 2.39202L34.4527 2.58916L34.6601 2.79448L34.8615 3.00797L35.0566 3.22988L35.2455 3.45997L35.4279 3.69847L35.6033 3.9454L35.7717 4.20075L35.9328 4.46451L36.0866 4.7367L36.2328 5.01756L36.3711 5.30684L36.5014 5.60478L36.6233 5.9114L36.737 6.22668L36.8418 6.55039L36.9379 6.88325L37.0247 7.22454L37.1022 7.57475L37.1704 7.93387L37.2287 8.30191L37.2772 8.67886L37.3157 9.06473L37.3436 9.45951L37.361 9.86346L37.3677 10.2766L37.3634 10.6986L37.348 11.1298L37.3212 11.5702L37.2829 12.0199L37.2326 12.4786L37.1704 12.9467L37.096 13.4242L37.0093 13.9111L36.9098 14.4072L36.7975 14.9129L36.7151 15.2523L36.626 15.5896L36.5301 15.9252L36.4277 16.2588L36.3188 16.5907L36.2032 16.9206L36.0808 17.2485L35.9519 17.5746L35.8162 17.8988L35.6741 18.2213L35.5252 18.5416L35.3698 18.8603L35.2077 19.1768L35.0391 19.4916L34.8637 19.8047L34.6815 20.1157L34.4929 20.4248L34.2978 20.7322L34.0959 21.0376L33.8872 21.341L33.6721 21.6426L33.4502 21.9423L33.2218 22.24L32.9869 22.536L32.7451 22.8302L32.4967 23.1224L32.2418 23.4127L31.9802 23.701L31.712 23.9876L31.4371 24.2721L31.1555 24.555L30.8674 24.8358L30.5727 25.1149L30.2714 25.3918L29.9632 25.6672L29.6486 25.9404L29.3272 26.2119L28.9993 26.4816L28.6647 26.7491L28.3236 27.0151L27.9757 27.2788L27.6213 27.5409L27.2602 27.8009L26.8923 28.0592L26.5179 28.3156L26.137 28.5702L25.7494 28.8228L25.355 29.0734L24.9541 29.3224L24.5465 29.5693L24.1324 29.8142L23.7115 30.0574L23.2841 30.2987L22.85 30.5382L22.4093 30.7757L21.962 31.0112L21.5081 31.245L21.0475 31.4768L20.5801 31.7069L20.1062 31.935L19.6258 32.1611L19.1387 32.3855L18.7229 32.5728L18.7229 32.5819L18.7229 32.5876L18.7065 32.5802L18.6448 32.6079L18.6448 32.5525L18.2292 32.3652L17.7421 32.1408L17.2615 31.9147L16.7876 31.6866L16.3205 31.4565L15.8598 31.2247L15.4057 30.9909L14.9583 30.7554L14.5177 30.5179L14.0836 30.2784L13.6561 30.0371L13.2353 29.7939L12.8212 29.5487L12.4136 29.3018L12.0127 29.0531L11.6184 28.8022L11.2308 28.5499L10.8498 28.2953L10.4754 28.0389L10.1076 27.7806L9.74651 27.5206L9.39203 27.2585L9.0442 26.9945L8.70299 26.7288L8.36841 26.461L8.04048 26.1916L7.71917 25.9201L7.40449 25.6467L7.09645 25.3715L6.79504 25.0944L6.50026 24.8155L6.21213 24.5347L5.93062 24.2518L5.65576 23.9672L5.38753 23.6807L5.12592 23.3922L4.87096 23.1019L4.6226 22.8096L4.38091 22.5157L4.14583 22.2197L3.91742 21.922L3.69561 21.6221L3.48045 21.3207L3.27191 21.017L3.07 20.7116L2.87474 20.4045L2.6861 20.0952L2.50411 19.7844L2.32875 19.4713L2.16002 19.1565L1.99793 18.8397L1.84247 18.5212L1.69363 18.2008L1.55144 17.8785L1.41588 17.5543L1.28694 17.2282L1.16465 16.9002L1.04899 16.5704L0.939977 16.2385L0.837564 15.9049L0.741824 15.5693L0.652686 15.2319L0.570197 14.8926L0.45793 14.3869L0.358481 13.8908L0.271679 13.4039L0.197285 12.9264L0.135081 12.4583L0.0848983 11.9994L0.0464965 11.5498L0.0196827 11.1095L0.00426419 10.6783L0 10.256L0.00669743 9.84315L0.0241396 9.4392L0.0521339 9.04442L0.0904634 8.65855L0.138935 8.2816L0.197309 7.91356L0.265416 7.55444L0.343014 7.20423L0.429912 6.8627L0.525917 6.53008L0.630787 6.20613L0.74433 5.89084L0.866329 5.58448L0.996591 5.28653L1.1349 4.99725L1.28106 4.71639L1.43486 4.44421L1.59608 4.18044L1.76451 3.92509L1.93996 3.67816L2.12219 3.43966L2.31105 3.20957L2.50626 2.98766L2.70766 2.77417L2.91504 2.5686L3.12818 2.37146L3.34686 2.18249L3.57088 2.00169L3.80007 1.82882L4.03416 1.66412L4.27298 1.50734L4.51633 1.35849L4.76397 1.21782L5.0157 1.08482L5.27133 0.959992L5.53065 0.842671L5.79344 0.733275L6.05948 0.631631L6.32859 0.537715L6.60055 0.451477L6.87515 0.372916L7.1522 0.301934L7.43144 0.238555L7.71274 0.182731L7.99581 0.134385L8.28052 0.09352L8.56661 0.0601094L8.85388 0.0340793L9.14213 0.015405L9.43113 0.00406178L9.72071 0L10.0107 0.00319494L10.3007 0.0136218L10.4932 0.0252623L10.6838 0.0415094L10.8724 0.0623384L11.0592 0.0877741L11.2442 0.117816L11.4272 0.152441L11.6084 0.191671L11.7876 0.235509L11.965 0.283953L12.1405 0.336979L12.3141 0.394612L12.4859 0.456851L12.6557 0.523672L12.8237 0.5951L12.9898 0.671135L13.154 0.751751L13.3163 0.836999L13.4767 0.926804L13.6353 1.02117L13.792 1.12023L13.9467 1.22401L14.0997 1.33199L14.2508 1.44493L14.3999 1.56232L14.5471 1.68442L14.6924 1.81098L14.836 1.94225L14.9776 2.07797L15.1173 2.2184L15.2551 2.36353L15.391 2.51313L15.5252 2.66718L15.6572 2.82618L15.7876 2.98964L15.916 3.15756L16.0427 3.33019L16.1672 3.50727L16.2901 3.68906L16.4108 3.87556L16.5298 4.06651L16.6472 4.26217L16.7623 4.46229L16.8758 4.66711L16.9871 4.87664L17.0967 5.09062L17.2044 5.30932L17.3104 5.53247L17.4142 5.76032L17.5164 5.99264L17.6166 6.22965L17.7149 6.47113L17.8113 6.71732L17.9057 6.96821L17.9984 7.22355L18.0893 7.48361L18.1779 7.74812L18.2651 8.01733L18.3502 8.29126L18.4333 8.56964L18.5147 8.85247L18.5942 9.14027L18.6718 9.43227L18.6865 9.48998" sodipodi:nodetypes="cccccccccccccccccccccccccccccccccccccccccccccccccccccccccccccccccccccccccccccccccccccccccccccccccccccccccccccccccccccccccccccccccccccccccccccccccccccccccccccccccccccccccccccccccccccccccccccccccccccccccccccccccccccccccccccccccccccccccccccccccccccccccccccccccccccccccccccccccccccccccccccccccccccccccccccccccccccccccccccccccccccccccccccccccccccccccccccccccccccccccccccccccccccccccccccccc"/><path id="shape011" transform="matrix(0.445876758925426 -0.251670281191038 0.251670281191038 0.445876758925426 14.6164029232458 99.7197273239234)" fill="url(#gradient2)" fill-rule="evenodd" stroke="#ffffff" stroke-width="1.2" stroke-linecap="square" stroke-linejoin="bevel" d="M25.6078 11.8993L25.6207 11.8527L25.727 11.4863L25.836 11.1257L25.9475 10.7707L26.0614 10.4217L26.1783 10.0785L26.2975 9.74097L26.4193 9.409L26.5433 9.08324L26.6705 8.76275L26.7999 8.44848L26.9323 8.1398L27.067 7.8367L27.204 7.5395L27.3441 7.24821L27.4866 6.9625L27.6316 6.6827L27.7792 6.40849L27.9294 6.14018L28.0822 5.87776L28.2374 5.62094L28.3956 5.36971L28.556 5.12469L28.7191 4.88495L28.8848 4.65142L29.0528 4.42347L29.2238 4.20112L29.3972 3.98467L29.5731 3.77411L29.7518 3.56915L29.933 3.37009L30.1166 3.17663L30.3027 2.98905L30.492 2.80707L30.6834 2.6313L30.8772 2.46081L31.074 2.29622L31.2731 2.13753L31.4751 1.98443L31.6796 1.83723L31.8865 1.69593L32.0958 1.56023L32.3082 1.4301L32.5228 1.30619L32.74 1.18757L32.9598 1.07515L33.1823 0.968163L33.4075 0.86708L33.635 0.771741L33.8651 0.682181L34.0979 0.598394L34.3332 0.520354L34.5712 0.448089L34.8116 0.381601L35.0546 0.320858L35.3005 0.265921L35.5489 0.2167L35.7994 0.173286L36.053 0.135616L36.3089 0.103723L36.5673 0.0776058L36.8285 0.0572339L37.0922 0.0426382L37.4897 0.0295952L37.8873 0.0255581L38.2842 0.0306511L38.6799 0.0448741L39.0752 0.0682894L39.4687 0.100928L39.8609 0.142852L40.2511 0.194062L40.639 0.25468L41.0243 0.324677L41.407 0.404178L41.7866 0.493149L42.163 0.591655L42.5357 0.699788L42.9046 0.817548L43.269 0.944996L43.6292 1.08229L43.9847 1.22918L44.335 1.386L44.68 1.55245L45.0191 1.72916L45.3525 1.91549L45.68 2.11206L46.001 2.31857L46.3149 2.53534L46.622 2.76205L46.9215 2.9993L47.2136 3.24649L47.4978 3.50394L47.7738 3.77163L48.0412 4.04988L48.3001 4.33838L48.55 4.63743L48.7904 4.94706L49.0212 5.26723L49.2419 5.59796L49.4527 5.93925L49.6531 6.29141L49.8426 6.65414L50.0211 7.02772L50.1882 7.41218L50.344 7.80751L50.4876 8.2134L50.6193 8.63076L50.7383 9.0587L50.8445 9.49782L50.9379 9.94812L51.0178 10.4096L51.0843 10.8822L51.137 11.3661L51.1753 11.8611L51.1991 12.3676L51.2083 12.8856L51.2024 13.4148L51.1813 13.9554L51.1446 14.5076L51.0921 15.0715L51.0232 15.6467L50.9379 16.2336L50.836 16.8323L50.7172 17.4428L50.5808 18.0649L50.4269 18.699L50.314 19.1245L50.1919 19.5475L50.0605 19.9683L49.9201 20.3866L49.7709 20.8027L49.6125 21.2164L49.4448 21.6275L49.2681 22.0364L49.0821 22.4429L48.8874 22.8473L48.6834 23.2489L48.4704 23.6485L48.2483 24.0454L48.0172 24.4401L47.7768 24.8327L47.5272 25.2227L47.2687 25.6102L47.0013 25.9957L46.7247 26.3786L46.4387 26.759L46.1439 27.1372L45.8398 27.513L45.5268 27.8863L45.2049 28.2574L44.8735 28.6263L44.5331 28.9927L44.1838 29.3567L43.8253 29.7182L43.4578 30.0776L43.0811 30.4343L42.6952 30.789L42.3004 31.1411L41.8965 31.4911L41.4836 31.8383L41.0613 32.1836L40.6301 32.5261L40.1897 32.8666L39.7403 33.2047L39.2818 33.5401L38.8144 33.8737L38.3376 34.2043L37.8519 34.533L37.3571 34.859L36.8529 35.1828L36.3399 35.5043L35.8179 35.8236L35.2867 36.1403L34.7462 36.4545L34.1968 36.7667L33.6383 37.0763L33.0708 37.3834L32.494 37.6884L31.9083 37.9909L31.3134 38.2912L30.7095 38.589L30.0965 38.8843L29.4745 39.1775L28.8433 39.4681L28.2028 39.7566L27.5533 40.0426L26.895 40.3261L26.2275 40.6075L25.6577 40.8424L25.6577 40.8538L25.6577 40.8609L25.6352 40.8516L25.5506 40.8864L25.5506 40.8169L24.9811 40.5821L24.3136 40.3007L23.655 40.0172L23.0056 39.7312L22.3654 39.4427L21.7341 39.152L21.1118 38.8588L20.4987 38.5636L19.8949 38.2658L19.3 37.9655L18.7142 37.6629L18.1375 37.358L17.57 37.0505L17.0115 36.7409L16.4621 36.4291L15.9217 36.1145L15.3906 35.7981L14.8685 35.4789L14.3554 35.1574L13.8513 34.8335L13.3565 34.5075L12.8707 34.1789L12.3941 33.8478L11.9265 33.5147L11.468 33.1789L11.0186 32.8411L10.5783 32.5007L10.147 32.1579L9.7249 31.8128L9.31185 31.4653L8.90789 31.1156L8.51304 30.7636L8.12726 30.4088L7.75059 30.052L7.38301 29.6927L7.02451 29.331L6.67511 28.967L6.33476 28.6005L6.00355 28.232L5.6814 27.8608L5.36839 27.4875L5.06443 27.1115L4.76957 26.7336L4.48379 26.3528L4.2071 25.9698L3.93951 25.5848L3.681 25.197L3.43161 24.8072L3.19129 24.4147L2.96007 24.0199L2.73794 23.6227L2.5249 23.2233L2.32093 22.8216L2.12608 22.4175L1.94031 22.011L1.76361 21.6021L1.59602 21.1908L1.43752 20.7773L1.28813 20.3611L1.14779 19.9428L1.01659 19.522L0.894434 19.099L0.781392 18.6735L0.627542 18.0394L0.491259 17.4174L0.372306 16.8069L0.270357 16.2081L0.185114 15.6212L0.116344 15.0458L0.0637183 14.4821L0.026973 13.93L0.0058436 13.3893L0 12.8598L0.00917809 12.3421L0.0330807 11.8356L0.0714438 11.3406L0.12397 10.8568L0.190395 10.3841L0.27039 9.92265L0.363723 9.47236L0.470063 9.03323L0.589147 8.605L0.720711 8.18793L0.864424 7.78174L1.02002 7.3864L1.18721 7.00226L1.36572 6.62867L1.55526 6.26595L1.75555 5.91378L1.96632 5.5725L2.18725 5.24177L2.41807 4.92159L2.6585 4.61197L2.90823 4.31292L3.16704 4.02441L3.43455 3.74616L3.71055 3.47847L3.99474 3.22071L4.28683 2.97352L4.5865 2.73658L4.8935 2.50988L5.20758 2.29312L5.52837 2.08661L5.85565 1.89002L6.18913 1.70338L6.52849 1.527L6.87346 1.36023L7.22378 1.20371L7.57914 1.05661L7.93927 0.919438L8.30385 0.791989L8.67263 0.67423L9.04532 0.566098L9.42163 0.467592L9.8013 0.378589L10.184 0.299119L10.5695 0.229123L10.9574 0.168503L11.3475 0.117263L11.7396 0.0753699L12.1333 0.0427313L12.5283 0.019316L12.9243 0.00509298L13.3212 0L13.7186 0.00400607L14.116 0.0170801L14.3798 0.0316759L14.641 0.0520478L14.8994 0.0781648L15.1554 0.110058L15.4089 0.147727L15.6597 0.191143L15.908 0.240332L16.1536 0.2953L16.3967 0.356043L16.6372 0.422531L16.8751 0.494796L17.1105 0.572836L17.3432 0.656621L17.5735 0.746184L17.8011 0.841522L18.0261 0.942605L18.2485 1.0495L18.4683 1.1621L18.6857 1.28042L18.9004 1.40463L19.1124 1.53476L19.3221 1.67015L19.5291 1.81177L19.7335 1.95896L19.9352 2.11206L20.1343 2.27075L20.3311 2.43535L20.5251 2.60552L20.7166 2.78161L20.9054 2.96358L21.0917 3.15116L21.2756 3.34432L21.4565 3.54369L21.6352 3.74865L21.8111 3.9592L21.9847 4.17566L22.1554 4.39769L22.3238 4.62564L22.4892 4.85948L22.6523 5.09891L22.8131 5.34425L22.9709 5.59517L23.1264 5.85199L23.2789 6.11472L23.4291 6.38302L23.5767 6.65725L23.722 6.93705L23.8642 7.22275L24.0043 7.51405L24.1416 7.81123L24.2763 8.11402L24.4084 8.42271L24.5378 8.73729L24.6648 9.05746L24.7894 9.38354L24.9108 9.71521L25.0303 10.0528L25.1469 10.3962L25.2608 10.7453L25.3724 11.0999L25.4813 11.4608L25.5876 11.8269L25.6078 11.8993" sodipodi:nodetypes="cccccccccccccccccccccccccccccccccccccccccccccccccccccccccccccccccccccccccccccccccccccccccccccccccccccccccccccccccccccccccccccccccccccccccccccccccccccccccccccccccccccccccccccccccccccccccccccccccccccccccccccccccccccccccccccccccccccccccccccccccccccccccccccccccccccccccccccccccccccccccccccccccccccccccccccccccccccccccccccccccccccccccccccccccccccccccccccccccccccccccccccccccccccccccccccccc"/><path id="shape02" transform="matrix(0.501313744716737 0.104060289941458 -0.104060289941458 0.501313744716737 87.3955943708005 7.95256526675585)" fill="url(#gradient3)" fill-rule="evenodd" stroke="#ffffff" stroke-width="1.2" stroke-linecap="square" stroke-linejoin="bevel" d="M32.8149 17.0877L32.8314 17.0208L32.9676 16.4946L33.1073 15.9768L33.2502 15.4671L33.3961 14.9658L33.5459 14.4731L33.6987 13.9883L33.8548 13.5116L34.0137 13.0438L34.1767 12.5836L34.3425 12.1322L34.5121 11.689L34.6847 11.2537L34.8603 10.8269L35.0398 10.4086L35.2224 9.99835L35.4082 9.59654L35.5974 9.20277L35.7898 8.81748L35.9856 8.44063L36.1846 8.07183L36.3872 7.71106L36.5929 7.3592L36.8019 7.01493L37.0142 6.67956L37.2295 6.35223L37.4486 6.03293L37.6708 5.72209L37.8962 5.41973L38.1252 5.12541L38.3574 4.83954L38.5927 4.56173L38.8312 4.29236L39.0737 4.03103L39.319 3.77863L39.5673 3.5338L39.8195 3.29743L40.0747 3.06955L40.3335 2.84969L40.5955 2.63832L40.8607 2.43541L41.1288 2.24053L41.401 2.05366L41.676 1.87573L41.9544 1.70538L42.236 1.54394L42.5212 1.39031L42.8097 1.24515L43.1012 1.10824L43.3961 0.97963L43.6944 0.85931L43.996 0.747242L44.301 0.643468L44.609 0.547989L44.9204 0.460761L45.2356 0.381871L45.5538 0.311188L45.8748 0.248844L46.1998 0.194748L46.5277 0.148949L46.8589 0.111444L47.1936 0.0821895L47.5315 0.0612296L48.0409 0.0424995L48.5503 0.0367021L49.0589 0.0440158L49.5661 0.0644404L50.0725 0.0980655L50.5768 0.144935L51.0794 0.205139L51.5794 0.278678L52.0765 0.365728L52.5702 0.466245L53.0606 0.580411L53.5471 0.708176L54.0295 0.849634L54.5069 1.00491L54.9797 1.17402L55.4466 1.35704L55.9083 1.5542L56.3638 1.76514L56.8127 1.99034L57.2548 2.22937L57.6893 2.48313L58.1166 2.7507L58.5363 3.03298L58.9475 3.32954L59.3498 3.64082L59.7434 3.96637L60.1271 4.30708L60.5015 4.66206L60.8657 5.03176L61.2194 5.41617L61.562 5.81574L61.8937 6.23004L62.214 6.65949L62.522 7.10411L62.8177 7.56389L63.1006 8.03882L63.3707 8.52893L63.6275 9.03465L63.8703 9.55553L64.0991 10.092L64.3132 10.6441L64.5129 11.2118L64.6969 11.7947L64.8657 12.394L65.0181 13.0085L65.1542 13.6391L65.274 14.2858L65.3763 14.9485L65.4615 15.6272L65.5291 16.322L65.5781 17.0328L65.6087 17.7602L65.6204 18.5041L65.6129 19.264L65.5858 20.0404L65.5388 20.8334L65.4715 21.6431L65.3832 22.469L65.274 23.3119L65.1433 24.1717L64.9911 25.0484L64.8163 25.9417L64.6191 26.8523L64.4744 27.4634L64.3179 28.0707L64.1495 28.675L63.9697 29.2757L63.7785 29.8733L63.5755 30.4673L63.3605 31.0577L63.1342 31.6449L62.8959 32.2287L62.6463 32.8094L62.3849 33.3861L62.112 33.96L61.8273 34.5299L61.5312 35.0967L61.2232 35.6605L60.9033 36.2204L60.5721 36.777L60.2295 37.3305L59.8749 37.8804L59.5084 38.4267L59.1307 38.9698L58.741 39.5094L58.3399 40.0455L57.9274 40.5784L57.5028 41.1082L57.0666 41.6343L56.619 42.157L56.1596 42.6762L55.6886 43.1922L55.2059 43.7045L54.7113 44.2139L54.2054 44.7195L53.6879 45.222L53.1588 45.7206L52.6176 46.2165L52.0651 46.7084L51.5007 47.1973L50.9249 47.6829L50.3373 48.1646L49.7383 48.6435L49.1274 49.1184L48.505 49.5903L47.8709 50.0585L47.2249 50.5236L46.5674 50.9852L45.8985 51.4437L45.2178 51.8985L44.5252 52.3497L43.8212 52.7981L43.1055 53.2426L42.3783 53.6836L41.6391 54.1215L40.8886 54.556L40.1263 54.9873L39.3524 55.4149L38.5669 55.8389L37.7698 56.2599L36.961 56.6773L36.1402 57.0916L35.308 57.5023L34.4643 57.9095L33.609 58.3135L32.8788 58.6508L32.8788 58.6672L32.8788 58.6774L32.85 58.6641L32.7416 58.714L32.7416 58.6142L32.0118 58.277L31.1564 57.8729L30.3125 57.4658L29.4803 57.0551L28.66 56.6408L27.851 56.2234L27.0535 55.8024L26.2679 55.3783L25.4941 54.9507L24.7318 54.5195L23.9811 54.085L23.2422 53.6471L22.515 53.2056L21.7992 52.761L21.0952 52.3132L20.4028 51.8614L19.7221 51.4071L19.053 50.9487L18.3956 50.487L17.7497 50.0219L17.1156 49.5537L16.4931 49.0818L15.8823 48.6065L15.2831 48.128L14.6955 47.6458L14.1197 47.1607L13.5554 46.6719L13.0028 46.1796L12.4619 45.6841L11.9326 45.1851L11.4149 44.6829L10.909 44.1773L10.4146 43.6679L9.93193 43.1555L9.4609 42.6396L9.00149 42.1201L8.55376 41.5974L8.11763 41.0711L7.6932 40.5419L7.28038 40.0089L6.87928 39.4729L6.48976 38.9329L6.11193 38.3902L5.74571 37.8433L5.39115 37.2934L5.04825 36.7405L4.71699 36.1835L4.3974 35.6239L4.08946 35.0601L3.79315 34.4933L3.50851 33.9229L3.23551 33.3494L2.97414 32.7725L2.72444 32.1921L2.48639 31.6084L2.25996 31.0212L2.04521 30.4306L1.8421 29.8368L1.65067 29.2391L1.47082 28.6385L1.3027 28.0342L1.14616 27.4266L1.00131 26.8157L0.804159 25.9051L0.629519 25.0119L0.477088 24.1351L0.346447 23.2753L0.237212 22.4325L0.149088 21.6062L0.0816513 20.7966L0.0345643 20.0038L0.00748823 19.2274L0 18.467L0.0117612 17.7236L0.0423909 16.9963L0.091551 16.2854L0.15886 15.5906L0.24398 14.9119L0.346489 14.2492L0.46609 13.6026L0.602358 12.972L0.754957 12.357L0.923549 11.7581L1.10771 11.1748L1.3071 10.6071L1.52134 10.0554L1.75009 9.51896L1.99297 8.99808L2.24964 8.49236L2.51972 8.00227L2.80283 7.52732L3.09861 7.06754L3.40671 6.62292L3.72672 6.19347L4.05837 5.77917L4.40118 5.3796L4.75485 4.99519L5.11902 4.62504L5.49331 4.27006L5.87733 3.9298L6.27073 3.60425L6.6732 3.29298L7.08428 2.99642L7.50367 2.71412L7.93101 2.4461L8.36588 2.19281L8.80794 1.95333L9.25684 1.72857L9.71223 1.51732L10.1737 1.32034L10.6409 1.13732L11.1135 0.968213L11.5911 0.812932L12.0733 0.671475L12.5598 0.543664L13.0502 0.429543L13.5441 0.329026L14.0412 0.241974L14.5412 0.168393L15.0436 0.108233L15.5481 0.0613634L16.0543 0.0277383L16.5618 0.00731366L17.0703 0L17.5795 0.00575283L18.0888 0.0245275L18.4268 0.0454874L18.7615 0.0747421L19.0927 0.112247L19.4208 0.158047L19.7456 0.21214L20.067 0.274486L20.3852 0.345124L20.6999 0.424059L21.0114 0.511287L21.3196 0.606766L21.6245 0.710541L21.9262 0.822609L22.2243 0.942927L22.5194 1.07154L22.811 1.20845L23.0994 1.35361L23.3844 1.50711L23.6661 1.66881L23.9446 1.83872L24.2198 2.01709L24.4914 2.20396L24.7601 2.39839L25.0255 2.60175L25.2873 2.81312L25.5458 3.03298L25.8009 3.26086L26.0531 3.49723L26.3018 3.7416L26.5471 3.99446L26.7891 4.25579L27.0277 4.52516L27.2634 4.80254L27.4952 5.08884L27.7242 5.38316L27.9497 5.68552L28.1722 5.99636L28.3908 6.31521L28.6066 6.64254L28.8186 6.97836L29.0275 7.32218L29.2337 7.67449L29.4358 8.03482L29.6351 8.40362L29.8306 8.78091L30.0231 9.1662L30.2122 9.55999L30.3983 9.9618L30.5806 10.3721L30.7601 10.7904L30.936 11.2171L31.1087 11.652L31.278 12.0952L31.4437 12.547L31.6065 13.0068L31.7661 13.475L31.9217 13.9513L32.0749 14.436L32.2243 14.9293L32.3702 15.4305L32.5132 15.9398L32.6528 16.458L32.7891 16.9838L32.8149 17.0877" sodipodi:nodetypes="cccccccccccccccccccccccccccccccccccccccccccccccccccccccccccccccccccccccccccccccccccccccccccccccccccccccccccccccccccccccccccccccccccccccccccccccccccccccccccccccccccccccccccccccccccccccccccccccccccccccccccccccccccccccccccccccccccccccccccccccccccccccccccccccccccccccccccccccccccccccccccccccccccccccccccccccccccccccccccccccccccccccccccccccccccccccccccccccccccccccccccccccccccccccccccccccc"/><path id="shape03" transform="matrix(0.456428946419229 -0.231984079357699 0.231984079357699 0.456428946419229 6.39787272309669 32.0459625290236)" fill="url(#gradient4)" fill-rule="evenodd" stroke="#ffffff" stroke-width="1.2" stroke-linecap="square" stroke-linejoin="bevel" d="M21.2653 10.7423L21.276 10.7002L21.3643 10.3694L21.4548 10.0439L21.5474 9.72349L21.642 9.40835L21.739 9.09861L21.8381 8.79383L21.9392 8.49415L22.0422 8.20007L22.1478 7.91076L22.2553 7.62699L22.3652 7.34837L22.477 7.07471L22.5908 6.8064L22.7071 6.54343L22.8255 6.28553L22.9459 6.03293L23.0685 5.78538L23.1932 5.54317L23.3201 5.30626L23.449 5.07441L23.5803 4.84761L23.7136 4.62641L23.8491 4.40998L23.9866 4.19915L24.1262 3.99337L24.2681 3.79264L24.4121 3.59723L24.5582 3.40715L24.7066 3.22212L24.8571 3.04241L25.0096 2.86776L25.1641 2.69842L25.3213 2.53413L25.4802 2.37546L25.6411 2.22155L25.8046 2.07295L25.97 1.92969L26.1377 1.79148L26.3075 1.6586L26.4793 1.53104L26.6531 1.40852L26.8295 1.29105L27.0077 1.17919L27.1881 1.0721L27.3706 0.970608L27.5554 0.874027L27.7423 0.782772L27.9312 0.696702L28.1224 0.615851L28.3157 0.540211L28.5111 0.469758L28.7088 0.40452L28.9084 0.344497L29.1102 0.28966L29.3144 0.240066L29.5206 0.19563L29.7286 0.156437L29.9393 0.12243L30.1518 0.0936377L30.3664 0.07006L30.5833 0.051669L30.8023 0.0384924L31.1324 0.0267176L31.4625 0.023073L31.7921 0.0276708L32.1208 0.0405109L32.4489 0.0616495L32.7757 0.0911143L33.1014 0.128962L33.4254 0.175193L33.7476 0.229917L34.0675 0.293108L34.3853 0.364879L34.7006 0.445199L35.0132 0.534128L35.3226 0.631743L35.629 0.738055L35.9315 0.853112L36.2307 0.977058L36.5259 1.10967L36.8168 1.25124L37.1033 1.40151L37.3849 1.56104L37.6618 1.72925L37.9338 1.9067L38.2003 2.09314L38.461 2.28882L38.716 2.49348L38.9647 2.70767L39.2073 2.93083L39.4433 3.16325L39.6725 3.40491L39.8946 3.6561L40.1095 3.91655L40.3171 4.18653L40.5167 4.46604L40.7083 4.75509L40.8916 5.05366L41.0667 5.36177L41.2331 5.67969L41.3904 6.00715L41.5387 6.3444L41.6774 6.69148L41.8069 7.04837L41.9261 7.41481L42.0355 7.79157L42.1342 8.17788L42.2224 8.57431L42.3001 8.98086L42.3664 9.39747L42.4216 9.82414L42.4654 10.2609L42.4971 10.7078L42.517 11.1651L42.5246 11.6327L42.5197 12.1104L42.5021 12.5985L42.4717 13.0971L42.4281 13.6061L42.3708 14.1253L42.3001 14.6552L42.2154 15.1957L42.1167 15.7468L42.0035 16.3084L41.8757 16.8809L41.7819 17.265L41.6805 17.6468L41.5714 18.0267L41.4548 18.4044L41.3309 18.78L41.1994 19.1535L41.0601 19.5246L40.9134 19.8938L40.759 20.2608L40.5972 20.6258L40.4278 20.9884L40.251 21.3492L40.0665 21.7074L39.8746 22.0638L39.675 22.4182L39.4677 22.7702L39.2531 23.1201L39.031 23.4681L38.8013 23.8138L38.5637 24.1572L38.319 24.4986L38.0664 24.8378L37.8065 25.1749L37.5392 25.5099L37.264 25.8429L36.9814 26.1737L36.6913 26.5023L36.3936 26.8287L36.0884 27.1531L35.7756 27.4751L35.455 27.7954L35.1272 28.1132L34.7918 28.4291L34.449 28.7425L34.0982 29.0543L33.7402 29.3635L33.3744 29.6709L33.0013 29.9762L32.6205 30.279L32.2323 30.58L31.8365 30.8786L31.4331 31.1753L31.0222 31.4696L30.6036 31.762L30.1775 32.0522L29.744 32.3404L29.3029 32.6263L28.8541 32.91L28.3978 33.1919L27.934 33.4713L27.4628 33.7485L26.9837 34.0238L26.4974 34.297L26.0034 34.5681L25.5019 34.8369L24.9928 35.1035L24.4763 35.3681L23.9522 35.6305L23.4202 35.891L22.881 36.1492L22.3342 36.4052L21.7799 36.6592L21.3067 36.8712L21.3067 36.8815L21.3067 36.8879L21.2881 36.8796L21.2178 36.9109L21.2178 36.8482L20.7449 36.6362L20.1906 36.3822L19.6437 36.1262L19.1044 35.8681L18.5728 35.6076L18.0485 35.3452L17.5317 35.0805L17.0226 34.8139L16.5212 34.5451L16.0272 34.274L15.5407 34.0009L15.0618 33.7256L14.5906 33.448L14.1267 33.1685L13.6705 32.887L13.2218 32.603L12.7807 32.3174L12.3471 32.0292L11.9211 31.739L11.5025 31.4466L11.0916 31.1523L10.6882 30.8556L10.2923 30.5568L9.90404 30.256L9.52325 29.9528L9.15011 29.6479L8.78442 29.3406L8.42632 29.0311L8.07579 28.7196L7.73279 28.4059L7.3973 28.0902L7.06945 27.7723L6.74906 27.4521L6.43628 27.13L6.13103 26.8057L5.83331 26.4791L5.54317 26.1505L5.26054 25.8196L4.98549 25.4869L4.71797 25.1519L4.45804 24.8149L4.20562 24.4754L3.96077 24.1342L3.72344 23.7904L3.49367 23.4447L3.27146 23.0972L3.05679 22.747L2.84969 22.3952L2.65013 22.0408L2.45811 21.6844L2.27365 21.3258L2.09674 20.9653L1.92736 20.6026L1.76554 20.2378L1.61128 19.8708L1.46454 19.5017L1.32538 19.1304L1.19375 18.7571L1.0697 18.3813L0.953148 18.0038L0.8442 17.6239L0.742756 17.2419L0.648888 16.8579L0.521126 16.2854L0.407953 15.7239L0.309171 15.1727L0.224511 14.6322L0.153723 14.1023L0.0966148 13.5829L0.0529132 13.0739L0.022399 12.5755L0.00485266 12.0874L0 11.6094L0.00762171 11.1421L0.0274709 10.6848L0.0593286 10.2379L0.102947 9.80113L0.158108 9.37446L0.224538 8.95785L0.302044 8.55136L0.390351 8.15493L0.489241 7.76831L0.598496 7.39181L0.717839 7.02511L0.847051 6.66822L0.985887 6.32139L1.13413 5.98416L1.29152 5.6567L1.45785 5.33878L1.63288 5.03068L1.81634 4.7321L2.00802 4.44305L2.20768 4.16354L2.41506 3.89356L2.62998 3.63311L2.85214 3.38192L3.08133 3.14026L3.31732 2.90756L3.55988 2.6844L3.80874 2.47049L4.06368 2.26583L4.32449 2.07015L4.59089 1.88372L4.86267 1.70625L5.1396 1.53776L5.42141 1.37852L5.70789 1.22797L5.99879 1.08668L6.2939 0.953873L6.59295 0.83004L6.89572 0.714984L7.20198 0.608673L7.51148 0.511055L7.82397 0.422127L8.13924 0.341778L8.45703 0.270035L8.7771 0.206844L9.09924 0.152119L9.42326 0.105861L9.74884 0.0680414L10.0758 0.0385765L10.4038 0.0174379L10.7327 0.00459778L11.0622 0L11.3922 0.00361655L11.7222 0.0154194L11.9413 0.0285959L12.1582 0.0469871L12.3728 0.0705648L12.5854 0.0993573L12.7959 0.133363L13.0042 0.172557L13.2104 0.216964L13.4143 0.266587L13.6162 0.321424L13.8159 0.381447L14.0135 0.446686L14.209 0.517138L14.4022 0.592777L14.5934 0.673631L14.7824 0.7597L14.9693 0.850956L15.154 0.947454L15.3365 1.04911L15.517 1.15592L15.6954 1.26806L15.8714 1.38553L16.0455 1.50776L16.2175 1.63561L16.3871 1.76849L16.5547 1.9067L16.72 2.04996L16.8834 2.19856L17.0446 2.35218L17.2035 2.51114L17.3604 2.67543L17.515 2.84477L17.6677 3.01915L17.818 3.19913L17.9664 3.38416L18.1125 3.57424L18.2567 3.76965L18.3983 3.9701L18.5382 4.17588L18.6756 4.38699L18.8109 4.60314L18.9446 4.82462L19.0755 5.05114L19.2047 5.28299L19.3314 5.52018L19.4561 5.76239L19.5787 6.00995L19.6993 6.26255L19.8174 6.52049L19.9337 6.78345L20.0477 7.0517L20.1596 7.3251L20.2694 7.60373L20.3767 7.88775L20.4822 8.17681L20.5857 8.47115L20.6865 8.77057L20.7858 9.07528L20.8826 9.3854L20.9771 9.70048L21.0698 10.0207L21.1603 10.3464L21.2486 10.677L21.2653 10.7423" sodipodi:nodetypes="cccccccccccccccccccccccccccccccccccccccccccccccccccccccccccccccccccccccccccccccccccccccccccccccccccccccccccccccccccccccccccccccccccccccccccccccccccccccccccccccccccccccccccccccccccccccccccccccccccccccccccccccccccccccccccccccccccccccccccccccccccccccccccccccccccccccccccccccccccccccccccccccccccccccccccccccccccccccccccccccccccccccccccccccccccccccccccccccccccccccccccccccccccccccccccccccc"/><path id="shape04" transform="matrix(0.487938766385586 -0.155112021395581 0.155112021395581 0.487938766385586 0.697124746416727 71.6404841550508)" fill="url(#gradient5)" fill-rule="evenodd" stroke="#ffffff" stroke-width="1.2" stroke-linecap="square" stroke-linejoin="bevel" d="M16.5165 8.23578L16.5248 8.2035L16.5934 7.94989L16.6637 7.70034L16.7356 7.45469L16.8091 7.21308L16.8844 6.97562L16.9614 6.74195L17.0399 6.51219L17.1199 6.28673L17.202 6.06493L17.2854 5.84737L17.3708 5.63376L17.4576 5.42396L17.546 5.21825L17.6364 5.01664L17.7283 4.81892L17.8218 4.62526L17.917 4.43547L18.0139 4.24977L18.1125 4.06814L18.2126 3.89039L18.3146 3.71651L18.4181 3.54692L18.5233 3.38099L18.6301 3.21935L18.7386 3.06159L18.8488 2.9077L18.9606 2.75788L19.0741 2.61215L19.1893 2.4703L19.3062 2.33252L19.4247 2.19862L19.5447 2.06879L19.6668 1.94284L19.7902 1.82119L19.9152 1.70319L20.0421 1.58926L20.1706 1.47943L20.3009 1.37347L20.4327 1.2716L20.5662 1.1738L20.7012 1.07987L20.8382 0.989807L20.9766 0.904047L21.1167 0.821945L21.2584 0.744134L21.402 0.670089L21.5471 0.600126L21.6939 0.534139L21.8424 0.472153L21.9925 0.414163L22.1443 0.360149L22.2978 0.310133L22.4528 0.264115L22.6096 0.222073L22.7682 0.184051L22.9283 0.149983L23.0899 0.119935L23.2535 0.0938632L23.4186 0.071789L23.5852 0.0537128L23.7537 0.039613L23.9238 0.0295109L24.1802 0.0204835L24.4366 0.0176893L24.6926 0.0212143L24.9479 0.0310584L25.2027 0.0472647L25.4565 0.0698544L25.7095 0.0988711L25.9611 0.134315L26.2114 0.17627L26.4599 0.224717L26.7067 0.279741L26.9516 0.34132L27.1944 0.409499L27.4347 0.484337L27.6727 0.565843L27.9076 0.654054L28.14 0.749079L28.3693 0.850749L28.5952 0.959286L28.8177 1.07449L29.0364 1.1968L29.2515 1.32576L29.4628 1.46181L29.6698 1.60474L29.8722 1.75477L30.0703 1.91167L30.2635 2.07588L30.4519 2.24697L30.6352 2.42516L30.8132 2.61044L30.9857 2.80302L31.1526 3.00269L31.3138 3.20968L31.4689 3.42397L31.6177 3.64558L31.7601 3.87448L31.8961 4.1107L32.0253 4.35444L32.1475 4.60549L32.2626 4.86405L32.3704 5.13015L32.471 5.40376L32.5635 5.6847L32.6485 5.97355L32.7252 6.26972L32.7937 6.57365L32.854 6.88534L32.9055 7.20474L32.9484 7.53186L32.9824 7.86671L33.007 8.20933L33.0225 8.55993L33.0284 8.91842L33.0246 9.28466L33.0109 9.65887L32.9873 10.0411L32.9534 10.4314L32.9089 10.8294L32.854 11.2357L32.7882 11.6501L32.7116 12.0726L32.6237 12.5031L32.5244 12.942L32.4515 13.2365L32.3728 13.5292L32.288 13.8205L32.1975 14.1101L32.1013 14.398L31.9991 14.6844L31.8909 14.9689L31.777 15.2519L31.6571 15.5333L31.5314 15.8131L31.3998 16.0911L31.2625 16.3678L31.1192 16.6424L30.9702 16.9156L30.8151 17.1873L30.6541 17.4572L30.4874 17.7254L30.3149 17.9922L30.1365 18.2573L29.952 18.5206L29.7619 18.7823L29.5658 19.0424L29.3639 19.3008L29.1563 19.5576L28.9425 19.8129L28.723 20.0665L28.4977 20.3185L28.2665 20.5687L28.0295 20.8174L27.7865 21.0643L27.5375 21.3098L27.2829 21.5535L27.0224 21.7957L26.7562 22.036L26.4837 22.275L26.2056 22.5121L25.9215 22.7477L25.6317 22.9818L25.336 23.2139L25.0345 23.4447L24.7271 23.6736L24.4137 23.9011L24.0946 24.1267L23.7695 24.3509L23.4385 24.5734L23.1018 24.7944L22.7592 25.0135L22.4107 25.2311L22.0563 25.4472L21.696 25.6614L21.3301 25.8739L20.9579 26.085L20.5802 26.2944L20.1966 26.5023L19.807 26.7083L19.4116 26.9127L19.0105 27.1156L18.6034 27.3168L18.1902 27.5165L17.7714 27.7144L17.3467 27.9107L16.9162 28.1054L16.5487 28.268L16.5487 28.2759L16.5487 28.2808L16.5342 28.2744L16.4796 28.2984L16.4796 28.2503L16.1123 28.0878L15.6818 27.8931L15.257 27.6968L14.8382 27.4989L14.4253 27.2992L14.0181 27.098L13.6167 26.8951L13.2213 26.6907L12.8318 26.4846L12.4481 26.2768L12.0703 26.0674L11.6983 25.8563L11.3324 25.6435L10.9721 25.4292L10.6177 25.2134L10.2692 24.9957L9.92663 24.7767L9.58986 24.5558L9.25899 24.3333L8.93386 24.1091L8.61472 23.8835L8.30141 23.656L7.99392 23.4269L7.69236 23.1963L7.3966 22.9639L7.10679 22.7301L6.82276 22.4945L6.54463 22.2572L6.27238 22.0184L6.00597 21.7779L5.7454 21.5359L5.49076 21.2921L5.24192 21.0467L4.99899 20.7997L4.7619 20.5511L4.53067 20.3007L4.30532 20.0488L4.0858 19.7951L3.87218 19.54L3.6644 19.2832L3.46251 19.0248L3.26646 18.7645L3.07629 18.5029L2.89195 18.2393L2.71349 17.9743L2.54091 17.7079L2.37418 17.4394L2.21332 17.1697L2.05833 16.898L1.90919 16.6247L1.76592 16.3498L1.62851 16.0734L1.49696 15.7954L1.37128 15.5157L1.25146 15.2343L1.13749 14.9513L1.02941 14.6667L0.927172 14.3805L0.830824 14.0924L0.7403 13.8029L0.655681 13.5117L0.57689 13.2188L0.503984 12.9244L0.404753 12.4855L0.316853 12.055L0.24013 11.6324L0.174375 11.218L0.119395 10.8118L0.0750396 10.4136L0.0410971 10.0233L0.0173971 9.64124L0.00376901 9.26703L0 8.90056L0.0059197 8.54229L0.0213363 8.1917L0.0460799 7.84907L0.0799578 7.51421L0.122801 7.1871L0.174396 6.8677L0.234594 6.55606L0.303181 6.25213L0.379988 5.95572L0.464845 5.66707L0.557538 5.38593L0.657895 5.11231L0.765728 4.84641L0.880866 4.58787L1.00311 4.33681L1.1323 4.09307L1.26824 3.85686L1.41073 3.62795L1.55961 3.40635L1.71468 3.19205L1.87575 2.98507L2.04268 2.78539L2.21523 2.59281L2.39323 2.40754L2.57653 2.22913L2.76492 2.05804L2.95821 1.89405L3.15622 1.73714L3.35878 1.58712L3.56569 1.44419L3.77678 1.30813L3.99187 1.17895L4.21075 1.05687L4.43326 0.941446L4.65919 0.833123L4.8884 0.731304L5.12067 0.636365L5.35583 0.548156L5.5937 0.46665L5.83408 0.39181L6.07679 0.323631L6.32166 0.26203L6.56848 0.207027L6.81708 0.158581L7.06728 0.116625L7.31894 0.0811603L7.57182 0.0521652L7.82576 0.0295754L8.08052 0.0133691L8.33597 0.00352497L8.59189 0L8.8482 0.00277269L9.1045 0.0118216L9.27468 0.0219236L9.44314 0.0360235L9.60982 0.0540998L9.77494 0.0761741L9.93843 0.102245L10.1002 0.132294L10.2604 0.166339L10.4187 0.204384L10.5756 0.246426L10.7307 0.292443L10.8841 0.34246L11.036 0.396473L11.186 0.454463L11.3345 0.516451L11.4813 0.582438L11.6265 0.652401L11.7699 0.726383L11.9117 0.804319L12.0519 0.886207L12.1904 0.972181L12.3271 1.06224L12.4624 1.15595L12.596 1.25397L12.7277 1.35585L12.8579 1.46181L12.9862 1.57164L13.1132 1.68557L13.2384 1.80334L13.3618 1.92521L13.4836 2.05117L13.6037 2.18099L13.7223 2.31469L13.839 2.45267L13.9543 2.59453L14.0678 2.74026L14.1798 2.89007L14.2898 3.04375L14.3984 3.20151L14.5051 3.36337L14.6102 3.52908L14.7141 3.69888L14.8157 3.87255L14.9161 4.0503L15.0145 4.23215L15.1113 4.41784L15.2066 4.60764L15.3002 4.8013L15.392 4.99905L15.4823 5.20066L15.5708 5.40631L15.6577 5.61592L15.743 5.82954L15.8264 6.04729L15.9083 6.2689L15.9887 6.49456L16.067 6.72412L16.1441 6.95773L16.2193 7.19549L16.2927 7.43705L16.3647 7.68255L16.435 7.93226L16.5036 8.18572L16.5165 8.23578" sodipodi:nodetypes="cccccccccccccccccccccccccccccccccccccccccccccccccccccccccccccccccccccccccccccccccccccccccccccccccccccccccccccccccccccccccccccccccccccccccccccccccccccccccccccccccccccccccccccccccccccccccccccccccccccccccccccccccccccccccccccccccccccccccccccccccccccccccccccccccccccccccccccccccccccccccccccccccccccccccccccccccccccccccccccccccccccccccccccccccccccccccccccccccccccccccccccccccccccccccccccccc"/><path id="shape05" transform="matrix(0.511946329605597 0.00741336842036979 -0.00741336842036979 0.511946329605597 48.5744311426129 3.92335962996764)" fill="url(#gradient6)" fill-rule="evenodd" stroke="#ffffff" stroke-width="1.2" stroke-linecap="square" stroke-linejoin="bevel" d="M25.6078 11.8993L25.6207 11.8527L25.727 11.4863L25.836 11.1257L25.9475 10.7707L26.0614 10.4217L26.1783 10.0785L26.2975 9.74097L26.4193 9.409L26.5433 9.08324L26.6705 8.76275L26.7999 8.44848L26.9323 8.1398L27.067 7.8367L27.204 7.5395L27.3441 7.24821L27.4866 6.9625L27.6316 6.6827L27.7792 6.40849L27.9294 6.14018L28.0822 5.87776L28.2374 5.62094L28.3956 5.36971L28.556 5.12469L28.7191 4.88495L28.8848 4.65142L29.0528 4.42347L29.2238 4.20112L29.3972 3.98467L29.5731 3.77411L29.7518 3.56915L29.933 3.37009L30.1166 3.17663L30.3027 2.98905L30.492 2.80707L30.6834 2.6313L30.8772 2.46081L31.074 2.29622L31.2731 2.13753L31.4751 1.98443L31.6796 1.83723L31.8865 1.69593L32.0958 1.56023L32.3082 1.4301L32.5228 1.30619L32.74 1.18757L32.9598 1.07515L33.1823 0.968163L33.4075 0.86708L33.635 0.771741L33.8651 0.682181L34.0979 0.598394L34.3332 0.520354L34.5712 0.448089L34.8116 0.381601L35.0546 0.320858L35.3005 0.265921L35.5489 0.2167L35.7994 0.173286L36.053 0.135616L36.3089 0.103723L36.5673 0.0776058L36.8285 0.0572339L37.0922 0.0426382L37.4897 0.0295952L37.8873 0.0255581L38.2842 0.0306511L38.6799 0.0448741L39.0752 0.0682894L39.4687 0.100928L39.8609 0.142852L40.2511 0.194062L40.639 0.25468L41.0243 0.324677L41.407 0.404178L41.7866 0.493149L42.163 0.591655L42.5357 0.699788L42.9046 0.817548L43.269 0.944996L43.6292 1.08229L43.9847 1.22918L44.335 1.386L44.68 1.55245L45.0191 1.72916L45.3525 1.91549L45.68 2.11206L46.001 2.31857L46.3149 2.53534L46.622 2.76205L46.9215 2.9993L47.2136 3.24649L47.4978 3.50394L47.7738 3.77163L48.0412 4.04988L48.3001 4.33838L48.55 4.63743L48.7904 4.94706L49.0212 5.26723L49.2419 5.59796L49.4527 5.93925L49.6531 6.29141L49.8426 6.65414L50.0211 7.02772L50.1882 7.41218L50.344 7.80751L50.4876 8.2134L50.6193 8.63076L50.7383 9.0587L50.8445 9.49782L50.9379 9.94812L51.0178 10.4096L51.0843 10.8822L51.137 11.3661L51.1753 11.8611L51.1991 12.3676L51.2083 12.8856L51.2024 13.4148L51.1813 13.9554L51.1446 14.5076L51.0921 15.0715L51.0232 15.6467L50.9379 16.2336L50.836 16.8323L50.7172 17.4428L50.5808 18.0649L50.4269 18.699L50.314 19.1245L50.1919 19.5475L50.0605 19.9683L49.9201 20.3866L49.7709 20.8027L49.6125 21.2164L49.4448 21.6275L49.2681 22.0364L49.0821 22.4429L48.8874 22.8473L48.6834 23.2489L48.4704 23.6485L48.2483 24.0454L48.0172 24.4401L47.7768 24.8327L47.5272 25.2227L47.2687 25.6102L47.0013 25.9957L46.7247 26.3786L46.4387 26.759L46.1439 27.1372L45.8398 27.513L45.5268 27.8863L45.2049 28.2574L44.8735 28.6263L44.5331 28.9927L44.1838 29.3567L43.8253 29.7182L43.4578 30.0776L43.0811 30.4343L42.6952 30.789L42.3004 31.1411L41.8965 31.4911L41.4836 31.8383L41.0613 32.1836L40.6301 32.5261L40.1897 32.8666L39.7403 33.2047L39.2818 33.5401L38.8144 33.8737L38.3376 34.2043L37.8519 34.533L37.3571 34.859L36.8529 35.1828L36.3399 35.5043L35.8179 35.8236L35.2867 36.1403L34.7462 36.4545L34.1968 36.7667L33.6383 37.0763L33.0708 37.3834L32.494 37.6884L31.9083 37.9909L31.3134 38.2912L30.7095 38.589L30.0965 38.8843L29.4745 39.1775L28.8433 39.4681L28.2028 39.7566L27.5533 40.0426L26.895 40.3261L26.2275 40.6075L25.6577 40.8424L25.6577 40.8538L25.6577 40.8609L25.6352 40.8516L25.5506 40.8864L25.5506 40.8169L24.9811 40.5821L24.3136 40.3007L23.655 40.0172L23.0056 39.7312L22.3654 39.4427L21.7341 39.152L21.1118 38.8588L20.4987 38.5636L19.8949 38.2658L19.3 37.9655L18.7142 37.6629L18.1375 37.358L17.57 37.0505L17.0115 36.7409L16.4621 36.4291L15.9217 36.1145L15.3906 35.7981L14.8685 35.4789L14.3554 35.1574L13.8513 34.8335L13.3565 34.5075L12.8707 34.1789L12.3941 33.8478L11.9265 33.5147L11.468 33.1789L11.0186 32.8411L10.5783 32.5007L10.147 32.1579L9.7249 31.8128L9.31185 31.4653L8.90789 31.1156L8.51304 30.7636L8.12726 30.4088L7.75059 30.052L7.38301 29.6927L7.02451 29.331L6.67511 28.967L6.33476 28.6005L6.00355 28.232L5.6814 27.8608L5.36839 27.4875L5.06443 27.1115L4.76957 26.7336L4.48379 26.3528L4.2071 25.9698L3.93951 25.5848L3.681 25.197L3.43161 24.8072L3.19129 24.4147L2.96007 24.0199L2.73794 23.6227L2.5249 23.2233L2.32093 22.8216L2.12608 22.4175L1.94031 22.011L1.76361 21.6021L1.59602 21.1908L1.43752 20.7773L1.28813 20.3611L1.14779 19.9428L1.01659 19.522L0.894434 19.099L0.781392 18.6735L0.627542 18.0394L0.491259 17.4174L0.372306 16.8069L0.270357 16.2081L0.185114 15.6212L0.116344 15.0458L0.0637183 14.4821L0.026973 13.93L0.0058436 13.3893L0 12.8598L0.00917809 12.3421L0.0330807 11.8356L0.0714438 11.3406L0.12397 10.8568L0.190395 10.3841L0.27039 9.92265L0.363723 9.47236L0.470063 9.03323L0.589147 8.605L0.720711 8.18793L0.864424 7.78174L1.02002 7.3864L1.18721 7.00226L1.36572 6.62867L1.55526 6.26595L1.75555 5.91378L1.96632 5.5725L2.18725 5.24177L2.41807 4.92159L2.6585 4.61197L2.90823 4.31292L3.16704 4.02441L3.43455 3.74616L3.71055 3.47847L3.99474 3.22071L4.28683 2.97352L4.5865 2.73658L4.8935 2.50988L5.20758 2.29312L5.52837 2.08661L5.85565 1.89002L6.18913 1.70338L6.52849 1.527L6.87346 1.36023L7.22378 1.20371L7.57914 1.05661L7.93927 0.919438L8.30385 0.791989L8.67263 0.67423L9.04532 0.566098L9.42163 0.467592L9.8013 0.378589L10.184 0.299119L10.5695 0.229123L10.9574 0.168503L11.3475 0.117263L11.7396 0.0753699L12.1333 0.0427313L12.5283 0.019316L12.9243 0.00509298L13.3212 0L13.7186 0.00400607L14.116 0.0170801L14.3798 0.0316759L14.641 0.0520478L14.8994 0.0781648L15.1554 0.110058L15.4089 0.147727L15.6597 0.191143L15.908 0.240332L16.1536 0.2953L16.3967 0.356043L16.6372 0.422531L16.8751 0.494796L17.1105 0.572836L17.3432 0.656621L17.5735 0.746184L17.8011 0.841522L18.0261 0.942605L18.2485 1.0495L18.4683 1.1621L18.6857 1.28042L18.9004 1.40463L19.1124 1.53476L19.3221 1.67015L19.5291 1.81177L19.7335 1.95896L19.9352 2.11206L20.1343 2.27075L20.3311 2.43535L20.5251 2.60552L20.7166 2.78161L20.9054 2.96358L21.0917 3.15116L21.2756 3.34432L21.4565 3.54369L21.6352 3.74865L21.8111 3.9592L21.9847 4.17566L22.1554 4.39769L22.3238 4.62564L22.4892 4.85948L22.6523 5.09891L22.8131 5.34425L22.9709 5.59517L23.1264 5.85199L23.2789 6.11472L23.4291 6.38302L23.5767 6.65725L23.722 6.93705L23.8642 7.22275L24.0043 7.51405L24.1416 7.81123L24.2763 8.11402L24.4084 8.42271L24.5378 8.73729L24.6648 9.05746L24.7894 9.38354L24.9108 9.71521L25.0303 10.0528L25.1469 10.3962L25.2608 10.7453L25.3724 11.0999L25.4813 11.4608L25.5876 11.8269L25.6078 11.8993" sodipodi:nodetypes="cccccccccccccccccccccccccccccccccccccccccccccccccccccccccccccccccccccccccccccccccccccccccccccccccccccccccccccccccccccccccccccccccccccccccccccccccccccccccccccccccccccccccccccccccccccccccccccccccccccccccccccccccccccccccccccccccccccccccccccccccccccccccccccccccccccccccccccccccccccccccccccccccccccccccccccccccccccccccccccccccccccccccccccccccccccccccccccccccccccccccccccccccccccccccccccccc"/><path id="shape06" transform="matrix(0.502302028738705 0.0991800690614096 -0.0991800690614096 0.502302028738705 80.9847161338508 99.3158243010692)" fill="url(#gradient7)" fill-rule="evenodd" stroke="#ffffff" stroke-width="1.2" stroke-linecap="square" stroke-linejoin="bevel" d="M7.24363 3.68196L7.24727 3.66755L7.27735 3.55416L7.30817 3.4426L7.33973 3.33276L7.37194 3.22476L7.405 3.11858L7.43873 3.01412L7.47319 2.9114L7.50827 2.8106L7.54424 2.71143L7.58084 2.61419L7.61828 2.51867L7.65639 2.42489L7.69515 2.33293L7.73477 2.24279L7.77508 2.15439L7.8161 2.06781L7.85784 1.98296L7.90033 1.89994L7.94355 1.81874L7.98747 1.73927L8.03221 1.66154L8.0776 1.58572L8.12373 1.51154L8.17059 1.43927L8.21812 1.36874L8.26649 1.29994L8.31553 1.23296L8.3653 1.16781L8.41585 1.10439L8.4671 1.0428L8.51904 0.982935L8.57168 0.924893L8.62522 0.868584L8.67937 0.814197L8.73418 0.761443L8.78985 0.710512L8.84617 0.661409L8.90331 0.614036L8.96114 0.56849L9.01968 0.524768L9.07887 0.482777L9.13896 0.442512L9.19966 0.404171L9.2611 0.367465L9.32328 0.332679L9.38623 0.299576L9.44992 0.268298L9.51427 0.238798L9.57935 0.211085L9.64521 0.185159L9.71177 0.161012L9.7791 0.138651L9.8471 0.118078L9.91582 0.0992821L9.98541 0.0822833L10.0556 0.067053L10.1265 0.0536194L10.1983 0.0419632L10.2706 0.0320947L10.3437 0.0240134L10.4176 0.0177097L10.4922 0.0131934L10.6047 0.00915756L10.7171 0.00790836L10.8294 0.00948428L10.9413 0.0138853L11.0531 0.0211306L11.1645 0.0312299L11.2754 0.0442023L11.3858 0.0600479L11.4955 0.078805L11.6045 0.100464L11.7127 0.125064L11.8201 0.152594L11.9266 0.183074L12.032 0.216533L12.1363 0.252972L12.2394 0.292407L12.3413 0.33489L12.4419 0.380341L12.541 0.428866L12.6386 0.480371L12.7345 0.53505L12.8288 0.592704L12.9214 0.653529L13.0122 0.71743L13.101 0.784504L13.1879 0.854652L13.2726 0.928066L13.3552 1.00455L13.4356 1.08421L13.5137 1.16705L13.5893 1.25314L13.6626 1.34241L13.7333 1.43495L13.8013 1.53075L13.8665 1.62983L13.929 1.73216L13.9886 1.83777L14.0453 1.94673L14.0989 2.05897L14.1494 2.17457L14.1966 2.29353L14.2407 2.41585L14.2813 2.54145L14.3186 2.67059L14.3522 2.80301L14.3823 2.93888L14.4087 3.07822L14.4313 3.22101L14.4501 3.36726L14.465 3.51697L14.4759 3.67014L14.4826 3.82687L14.4852 3.98716L14.4835 4.15089L14.4776 4.31819L14.4672 4.48906L14.4523 4.66353L14.4328 4.8415L14.4087 5.02312L14.3799 5.20838L14.3463 5.39729L14.3077 5.58977L14.2642 5.78597L14.2322 5.91765L14.1977 6.04852L14.1605 6.17873L14.1208 6.30816L14.0786 6.43693L14.0338 6.56493L13.9864 6.69215L13.9364 6.81867L13.8838 6.94445L13.8287 7.06958L13.771 7.19385L13.7107 7.3175L13.6479 7.4403L13.5825 7.56244L13.5146 7.68391L13.4439 7.80458L13.3708 7.9245L13.2952 8.04377L13.2169 8.16226L13.136 8.27997L13.0526 8.39699L12.9666 8.51327L12.8781 8.62877L12.787 8.74361L12.6933 8.85776L12.597 8.97113L12.4982 9.08376L12.3968 9.19562L12.2928 9.30681L12.1863 9.41719L12.0771 9.52696L11.9654 9.6359L11.8512 9.74419L11.7344 9.85162L11.6149 9.95847L11.493 10.0645L11.3684 10.1698L11.2413 10.2744L11.1116 10.3782L10.9794 10.4814L10.8445 10.5837L10.7071 10.6854L10.5671 10.7863L10.4245 10.8865L10.2794 10.986L10.1317 11.0848L9.98149 11.1828L9.82861 11.28L9.6732 11.3766L9.5152 11.4724L9.35468 11.5674L9.19152 11.6618L9.02584 11.7554L8.85757 11.8483L8.68673 11.9405L8.51334 12.0319L8.33739 12.1226L8.15885 12.2125L7.97766 12.3018L7.79396 12.3903L7.60774 12.478L7.41892 12.5651L7.25774 12.6377L7.25774 12.6413L7.25774 12.6435L7.25138 12.6406L7.22747 12.6514L7.22747 12.6299L7.06636 12.5572L6.87754 12.4701L6.69124 12.3824L6.50754 12.2939L6.32647 12.2046L6.14789 12.1147L5.97186 12.024L5.79843 11.9326L5.62764 11.8405L5.45936 11.7475L5.29365 11.6539L5.13053 11.5596L4.97001 11.4644L4.812 11.3686L4.6566 11.2721L4.50375 11.1748L4.3535 11.0769L4.20581 10.9781L4.06068 10.8787L3.91811 10.7784L3.77813 10.6776L3.64072 10.5759L3.50589 10.4734L3.37362 10.3704L3.24393 10.2665L3.11681 10.1619L2.99226 10.0566L2.87027 9.95052L2.75087 9.84374L2.63403 9.73623L2.51976 9.62803L2.40807 9.51908L2.29894 9.40932L2.1924 9.2989L2.08842 9.18774L1.98701 9.07581L1.88818 8.96318L1.7919 8.84977L1.69821 8.73574L1.60709 8.6209L1.51855 8.50539L1.43257 8.38904L1.34916 8.2721L1.26832 8.15427L1.19005 8.03578L1.11436 7.91663L1.04124 7.79662L0.970693 7.67604L0.902716 7.55456L0.83731 7.43242L0.774477 7.30951L0.714215 7.18594L0.656518 7.06163L0.6014 6.93658L0.548851 6.81079L0.498869 6.68427L0.451465 6.55701L0.40663 6.42906L0.364372 6.30028L0.324673 6.17085L0.28756 6.04064L0.253007 5.90974L0.221031 5.7781L0.177512 5.58189L0.138961 5.38941L0.105314 5.2005L0.0764755 5.01524L0.0523628 4.83363L0.03291 4.65558L0.0180239 4.48114L0.0076298 4.31031L0.00165297 4.14301L0 3.97917L0.00259619 3.81899L0.00935747 3.66226L0.0202092 3.50909L0.0350672 3.35938L0.0538567 3.21313L0.0764848 3.07034L0.102886 2.931L0.132966 2.79513L0.166651 2.66262L0.203866 2.53357L0.244518 2.40788L0.288532 2.28555L0.335824 2.16669L0.386318 2.05109L0.439932 1.93885L0.49659 1.82989L0.556209 1.72428L0.618704 1.62195L0.683994 1.52287L0.752006 1.42707L0.822645 1.33453L0.895855 1.24526L0.971526 1.15917L1.0496 1.07633L1.12999 0.996577L1.21261 0.920089L1.29738 0.846772L1.38421 0.776624L1.47306 0.709553L1.5638 0.645652L1.65638 0.584824L1.75071 0.527073L1.8467 0.472495L1.94428 0.420893L2.04338 0.372462L2.1439 0.326943L2.24577 0.284499L2.3489 0.245063L2.45321 0.208625L2.55864 0.175166L2.66508 0.144686L2.77248 0.117146L2.88072 0.0925556L2.98976 0.0708968L3.09949 0.0521393L3.20986 0.0362843L3.32076 0.0233215L3.43212 0.0132222L3.54385 0.0059769L3.65588 0.00157591L3.76813 0L3.88054 0.00123959L3.99296 0.00528504L4.06758 0.00980138L4.14147 0.016105L4.21457 0.0241863L4.28699 0.034055L4.3587 0.0457108L4.42964 0.0591447L4.49988 0.0743653L4.56934 0.0913738L4.63811 0.110169L4.70614 0.130743L4.77343 0.153103L4.84003 0.177251L4.90585 0.203177L4.97098 0.230889L5.03536 0.26039L5.09901 0.291668L5.16193 0.324742L5.2241 0.359585L5.28558 0.396198L5.34633 0.434632L5.40629 0.474897L5.4656 0.516791L5.52418 0.56061L5.58197 0.606156L5.63903 0.653529L5.69536 0.702632L5.75102 0.753563L5.80591 0.80622L5.86007 0.860704L5.91348 0.917013L5.96616 0.975055L6.01818 1.03482L6.06935 1.09651L6.1199 1.15993L6.16967 1.22508L6.21879 1.29206L6.26705 1.36077L6.31469 1.4313L6.36148 1.50366L6.40761 1.57774L6.45312 1.65366L6.49773 1.7313L6.54173 1.81077L6.58487 1.89206L6.62736 1.97508L6.66911 2.05993L6.7102 2.14651L6.75044 2.23491L6.79005 2.32505L6.82889 2.41701L6.867 2.5107L6.90437 2.60621L6.94096 2.70356L6.97689 2.80262L7.01213 2.90352L7.04648 3.00615L7.08028 3.1106L7.11327 3.21688L7.14548 3.32489L7.17703 3.43462L7.20785 3.54628L7.23793 3.65957L7.24363 3.68196" sodipodi:nodetypes="cccccccccccccccccccccccccccccccccccccccccccccccccccccccccccccccccccccccccccccccccccccccccccccccccccccccccccccccccccccccccccccccccccccccccccccccccccccccccccccccccccccccccccccccccccccccccccccccccccccccccccccccccccccccccccccccccccccccccccccccccccccccccccccccccccccccccccccccccccccccccccccccccccccccccccccccccccccccccccccccccccccccccccccccccccccccccccccccccccccccccccccccccccccccccccccccc"/>
</svg>
