<?xml version="1.0" standalone="no"?>
<!DOCTYPE svg PUBLIC "-//W3C//DTD SVG 20010904//EN" "http://www.w3.org/TR/2001/REC-SVG-20010904/DTD/svg10.dtd">
<!-- Created using Krita: https://krita.org -->
<svg xmlns="http://www.w3.org/2000/svg" 
    xmlns:xlink="http://www.w3.org/1999/xlink"
    xmlns:krita="http://krita.org/namespaces/svg/krita"
    xmlns:sodipodi="http://sodipodi.sourceforge.net/DTD/sodipodi-0.dtd"
    width="122.88pt"
    height="122.88pt"
    viewBox="0 0 122.88 122.88">
<defs>
  <linearGradient id="gradient0" gradientUnits="objectBoundingBox" x1="0" y1="0" x2="1" y2="1" spreadMethod="pad">
   <stop stop-color="#fffb00" offset="0" stop-opacity="1"/>
   <stop stop-color="#fff36c" offset="1" stop-opacity="1"/>
  </linearGradient>
  <linearGradient id="gradient1" gradientUnits="objectBoundingBox" x1="0" y1="0" x2="1" y2="1" spreadMethod="pad">
   <stop stop-color="#fffb00" offset="0" stop-opacity="1"/>
   <stop stop-color="#fff36c" offset="1" stop-opacity="1"/>
  </linearGradient>
  <linearGradient id="gradient2" gradientUnits="objectBoundingBox" x1="0" y1="0" x2="1" y2="1" spreadMethod="pad">
   <stop stop-color="#fffb00" offset="0" stop-opacity="1"/>
   <stop stop-color="#fff36c" offset="1" stop-opacity="1"/>
  </linearGradient>
 </defs>
<path id="shape0" transform="matrix(0.512000022888184 0 0 0.512000022888184 6.63551981397582 5.652479841535)" fill="url(#gradient0)" fill-rule="evenodd" stroke="#ffffcd" stroke-width="1.44" stroke-linecap="square" stroke-linejoin="bevel" d="M0 204.96L37.2 117.12L62.4 141.12L115.2 45.84L143.28 88.32L201.36 0L141.6 133.2L113.76 91.44L70.5352 175.636L42.0246 146.617L0 204.96" sodipodi:nodetypes="ccccccccccc"/><path id="shape01" transform="matrix(0.49044599250875 -0.146992292259733 0.146992292259733 0.49044599250875 -5.12613772581183 19.5532156548579)" fill="url(#gradient1)" fill-rule="evenodd" stroke="#ffffcd" stroke-width="1.44" stroke-linecap="square" stroke-linejoin="bevel" d="M0 114.927L20.8591 65.6726L34.9895 79.1301L64.596 25.7038L80.3413 49.5236L112.908 0L79.3993 74.6892L63.7886 51.2731L39.5512 98.4843L23.5644 82.2125L0 114.927" sodipodi:nodetypes="ccccccccccc"/><path id="shape011" transform="matrix(0.469386473156942 0.204500230730794 -0.204500230730794 0.469386473156942 60.532782292491 56.9794160140779)" fill="url(#gradient2)" fill-rule="evenodd" stroke="#ffffcd" stroke-width="1.44" stroke-linecap="square" stroke-linejoin="bevel" d="M0 121.605L22.0711 69.4885L37.0226 83.7279L68.3493 27.1973L85.0095 52.4012L119.469 0L84.0127 79.0289L67.495 54.2523L41.8493 104.207L24.9336 86.9894L0 121.605" sodipodi:nodetypes="ccccccccccc"/><path id="shape01" transform="matrix(0.512000015312222 0 0 0.512000015312222 8.4300005027153 15.7534418868403)" opacity="0.65" fill="#ffffff" fill-rule="evenodd" stroke="#fffcc2" stroke-width="0.4824" stroke-linecap="square" stroke-linejoin="bevel" d="M0.0585937 178.411L37.3319 107.542L62.1089 133.168L112.415 38.8316L137.135 83.2316L186.928 0L137.615 98.5916L113.375 57.7916L65.3752 143.952L38.9752 118.032L0 178.118" sodipodi:nodetypes="ccccccccccc"/><path id="shape1" transform="matrix(0.512000015312222 0 0 0.512000015312222 39.3300006898853 83.8199998851282)" opacity="0.65" fill="#ffffff" fill-rule="evenodd" stroke="#fffcc2" stroke-width="0.4824" stroke-linecap="square" stroke-linejoin="bevel" d="M0.292969 53.1445L33.2227 25.4297L41.9531 43.0078L92.5498 2.43087L92.5498 36.372L144.756 0L87.5977 50.5078L88.1836 11.3672L40.1367 53.4375L31.6992 31.7578L0 53.2031" sodipodi:nodetypes="ccccccccccc"/><path id="shape2" transform="matrix(0.512000015312222 0 0 0.512000015312222 12.727922421057 12.0490991131688)" opacity="0.65" fill="#ffffff" fill-rule="evenodd" stroke="#fffcc2" stroke-width="0.4824" stroke-linecap="square" stroke-linejoin="bevel" d="M0.124296 115.222L5.14078 74.9627L24.5939 84.2791L36.7088 28.1738L57.4662 43.4622L69.4401 0L59.8673 55.8025L39.3604 39.6919L29.8673 94.7674L9.5939 83.2244L0 115.471" sodipodi:nodetypes="ccccccccccc"/>
</svg>
