<?xml version="1.0" standalone="no"?>
<!DOCTYPE svg PUBLIC "-//W3C//DTD SVG 20010904//EN" "http://www.w3.org/TR/2001/REC-SVG-20010904/DTD/svg10.dtd">
<!-- Created using Krita: https://krita.org -->
<svg xmlns="http://www.w3.org/2000/svg" 
    xmlns:xlink="http://www.w3.org/1999/xlink"
    xmlns:krita="http://krita.org/namespaces/svg/krita"
    xmlns:sodipodi="http://sodipodi.sourceforge.net/DTD/sodipodi-0.dtd"
    width="122.88pt"
    height="122.88pt"
    viewBox="0 0 122.88 122.88">
<defs>
  <linearGradient id="gradient0" gradientUnits="objectBoundingBox" x1="0" y1="0" x2="1" y2="1" spreadMethod="pad">
   <stop stop-color="#9912d6" offset="0" stop-opacity="1"/>
   <stop stop-color="#4e066f" offset="1" stop-opacity="1"/>
  </linearGradient>
  <linearGradient id="gradient1" gradientUnits="objectBoundingBox" x1="0" y1="0" x2="1" y2="1" spreadMethod="pad">
   <stop stop-color="#9912d6" offset="0" stop-opacity="1"/>
   <stop stop-color="#4e066f" offset="1" stop-opacity="1"/>
  </linearGradient>
  <linearGradient id="gradient2" gradientUnits="objectBoundingBox" x1="0" y1="0" x2="1" y2="1" spreadMethod="pad">
   <stop stop-color="#9912d6" offset="0" stop-opacity="1"/>
   <stop stop-color="#4e066f" offset="1" stop-opacity="1"/>
  </linearGradient>
 </defs>
<circle id="shape0" transform="matrix(0.512000016575417 0 0 0.512000016575417 37.1483107218814 60.4297040708798)" r="27.2066133174121" cx="27.2066133174121" cy="27.2066133174121" fill="#850bbc" fill-rule="evenodd" stroke-opacity="0" stroke="#000000" stroke-width="0" stroke-linecap="square" stroke-linejoin="bevel"/><circle id="shape1" transform="matrix(0.512000016575417 0 0 0.512000016575417 28.5765261326893 33.9385217733158)" r="9.28332095309831" cx="9.28332095309831" cy="9.28332095309831" fill="#850bbc" fill-rule="evenodd" stroke-opacity="0" stroke="#000000" stroke-width="0" stroke-linecap="square" stroke-linejoin="bevel"/><ellipse id="shape2" transform="matrix(0.512000016575417 0 0 0.512000016575417 65.6179231133173 23.8387207717514)" rx="3.95999999999999" ry="3.96" cx="3.95999999999999" cy="3.96" fill="#850bbc" fill-rule="evenodd" stroke-opacity="0" stroke="#000000" stroke-width="0" stroke-linecap="square" stroke-linejoin="bevel"/><circle id="shape01" transform="matrix(0.512000022888184 0 0 0.512000022888184 33.025492778215 57.7536025721478)" r="55.8" cx="55.8" cy="55.8" fill="none" stroke="url(#gradient0)" stroke-width="16.8" stroke-linecap="square" stroke-linejoin="bevel"/><circle id="shape11" transform="matrix(0.512000022888184 0 0 0.512000022888184 63.7363990956256 21.5915104645215)" r="11.4980231113953" cx="11.4980231113953" cy="11.4980231113953" fill="none" stroke="url(#gradient1)" stroke-width="9.6" stroke-linecap="square" stroke-linejoin="bevel"/><circle id="shape21" transform="matrix(0.512000022888184 0 0 0.512000022888184 26.8771779999657 31.9752580462227)" r="22.1515057155363" cx="22.1515057155363" cy="22.1515057155363" fill="none" stroke="url(#gradient2)" stroke-width="9.6" stroke-linecap="square" stroke-linejoin="bevel"/><circle id="shape3" transform="matrix(0.512000016575417 0 0 0.512000016575417 86.3846437856162 36.2496011735395)" r="15" cx="15" cy="15" fill="#850bbc" fill-rule="evenodd" stroke-opacity="0" stroke="#000000" stroke-width="0" stroke-linecap="square" stroke-linejoin="bevel"/><circle id="shape4" transform="matrix(0.512000016575417 0 0 0.512000016575417 38.0928022222229 14.4998404694158)" r="4.2" cx="4.2" cy="4.2" fill="#850bbc" fill-rule="evenodd" stroke-opacity="0" stroke="#000000" stroke-width="0" stroke-linecap="square" stroke-linejoin="bevel"/><ellipse id="shape5" transform="matrix(0.512000016575417 0 0 0.512000016575417 96.2150441038643 69.0585622356923)" rx="19.2" ry="19.32" cx="19.2" cy="19.32" fill="#850bbc" fill-rule="evenodd" stroke-opacity="0" stroke="#000000" stroke-width="0" stroke-linecap="square" stroke-linejoin="bevel"/><ellipse id="shape6" transform="matrix(0.512000016575417 0 0 0.512000016575417 14.1312014464933 60.5798419612034)" rx="9.96" ry="9.95999999999999" cx="9.96" cy="9.95999999999999" fill="#850bbc" fill-rule="evenodd" stroke-opacity="0" stroke="#000000" stroke-width="0" stroke-linecap="square" stroke-linejoin="bevel"/><circle id="shape7" transform="matrix(0.512000016575417 0 0 0.512000016575417 8.11008125156651 89.5795229000349)" r="10.92" cx="10.92" cy="10.92" fill="#850bbc" fill-rule="evenodd" stroke-opacity="0" stroke="#000000" stroke-width="0" stroke-linecap="square" stroke-linejoin="bevel"/><ellipse id="shape8" transform="matrix(0.512000016575417 0 0 0.512000016575417 21.5040016851795 79.0118425579184)" rx="5.4" ry="5.39999999999999" cx="5.4" cy="5.39999999999999" fill="#850bbc" fill-rule="evenodd" stroke-opacity="0" stroke="#000000" stroke-width="0" stroke-linecap="square" stroke-linejoin="bevel"/><circle id="shape9" transform="matrix(0.512000016575417 0 0 0.512000016575417 68.3212832008355 43.6224014122255)" r="5.64" cx="5.64" cy="5.64" fill="#850bbc" fill-rule="evenodd" stroke-opacity="0" stroke="#000000" stroke-width="0" stroke-linecap="square" stroke-linejoin="bevel"/><ellipse id="shape10" transform="matrix(0.512000016575417 0 0 0.512000016575417 86.6304037935725 9.33888030233561)" rx="5.88" ry="6" cx="5.88" cy="6" fill="#850bbc" fill-rule="evenodd" stroke-opacity="0" stroke="#000000" stroke-width="0" stroke-linecap="square" stroke-linejoin="bevel"/><circle id="shape11" transform="matrix(0.512000016575417 0 0 0.512000016575417 92.8972839964555 16.3430405290873)" r="2.88" cx="2.88" cy="2.88" fill="#850bbc" fill-rule="evenodd" stroke-opacity="0" stroke="#000000" stroke-width="0" stroke-linecap="square" stroke-linejoin="bevel"/><ellipse id="shape12" transform="matrix(0.512000016575417 0 0 0.512000016575417 98.0582441635357 97.8124831665676)" rx="5.88" ry="6" cx="5.88" cy="6" fill="#850bbc" fill-rule="evenodd" stroke-opacity="0" stroke="#000000" stroke-width="0" stroke-linecap="square" stroke-linejoin="bevel"/><ellipse id="shape101" transform="matrix(0.950027142598755 0 0 0.950027142598755 52.6369970665248 3.40060113216081)" rx="5.88" ry="6" cx="5.88" cy="6" fill="#850bbc" fill-rule="evenodd" stroke-opacity="0" stroke="#000000" stroke-width="0" stroke-linecap="square" stroke-linejoin="bevel"/>
</svg>
