<?xml version="1.0" standalone="no"?>
<!DOCTYPE svg PUBLIC "-//W3C//DTD SVG 20010904//EN" "http://www.w3.org/TR/2001/REC-SVG-20010904/DTD/svg10.dtd">
<!-- Created using Krita: https://krita.org -->
<svg xmlns="http://www.w3.org/2000/svg" 
    xmlns:xlink="http://www.w3.org/1999/xlink"
    xmlns:krita="http://krita.org/namespaces/svg/krita"
    xmlns:sodipodi="http://sodipodi.sourceforge.net/DTD/sodipodi-0.dtd"
    width="122.88pt"
    height="122.88pt"
    viewBox="0 0 122.88 122.88">
<defs>
  <radialGradient id="gradient0" gradientUnits="objectBoundingBox" cx="0" cy="0" fx="0" fy="0" r="1.4142135623731" spreadMethod="pad">
   <stop stop-color="#00cbff" offset="0" stop-opacity="1"/>
   <stop stop-color="#77ddff" offset="1" stop-opacity="1"/>
  </radialGradient>
  <radialGradient id="gradient1" gradientUnits="objectBoundingBox" cx="0" cy="0" fx="0" fy="0" r="1.4142135623731" spreadMethod="pad">
   <stop stop-color="#00cbff" offset="0" stop-opacity="1"/>
   <stop stop-color="#77ddff" offset="1" stop-opacity="1"/>
  </radialGradient>
  <radialGradient id="gradient2" gradientUnits="objectBoundingBox" cx="0" cy="0" fx="0" fy="0" r="1.4142135623731" spreadMethod="pad">
   <stop stop-color="#00cbff" offset="0" stop-opacity="1"/>
   <stop stop-color="#77ddff" offset="1" stop-opacity="1"/>
  </radialGradient>
 </defs>
<path id="shape0" transform="matrix(0.483622787708807 -0.168086354729543 0.168086354729543 0.483622787708807 28.1116575951765 89.7370487812006)" fill="url(#gradient0)" fill-rule="evenodd" stroke="#ffffff" stroke-width="1" stroke-linecap="square" stroke-linejoin="bevel" d="M12.6943 15.786L0 0L60.7887 7.305L66.9987 16.756L50.6197 27.768L64.7087 30.94L42.5647 33.184L28.5887 42.58L60.3887 42.46L75.1487 58.9L17.3087 51.46L11.0687 41.74L25.8027 31.391L14.4287 29.14L34.6827 25.154L45.5337 17.533L12.6943 15.786" sodipodi:nodetypes="ccccccccccccccccc"/><path id="shape01" transform="matrix(0.50960733099933 0.0494406650504663 -0.0494406650504663 0.50960733099933 62.6833484493704 52.8024374144647)" fill="url(#gradient1)" fill-rule="evenodd" stroke="#ffffff" stroke-width="1" stroke-linecap="square" stroke-linejoin="bevel" d="M15.4266 19.1837L0 0L73.8726 8.8773L81.4192 20.3625L61.5149 33.7447L78.6363 37.5994L51.7261 40.3264L34.742 51.7447L73.3865 51.5989L91.3234 71.5774L21.0341 62.536L13.4511 50.7239L31.3564 38.1475L17.5343 35.412L42.1477 30.568L55.3342 21.3067L15.4266 19.1837" sodipodi:nodetypes="ccccccccccccccccc"/><path id="shape011" transform="matrix(0.457082329448001 -0.230694037484795 0.230694037484795 0.457082329448001 6.36083453276721 22.4252388669342)" fill="url(#gradient2)" fill-rule="evenodd" stroke="#ffffff" stroke-width="1" stroke-linecap="square" stroke-linejoin="bevel" d="M21.2743 26.4556L0 0L101.875 12.2424L112.282 28.0812L84.833 46.5361L108.445 51.852L71.3337 55.6127L47.9115 71.3593L101.205 71.1582L125.941 98.7099L29.0074 86.2412L18.5499 69.9516L43.2425 52.6079L24.1809 48.8354L58.1244 42.1553L76.3095 29.3833L21.2743 26.4556" sodipodi:nodetypes="ccccccccccccccccc"/>
</svg>
