<?xml version="1.0" standalone="no"?>
<!DOCTYPE svg PUBLIC "-//W3C//DTD SVG 20010904//EN" "http://www.w3.org/TR/2001/REC-SVG-20010904/DTD/svg10.dtd">
<!-- Created using Krita: https://krita.org -->
<svg xmlns="http://www.w3.org/2000/svg" 
    xmlns:xlink="http://www.w3.org/1999/xlink"
    xmlns:krita="http://krita.org/namespaces/svg/krita"
    xmlns:sodipodi="http://sodipodi.sourceforge.net/DTD/sodipodi-0.dtd"
    width="122.88pt"
    height="122.88pt"
    viewBox="0 0 122.88 122.88">
<defs>
  <radialGradient id="gradient0" gradientUnits="objectBoundingBox" cx="0.502777661659817" cy="0.507243947487111" fx="0.502777661659817" fy="0.507243947487111" r="1.4142135623731" spreadMethod="pad">
   <stop stop-color="#00d29e" offset="0" stop-opacity="1"/>
   <stop stop-color="#c9fff1" offset="0.4721" stop-opacity="1"/>
  </radialGradient>
 </defs>
<path id="shape0" transform="matrix(0.362030551807138 0.362046824313821 -0.362046824313821 0.362030551807138 61.4471947509761 34.7228934975678)" fill="url(#gradient0)" fill-rule="evenodd" stroke="#4cffd3" stroke-width="2.4" stroke-linecap="square" stroke-linejoin="bevel" d="M0.199023 0C11.7937 6.34619 24.7333 9.83919 36.9733 9.83919C49.2132 9.83919 60.8701 6.34104 73.6387 0C73.7486 0 73.8377 0.0891058 73.8377 0.199023C67.9577 11.5991 64.1268 24.7515 64.1268 36.9915C64.1268 49.2314 66.5915 59.3443 73.8377 73.6387C73.8377 73.7486 73.7486 73.8377 73.6387 73.8377C62.4434 67.7237 49.1296 64.2299 36.8897 64.2299C24.6497 64.2298 13.0777 67.0152 0.199023 73.8377C0.0891058 73.8377 0 73.7486 1.11022e-16 73.6387C5.43767 62.698 9.56341 49.0878 9.56341 36.8479C9.56341 24.6079 5.77774 11.7366 0 0.199023C0 0.0891058 0.0891058 0 0.199023 0Z" sodipodi:nodetypes="ccccccccccccc"/><path id="shape1" transform="matrix(-0.361594338258713 -0.362482493338296 0.362482493338296 -0.361594338258713 98.5631781010243 61.423219731889)" fill="#00d29e" fill-rule="evenodd" stroke="#4cffd3" stroke-width="2.4" stroke-linecap="square" stroke-linejoin="bevel" d="M0 22.6805C16.1707 14.3802 34.4466 8.29034 51.5679 8.28269C68.6892 8.27504 87.2222 12.7969 102.728 22.6346C86.1624 7.54487 69.121 0 51.6036 0C26.4699 0 0.765024 22.0634 0 22.6805Z" sodipodi:nodetypes="ccccc"/><path id="shape01" transform="matrix(-0.361594327822885 -0.362482482876835 0.362482482876835 -0.361594327822885 104.088300188282 44.8319883915907)" fill="#00d29e" fill-rule="evenodd" stroke="#4cffd3" stroke-width="2.4" stroke-linecap="square" stroke-linejoin="bevel" d="M0 15.937C11.3627 10.1046 24.2047 5.82539 36.2353 5.82002C48.266 5.81464 61.2886 8.99203 72.1841 15.9047C60.5439 5.30157 48.5694 0 36.2604 0C18.5997 0 0.537561 15.5033 0 15.937Z" sodipodi:nodetypes="ccccc"/><path id="shape011" transform="matrix(-0.361594320216089 -0.362482475251354 0.362482475251354 -0.361594320216089 108.527736812696 29.4424892799684)" fill="#00d29e" fill-rule="evenodd" stroke="#4cffd3" stroke-width="2.4" stroke-linecap="square" stroke-linejoin="bevel" d="M0 9.29256C6.62537 5.8918 14.1133 3.39667 21.1281 3.39354C28.143 3.39041 35.7362 5.24308 42.0892 9.27373C35.302 3.09124 28.3199 0 21.1427 0C10.8451 0 0.313442 9.03968 0 9.29256Z" sodipodi:nodetypes="ccccc"/><path id="shape02" transform="matrix(0.362482494153044 -0.361594339071465 0.361594339071465 0.362482494153044 61.3901312324986 98.5611640796258)" fill="#00d29e" fill-rule="evenodd" stroke="#4cffd3" stroke-width="2.4" stroke-linecap="square" stroke-linejoin="bevel" d="M0 22.6805C16.1707 14.3802 34.4466 8.29034 51.5679 8.28269C68.6892 8.27504 87.2222 12.7969 102.728 22.6346C86.1624 7.54487 69.121 0 51.6036 0C26.4699 0 0.765024 22.0634 0 22.6805Z" sodipodi:nodetypes="ccccc"/><path id="shape03" transform="matrix(0.362482483691583 -0.361594328635637 0.361594328635637 0.362482483691583 77.981362610089 104.086286179303)" fill="#00d29e" fill-rule="evenodd" stroke="#4cffd3" stroke-width="2.4" stroke-linecap="square" stroke-linejoin="bevel" d="M0 15.937C11.3627 10.1046 24.2047 5.82539 36.2353 5.82002C48.266 5.81464 61.2886 8.99203 72.1841 15.9047C60.5439 5.30157 48.5694 0 36.2604 0C18.5997 0 0.537561 15.5033 0 15.937Z" sodipodi:nodetypes="ccccc"/><path id="shape0111" transform="matrix(0.362482476066102 -0.36159432102884 0.36159432102884 0.362482476066102 93.3708617563019 108.525722813695)" fill="#00d29e" fill-rule="evenodd" stroke="#4cffd3" stroke-width="2.4" stroke-linecap="square" stroke-linejoin="bevel" d="M0 9.29256C6.62537 5.8918 14.1133 3.39667 21.1281 3.39354C28.143 3.39041 35.7362 5.24308 42.0892 9.27373C35.302 3.09124 28.3199 0 21.1427 0C10.8451 0 0.313442 9.03968 0 9.29256Z" sodipodi:nodetypes="ccccc"/><path id="shape04" transform="matrix(-0.362482485677002 0.361594330616191 -0.361594330616191 -0.362482485677002 61.4150509408039 24.2886557827362)" fill="#00d29e" fill-rule="evenodd" stroke="#4cffd3" stroke-width="2.4" stroke-linecap="square" stroke-linejoin="bevel" d="M0 22.6805C16.1707 14.3802 34.4466 8.29034 51.5679 8.28269C68.6892 8.27504 87.2222 12.7969 102.728 22.6346C86.1624 7.54487 69.121 0 51.6036 0C26.4699 0 0.765024 22.0634 0 22.6805Z" sodipodi:nodetypes="ccccc"/><path id="shape05" transform="matrix(-0.362482475215541 0.361594320180364 -0.361594320180364 -0.362482475215541 44.8238199511717 18.7635338122558)" fill="#00d29e" fill-rule="evenodd" stroke="#4cffd3" stroke-width="2.4" stroke-linecap="square" stroke-linejoin="bevel" d="M0 15.937C11.3627 10.1046 24.2047 5.82539 36.2353 5.82002C48.266 5.81464 61.2886 8.99203 72.1841 15.9047C60.5439 5.30157 48.5694 0 36.2604 0C18.5997 0 0.537561 15.5033 0 15.937Z" sodipodi:nodetypes="ccccc"/><path id="shape01111" transform="matrix(-0.36248246759006 0.361594312573567 -0.361594312573567 -0.36248246759006 29.4343211648161 14.3240972816714)" fill="#00d29e" fill-rule="evenodd" stroke="#4cffd3" stroke-width="2.4" stroke-linecap="square" stroke-linejoin="bevel" d="M0 9.29256C6.62537 5.8918 14.1133 3.39667 21.1281 3.39354C28.143 3.39041 35.7362 5.24308 42.0892 9.27373C35.302 3.09124 28.3199 0 21.1427 0C10.8451 0 0.313442 9.03968 0 9.29256Z" sodipodi:nodetypes="ccccc"/><path id="shape06" transform="matrix(0.361594319514873 0.362482474548416 -0.362482474548416 0.361594319514873 24.2950531230849 61.4402610861986)" fill="#00d29e" fill-rule="evenodd" stroke="#4cffd3" stroke-width="2.4" stroke-linecap="square" stroke-linejoin="bevel" d="M0 22.6805C16.1707 14.3802 34.4466 8.29034 51.5679 8.28269C68.6892 8.27504 87.2222 12.7969 102.728 22.6346C86.1624 7.54487 69.121 0 51.6036 0C26.4699 0 0.765024 22.0634 0 22.6805Z" sodipodi:nodetypes="ccccc"/><path id="shape012" transform="matrix(0.361594309079046 0.362482464086955 -0.362482464086955 0.361594309079046 18.7699313222313 78.0314915664628)" fill="#00d29e" fill-rule="evenodd" stroke="#4cffd3" stroke-width="2.4" stroke-linecap="square" stroke-linejoin="bevel" d="M0 15.937C11.3627 10.1046 24.2047 5.82539 36.2353 5.82002C48.266 5.81464 61.2886 8.99203 72.1841 15.9047C60.5439 5.30157 48.5694 0 36.2604 0C18.5997 0 0.537561 15.5033 0 15.937Z" sodipodi:nodetypes="ccccc"/><path id="shape013" transform="matrix(0.361594301472248 0.362482456461475 -0.362482456461475 0.361594301472248 14.3304949279421 93.420989880345)" fill="#00d29e" fill-rule="evenodd" stroke="#4cffd3" stroke-width="2.4" stroke-linecap="square" stroke-linejoin="bevel" d="M0 9.29256C6.62537 5.8918 14.1133 3.39667 21.1281 3.39354C28.143 3.39041 35.7362 5.24308 42.0892 9.27373C35.302 3.09124 28.3199 0 21.1427 0C10.8451 0 0.313442 9.03968 0 9.29256Z" sodipodi:nodetypes="ccccc"/>
</svg>
