<?xml version="1.0" encoding="UTF-8" standalone="no"?>
<svg
   xmlns:dc="http://purl.org/dc/elements/1.1/"
   xmlns:cc="http://creativecommons.org/ns#"
   xmlns:rdf="http://www.w3.org/1999/02/22-rdf-syntax-ns#"
   xmlns:svg="http://www.w3.org/2000/svg"
   xmlns="http://www.w3.org/2000/svg"
   width="72.5"
   height="100"
   id="svg2"
   version="1.1">
  <metadata
     id="metadata10">
    <rdf:RDF>
      <cc:Work
         rdf:about="">
        <dc:format>image/svg+xml</dc:format>
        <dc:type
           rdf:resource="http://purl.org/dc/dcmitype/StillImage" />
        <dc:title></dc:title>
      </cc:Work>
    </rdf:RDF>
  </metadata>
  <defs
     id="defs8" />
  <path
     style="fill-rule:evenodd"
     d="m 5,61 -5,0 0,10 5,0 0,6 -5,0 0,10 5,0 0,13 10,0 0,-13 38,0 0,-10 -38,0 0,-6 38,0 0,-10 -38,0 0,-6 30,0 C 60.187841,55 72.499988,42.68783 72.499988,27.5 72.499988,12.31217 60.187841,0 45,0 L 5,0 C 4.4936324,24.995341 5,47.667156 5,61 Z M 15,45 45,45 C 54.66499,45 62.499992,37.164983 62.499992,27.5 62.499992,17.835017 54.66499,10 45,10 l -30,0 z"
     id="path4" />
</svg>
