<svg xmlns="http://www.w3.org/2000/svg" viewBox="0 -0.5 377 74" shape-rendering="crispEdges">
<metadata>Made with Pixels to Svg https://codepen.io/shshaw/pen/XbxvNj</metadata>
<path stroke="#141518" d="M0 0h5M372 0h5M0 1h5M372 1h5M0 2h5M372 2h5M0 3h5M372 3h5M0 4h5M372 4h5M0 5h5M372 5h5M0 6h5M372 6h5M0 7h5M372 7h5M0 8h5M372 8h5M0 9h5M372 9h5M0 10h5M372 10h5M0 11h5M372 11h5M0 12h5M372 12h5M0 13h5M372 13h5M0 14h5M372 14h5M0 15h5M372 15h5M0 16h5M372 16h5M0 17h5M372 17h5M0 18h5M372 18h5M0 19h5M372 19h5M0 20h5M372 20h5M0 21h5M372 21h5M0 22h5M372 22h5M0 23h5M372 23h5M0 24h5M372 24h5M0 25h5M372 25h5M0 26h5M372 26h5M0 27h5M372 27h5M0 28h5M372 28h5M0 29h5M372 29h5M0 30h5M372 30h5M0 31h5M372 31h5M0 32h5M372 32h5M0 33h5M372 33h5M0 34h5M372 34h5M0 35h5M372 35h5M0 36h5M372 36h5M0 37h5M372 37h5M0 38h5M372 38h5M0 39h5M372 39h5M0 40h5M372 40h5M0 41h5M372 41h5M0 42h5M372 42h5M0 43h5M372 43h5M0 44h5M372 44h5M0 45h5M372 45h5M0 46h5M372 46h5M0 47h5M372 47h5M0 48h5M372 48h5M0 49h5M372 49h5M0 50h5M372 50h5M0 51h5M372 51h5M0 52h5M372 52h5M0 53h5M372 53h5M0 54h5M372 54h5M0 55h5M372 55h5M0 56h5M372 56h5M0 57h5M372 57h5M0 58h5M372 58h5M0 59h5M372 59h5M0 60h5M372 60h5M0 61h5M372 61h5M0 62h5M372 62h5M0 63h5M372 63h5M0 64h5M372 64h5M0 65h5M372 65h5M0 66h5M372 66h5M0 67h5M372 67h5M0 68h5M372 68h5M0 69h5M372 69h5M0 70h5M372 70h5M0 71h5M372 71h5M0 72h5M372 72h5M0 73h5M372 73h5" />
<path stroke="#8b8b8b" d="M5 0h367" />
<path stroke="#393939" d="M5 1h367" />
<path stroke="#494a4b" d="M5 2h367" />
<path stroke="#afbcc2" d="M5 3h367" />
<path stroke="#a0adb2" d="M5 4h16M356 4h16" />
<path stroke="#a1aeb2" d="M21 4h1" />
<path stroke="#a9b4bb" d="M22 4h1" />
<path stroke="#adb8c0" d="M23 4h5M350 4h5" />
<path stroke="#bbc5cd" d="M28 4h321" />
<path stroke="#b5bfc7" d="M349 4h1" />
<path stroke="#a5b1b7" d="M355 4h1" />
<path stroke="#525a5a" d="M5 5h16M356 5h16M5 6h16M356 6h16M5 7h16M356 7h16M5 8h16M356 8h16M5 9h16M356 9h16M5 10h16M356 10h16M5 11h16M356 11h16M5 12h16M356 12h16M5 13h16M356 13h16M5 14h16M356 14h16M5 15h16M356 15h16M5 16h16M356 16h16M5 17h16M356 17h16M5 18h16M356 18h16M5 19h16M356 19h16M5 20h16M356 20h16M5 21h16M356 21h16M5 22h16M356 22h16M5 23h16M356 23h16M5 24h16M356 24h16M5 25h16M356 25h16M5 26h16M356 26h16M5 27h16M356 27h16M5 28h16M356 28h16M5 29h16M356 29h16M5 30h16M356 30h16M5 31h16M356 31h16M5 32h16M356 32h16M5 33h16M356 33h16M5 34h16M356 34h16M5 35h16M356 35h16M5 36h16M356 36h16M5 37h16M356 37h16M5 38h16M356 38h16M5 39h16M356 39h16M5 40h16M356 40h16M5 41h16M356 41h16M5 42h16M356 42h16M5 43h16M356 43h16M5 44h16M356 44h16M5 45h16M356 45h16M5 46h16M356 46h16M5 47h16M356 47h16M5 48h16M356 48h16M5 49h16M356 49h16M5 50h16M356 50h16M5 51h16M356 51h16M5 52h16M356 52h16M5 53h16M356 53h16M5 54h16M356 54h16M5 55h16M356 55h16M5 56h16M356 56h16M5 57h16M356 57h16M5 58h16M356 58h16M5 59h16M356 59h16M5 60h16M356 60h16M5 61h16M356 61h16M5 62h16M356 62h16M5 63h16M356 63h16M5 64h16M356 64h16M5 65h16M356 65h16M5 66h16M356 66h16M5 67h16M356 67h16M5 68h16M356 68h16M5 69h16M356 69h16M5 70h16M356 70h16" />
<path stroke="#535b5b" d="M21 5h1M21 6h1M21 7h1M21 8h1M21 9h1M21 10h1M21 11h1M21 12h1M21 13h1M21 14h1M21 15h1M21 16h1M21 17h1M21 18h1M21 19h1M21 20h1M21 21h1M21 22h1M21 23h1M21 24h1M21 25h1M21 26h1M21 27h1M21 28h1M21 29h1M21 30h1M21 31h1M21 32h1M21 33h1M21 34h1M21 35h1M21 36h1M21 37h1M21 38h1M21 39h1M21 40h1M21 41h1M21 42h1M21 43h1M21 44h1M21 45h1M21 46h1M21 47h1M21 48h1M21 49h1M21 50h1M21 51h1M21 52h1M21 53h1M21 54h1M21 55h1M21 56h1M21 57h1M21 58h1M21 59h1M21 60h1M21 61h1M21 62h1M21 63h1M21 64h1M21 65h1M21 66h1M21 67h1M21 68h1M21 69h1M21 70h1" />
<path stroke="#686b70" d="M22 5h1M22 6h1M22 7h1M22 8h1M22 9h1M22 10h1M22 11h1M22 12h1M22 13h1M22 14h1M22 15h1M22 16h1M22 17h1M22 18h1M22 19h1M22 20h1M22 21h1M22 22h1M22 23h1M22 24h1M22 25h1M22 26h1M22 27h1M22 28h1M22 29h1M22 30h1M22 31h1M22 32h1M22 33h1M22 34h1M22 35h1M22 36h1M22 37h1M22 38h1M22 39h1M22 40h1M22 41h1M22 42h1M22 43h1M22 44h1M22 45h1M22 46h1M22 47h1M22 48h1M22 49h1M22 50h1M22 51h1M22 52h1M22 53h1M22 54h1M22 55h1M22 56h1M22 57h1M22 58h1M22 59h1M22 60h1M22 61h1M22 62h1M22 63h1M22 64h1M22 65h1M22 66h1M22 67h1M22 68h1M22 69h1M22 70h1" />
<path stroke="#73737b" d="M23 5h5M350 5h5M23 6h5M350 6h5M23 7h5M350 7h5M23 8h5M350 8h5M23 9h5M350 9h5M23 10h5M350 10h5M23 11h5M350 11h5M23 12h5M350 12h5M23 13h5M350 13h5M23 14h5M350 14h5M23 15h5M350 15h5M23 16h5M350 16h5M23 17h5M350 17h5M23 18h5M350 18h5M23 19h5M350 19h5M23 20h5M350 20h5M23 21h5M350 21h5M23 22h5M350 22h5M23 23h5M350 23h5M23 24h5M350 24h5M23 25h5M350 25h5M23 26h5M350 26h5M23 27h5M350 27h5M23 28h5M350 28h5M23 29h5M350 29h5M23 30h5M350 30h5M23 31h5M350 31h5M23 32h5M350 32h5M23 33h5M350 33h5M23 34h5M350 34h5M23 35h5M350 35h5M23 36h5M350 36h5M23 37h5M350 37h5M23 38h5M350 38h5M23 39h5M350 39h5M23 40h5M350 40h5M23 41h5M350 41h5M23 42h5M350 42h5M23 43h5M350 43h5M23 44h5M350 44h5M23 45h5M350 45h5M23 46h5M350 46h5M23 47h5M350 47h5M23 48h5M350 48h5M23 49h5M350 49h5M23 50h5M350 50h5M23 51h5M350 51h5M23 52h5M350 52h5M23 53h5M350 53h5M23 54h5M350 54h5M23 55h5M350 55h5M23 56h5M350 56h5M23 57h5M350 57h5M23 58h5M350 58h5M23 59h5M350 59h5M23 60h5M350 60h5M23 61h5M350 61h5M23 62h5M350 62h5M23 63h5M350 63h5M23 64h5M350 64h5M23 65h5M350 65h5M23 66h5M350 66h5M23 67h5M350 67h5M23 68h5M350 68h5M23 69h5M350 69h5M23 70h5M350 70h5" />
<path stroke="#94949c" d="M28 5h321M28 6h321M28 7h321M28 8h321M28 9h321M28 10h321M28 11h321M28 12h321M28 13h321M28 14h321M28 15h321M28 16h321M28 17h321M28 18h321M28 19h321M28 20h321M28 21h321M28 22h321M28 23h321M28 24h321M28 25h321M28 26h321M28 27h321M28 28h321M28 29h321M28 30h321M28 31h321M28 32h321M28 33h321M28 34h321M28 35h321M28 36h321M28 37h321M28 38h321M28 39h321M28 40h321M28 41h321M28 42h321M28 43h321M28 44h321M28 45h321M28 46h321M28 47h321M28 48h321M28 49h321M28 50h321M28 51h321M28 52h321M28 53h321M28 54h321M28 55h321M28 56h321M28 57h321M28 58h321M28 59h321M28 60h321M28 61h321M28 62h321M28 63h321M28 64h321M28 65h321M28 66h321M28 67h321M28 68h321M28 69h321M28 70h321" />
<path stroke="#85858d" d="M349 5h1M349 6h1M349 7h1M349 8h1M349 9h1M349 10h1M349 11h1M349 12h1M349 13h1M349 14h1M349 15h1M349 16h1M349 17h1M349 18h1M349 19h1M349 20h1M349 21h1M349 22h1M349 23h1M349 24h1M349 25h1M349 26h1M349 27h1M349 28h1M349 29h1M349 30h1M349 31h1M349 32h1M349 33h1M349 34h1M349 35h1M349 36h1M349 37h1M349 38h1M349 39h1M349 40h1M349 41h1M349 42h1M349 43h1M349 44h1M349 45h1M349 46h1M349 47h1M349 48h1M349 49h1M349 50h1M349 51h1M349 52h1M349 53h1M349 54h1M349 55h1M349 56h1M349 57h1M349 58h1M349 59h1M349 60h1M349 61h1M349 62h1M349 63h1M349 64h1M349 65h1M349 66h1M349 67h1M349 68h1M349 69h1M349 70h1" />
<path stroke="#5d6265" d="M355 5h1M355 6h1M355 7h1M355 8h1M355 9h1M355 10h1M355 11h1M355 12h1M355 13h1M355 14h1M355 15h1M355 16h1M355 17h1M355 18h1M355 19h1M355 20h1M355 21h1M355 22h1M355 23h1M355 24h1M355 25h1M355 26h1M355 27h1M355 28h1M355 29h1M355 30h1M355 31h1M355 32h1M355 33h1M355 34h1M355 35h1M355 36h1M355 37h1M355 38h1M355 39h1M355 40h1M355 41h1M355 42h1M355 43h1M355 44h1M355 45h1M355 46h1M355 47h1M355 48h1M355 49h1M355 50h1M355 51h1M355 52h1M355 53h1M355 54h1M355 55h1M355 56h1M355 57h1M355 58h1M355 59h1M355 60h1M355 61h1M355 62h1M355 63h1M355 64h1M355 65h1M355 66h1M355 67h1M355 68h1M355 69h1M355 70h1" />
<path stroke="#414848" d="M5 71h16M356 71h16" />
<path stroke="#424849" d="M21 71h1" />
<path stroke="#535559" d="M22 71h1" />
<path stroke="#5c5c62" d="M23 71h5M350 71h5" />
<path stroke="#76767d" d="M28 71h321" />
<path stroke="#6a6a70" d="M349 71h1" />
<path stroke="#4a4f51" d="M355 71h1" />
<path stroke="#0c0d0d" d="M5 72h17M356 72h16" />
<path stroke="#0f0f10" d="M22 72h1" />
<path stroke="#101012" d="M23 72h5M350 72h5" />
<path stroke="#151517" d="M28 72h321" />
<path stroke="#131314" d="M349 72h1" />
<path stroke="#0d0e0f" d="M355 72h1" />
<path stroke="#000000" d="M5 73h367" />
</svg>